<?xml version="1.0" encoding="UTF-8" standalone="no"?>
<!-- Created with Inkscape (http://www.inkscape.org/) -->

<svg
   xmlns:dc="http://purl.org/dc/elements/1.1/"
   xmlns:cc="http://creativecommons.org/ns#"
   xmlns:rdf="http://www.w3.org/1999/02/22-rdf-syntax-ns#"
   xmlns:svg="http://www.w3.org/2000/svg"
   xmlns="http://www.w3.org/2000/svg"
   xmlns:sodipodi="http://sodipodi.sourceforge.net/DTD/sodipodi-0.dtd"
   xmlns:inkscape="http://www.inkscape.org/namespaces/inkscape"
   width="179.37508mm"
   height="18.424088mm"
   viewBox="0 0 635.58096 65.2822"
   id="svg4835"
   version="1.1"
   inkscape:version="0.91 r13725"
   sodipodi:docname="title.svg">
  <defs
     id="defs4837" />
  <sodipodi:namedview
     id="base"
     pagecolor="#ffffff"
     bordercolor="#666666"
     borderopacity="1.0"
     inkscape:pageopacity="0.0"
     inkscape:pageshadow="2"
     inkscape:zoom="2.233871"
     inkscape:cx="385.63305"
     inkscape:cy="9.250623"
     inkscape:document-units="px"
     inkscape:current-layer="layer1"
     showgrid="false"
     fit-margin-top="0"
     fit-margin-left="0"
     fit-margin-right="0"
     fit-margin-bottom="0"
     inkscape:window-width="1920"
     inkscape:window-height="1026"
     inkscape:window-x="0"
     inkscape:window-y="0"
     inkscape:window-maximized="1" />
  <metadata
     id="metadata4840">
    <rdf:RDF>
      <cc:Work
         rdf:about="">
        <dc:format>image/svg+xml</dc:format>
        <dc:type
           rdf:resource="http://purl.org/dc/dcmitype/StillImage" />
        <dc:title></dc:title>
      </cc:Work>
    </rdf:RDF>
  </metadata>
  <g
     inkscape:label="Layer 1"
     inkscape:groupmode="layer"
     id="layer1"
     transform="translate(-75.350614,-137.83243)">
    <g
       style="font-style:normal;font-variant:normal;font-weight:normal;font-stretch:normal;font-size:15px;line-height:125%;font-family:Arial;-inkscape-font-specification:'Arial, Normal';text-align:start;letter-spacing:0px;word-spacing:0px;writing-mode:lr-tb;text-anchor:start;fill:#000000;fill-opacity:1;stroke:none;stroke-width:1px;stroke-linecap:butt;stroke-linejoin:miter;stroke-opacity:1"
       id="text4395"
       transform="matrix(1.5153081,0,0,1.5153081,29.754161,1776.6742)">
      <path
         d="m 30.09055,-1069.9738 0,-10.815 1.98,0 0,8.835 8.82,0 0,1.98 -10.8,0 z"
         style="font-style:normal;font-variant:normal;font-weight:bold;font-stretch:normal;font-family:Orbitron;-inkscape-font-specification:'Orbitron Bold'"
         id="path4530"
         inkscape:connector-curvature="0" />
      <path
         d="m 48.470003,-1078.6738 q 0.855,0 1.455,0.615 0.615,0.6 0.615,1.455 l 0,6.63 -6.765,0 q -0.855,0 -1.47,-0.6 -0.6,-0.615 -0.6,-1.47 l 0,-3.27 6.87,0 0,-1.29 q 0,-0.105 -0.105,-0.105 l -6.765,0 0,-1.965 6.765,0 z m 0.105,6.735 0,-1.395 -4.905,0 0,1.29 q 0,0.105 0.105,0.105 l 4.8,0 z"
         style="font-style:normal;font-variant:normal;font-weight:bold;font-stretch:normal;font-family:Orbitron;-inkscape-font-specification:'Orbitron Bold'"
         id="path4532"
         inkscape:connector-curvature="0" />
      <path
         d="m 58.607425,-1078.6738 q 0.855,0 1.455,0.615 0.615,0.6 0.615,1.455 l 0,4.56 q 0,0.855 -0.615,1.47 -0.6,0.6 -1.455,0.6 l -6.765,0 0,-11.55 1.965,0 0,2.85 4.8,0 z m 0.105,6.63 0,-4.56 q 0,-0.105 -0.105,-0.105 l -4.695,0 q -0.105,0 -0.105,0.105 l 0,4.56 q 0,0.105 0.105,0.105 l 4.695,0 q 0.105,0 0.105,-0.105 z"
         style="font-style:normal;font-variant:normal;font-weight:bold;font-stretch:normal;font-family:Orbitron;-inkscape-font-specification:'Orbitron Bold'"
         id="path4534"
         inkscape:connector-curvature="0" />
      <path
         d="m 63.916253,-1078.6738 4.695,0 q 0.855,0 1.455,0.615 0.615,0.6 0.615,1.455 l 0,4.56 q 0,0.855 -0.615,1.47 -0.6,0.6 -1.455,0.6 l -4.695,0 q -0.855,0 -1.47,-0.6 -0.6,-0.615 -0.6,-1.47 l 0,-4.56 q 0,-0.855 0.6,-1.455 0.615,-0.615 1.47,-0.615 z m 4.695,1.965 -4.695,0 q -0.105,0 -0.105,0.105 l 0,4.56 q 0,0.105 0.105,0.105 l 4.695,0 q 0.105,0 0.105,-0.105 l 0,-4.56 q 0,-0.105 -0.105,-0.105 z"
         style="font-style:normal;font-variant:normal;font-weight:bold;font-stretch:normal;font-family:Orbitron;-inkscape-font-specification:'Orbitron Bold'"
         id="path4536"
         inkscape:connector-curvature="0" />
      <path
         d="m 74.067972,-1078.6738 4.83,0 0,1.965 -4.83,0 q -0.105,0 -0.105,0.105 l 0,6.63 -1.965,0 0,-6.63 q 0,-0.855 0.6,-1.455 0.615,-0.615 1.47,-0.615 z"
         style="font-style:normal;font-variant:normal;font-weight:bold;font-stretch:normal;font-family:Orbitron;-inkscape-font-specification:'Orbitron Bold'"
         id="path4538"
         inkscape:connector-curvature="0" />
      <path
         d="m 87.053987,-1078.6738 q 0.855,0 1.455,0.615 0.615,0.6 0.615,1.455 l 0,6.63 -6.765,0 q -0.855,0 -1.47,-0.6 -0.6,-0.615 -0.6,-1.47 l 0,-3.27 6.87,0 0,-1.29 q 0,-0.105 -0.105,-0.105 l -6.765,0 0,-1.965 6.765,0 z m 0.105,6.735 0,-1.395 -4.905,0 0,1.29 q 0,0.105 0.105,0.105 l 4.8,0 z"
         style="font-style:normal;font-variant:normal;font-weight:bold;font-stretch:normal;font-family:Orbitron;-inkscape-font-specification:'Orbitron Bold'"
         id="path4540"
         inkscape:connector-curvature="0" />
      <path
         d="m 96.059378,-1076.7088 -3.39,0 0,4.665 q 0,0.105 0.105,0.105 l 3.285,0 0,1.965 -3.285,0 q -0.87,0 -1.47,-0.6 -0.6,-0.615 -0.6,-1.47 l 0,-9.48 1.965,0 0,2.85 3.39,0 0,1.965 z"
         style="font-style:normal;font-variant:normal;font-weight:bold;font-stretch:normal;font-family:Orbitron;-inkscape-font-specification:'Orbitron Bold'"
         id="path4542"
         inkscape:connector-curvature="0" />
      <path
         d="m 99.306878,-1078.6738 4.695002,0 q 0.855,0 1.455,0.615 0.615,0.6 0.615,1.455 l 0,4.56 q 0,0.855 -0.615,1.47 -0.6,0.6 -1.455,0.6 l -4.695002,0 q -0.855,0 -1.47,-0.6 -0.6,-0.615 -0.6,-1.47 l 0,-4.56 q 0,-0.855 0.6,-1.455 0.615,-0.615 1.47,-0.615 z m 4.695002,1.965 -4.695002,0 q -0.105,0 -0.105,0.105 l 0,4.56 q 0,0.105 0.105,0.105 l 4.695002,0 q 0.105,0 0.105,-0.105 l 0,-4.56 q 0,-0.105 -0.105,-0.105 z"
         style="font-style:normal;font-variant:normal;font-weight:bold;font-stretch:normal;font-family:Orbitron;-inkscape-font-specification:'Orbitron Bold'"
         id="path4544"
         inkscape:connector-curvature="0" />
      <path
         d="m 109.4586,-1078.6738 4.83,0 0,1.965 -4.83,0 q -0.105,0 -0.105,0.105 l 0,6.63 -1.965,0 0,-6.63 q 0,-0.855 0.6,-1.455 0.615,-0.615 1.47,-0.615 z"
         style="font-style:normal;font-variant:normal;font-weight:bold;font-stretch:normal;font-family:Orbitron;-inkscape-font-specification:'Orbitron Bold'"
         id="path4546"
         inkscape:connector-curvature="0" />
      <path
         d="m 123.98375,-1068.5938 q 0,0.855 -0.6,1.455 -0.6,0.615 -1.455,0.615 l -5.325,0 0,-1.98 5.325,0 q 0.09,0 0.09,-0.09 l 0,-1.38 -4.8,0 q -0.855,0 -1.47,-0.6 -0.6,-0.615 -0.6,-1.47 l 0,-6.6 1.965,0 0,6.6 q 0,0.105 0.105,0.105 l 4.71,0 q 0.09,0 0.09,-0.105 l 0,-6.6 1.965,0 0,10.05 z"
         style="font-style:normal;font-variant:normal;font-weight:bold;font-stretch:normal;font-family:Orbitron;-inkscape-font-specification:'Orbitron Bold'"
         id="path4548"
         inkscape:connector-curvature="0" />
      <path
         d="m 132.26586,-1078.6738 4.695,0 q 0.855,0 1.455,0.615 0.615,0.6 0.615,1.455 l 0,4.56 q 0,0.855 -0.615,1.47 -0.6,0.6 -1.455,0.6 l -4.695,0 q -0.855,0 -1.47,-0.6 -0.6,-0.615 -0.6,-1.47 l 0,-4.56 q 0,-0.855 0.6,-1.455 0.615,-0.615 1.47,-0.615 z m 4.695,1.965 -4.695,0 q -0.105,0 -0.105,0.105 l 0,4.56 q 0,0.105 0.105,0.105 l 4.695,0 q 0.105,0 0.105,-0.105 l 0,-4.56 q 0,-0.105 -0.105,-0.105 z"
         style="font-style:normal;font-variant:normal;font-weight:bold;font-stretch:normal;font-family:Orbitron;-inkscape-font-specification:'Orbitron Bold'"
         id="path4550"
         inkscape:connector-curvature="0" />
      <path
         d="m 142.66696,-1079.5438 q -0.105,0 -0.105,0.09 l 0,0.78 3.39,0 0,1.965 -3.39,0 0,6.735 -1.965,0 0,-9.48 q 0,-0.855 0.6,-1.455 0.6,-0.615 1.47,-0.615 l 3.285,0 0,1.98 -3.285,0 z"
         style="font-style:normal;font-variant:normal;font-weight:bold;font-stretch:normal;font-family:Orbitron;-inkscape-font-specification:'Orbitron Bold'"
         id="path4552"
         inkscape:connector-curvature="0" />
      <path
         d="m 162.24336,-1078.6888 0,2.115 q 0,0.45 -0.15,0.765 0.585,0.615 0.585,1.425 l 0,2.325 q 0,0.87 -0.615,1.485 -0.615,0.6 -1.485,0.6 l -8.7,0 0,-10.8 8.28,0 q 0.855,0 1.47,0.615 0.615,0.6 0.615,1.47 z m -2.085,-0.105 -6.195,0 q -0.105,0 -0.105,0.105 l 0,2.115 q 0,0.105 0.105,0.105 l 6.195,0 q 0.09,0 0.09,-0.105 l 0,-2.115 q 0,-0.105 -0.09,-0.105 z m 0.525,6.735 0,-2.325 q 0,-0.09 -0.105,-0.09 l -6.615,0 q -0.105,0 -0.105,0.09 l 0,2.325 q 0,0.105 0.105,0.105 l 6.615,0 q 0.105,0 0.105,-0.105 z"
         style="font-style:normal;font-variant:normal;font-weight:bold;font-stretch:normal;font-family:Orbitron;-inkscape-font-specification:'Orbitron Bold'"
         id="path4554"
         inkscape:connector-curvature="0" />
      <path
         d="m 164.25383,-1069.9738 0,-8.7 1.965,0 0,8.7 -1.965,0 z m 0,-11.55 1.965,0 0,1.98 -1.965,0 0,-1.98 z"
         style="font-style:normal;font-variant:normal;font-weight:bold;font-stretch:normal;font-family:Orbitron;-inkscape-font-specification:'Orbitron Bold'"
         id="path4556"
         inkscape:connector-curvature="0" />
      <path
         d="m 169.79516,-1078.6738 4.695,0 q 0.855,0 1.455,0.615 0.615,0.6 0.615,1.455 l 0,4.56 q 0,0.855 -0.615,1.47 -0.6,0.6 -1.455,0.6 l -4.695,0 q -0.855,0 -1.47,-0.6 -0.6,-0.615 -0.6,-1.47 l 0,-4.56 q 0,-0.855 0.6,-1.455 0.615,-0.615 1.47,-0.615 z m 4.695,1.965 -4.695,0 q -0.105,0 -0.105,0.105 l 0,4.56 q 0,0.105 0.105,0.105 l 4.695,0 q 0.105,0 0.105,-0.105 l 0,-4.56 q 0,-0.105 -0.105,-0.105 z"
         style="font-style:normal;font-variant:normal;font-weight:bold;font-stretch:normal;font-family:Orbitron;-inkscape-font-specification:'Orbitron Bold'"
         id="path4558"
         inkscape:connector-curvature="0" />
      <path
         d="m 188.92625,-1078.6738 q 0.855,0 1.455,0.615 0.615,0.6 0.615,1.455 l 0,6.63 -1.95,0 0,-6.63 q 0,-0.105 -0.12,-0.105 l -3.27,0 q -0.09,0 -0.09,0.105 l 0,6.63 -1.98,0 0,-6.63 q 0,-0.105 -0.09,-0.105 l -3.285,0 q -0.105,0 -0.105,0.105 l 0,6.63 -1.965,0 0,-8.7 10.785,0 z"
         style="font-style:normal;font-variant:normal;font-weight:bold;font-stretch:normal;font-family:Orbitron;-inkscape-font-specification:'Orbitron Bold'"
         id="path4560"
         inkscape:connector-curvature="0" />
      <path
         d="m 198.96805,-1078.6738 q 0.855,0 1.455,0.615 0.615,0.6 0.615,1.455 l 0,6.63 -6.765,0 q -0.855,0 -1.47,-0.6 -0.6,-0.615 -0.6,-1.47 l 0,-3.27 6.87,0 0,-1.29 q 0,-0.105 -0.105,-0.105 l -6.765,0 0,-1.965 6.765,0 z m 0.105,6.735 0,-1.395 -4.905,0 0,1.29 q 0,0.105 0.105,0.105 l 4.8,0 z"
         style="font-style:normal;font-variant:normal;font-weight:bold;font-stretch:normal;font-family:Orbitron;-inkscape-font-specification:'Orbitron Bold'"
         id="path4562"
         inkscape:connector-curvature="0" />
      <path
         d="m 211.02688,-1076.6038 0,0.375 -1.965,0 0,-0.375 q 0,-0.105 -0.105,-0.105 l -4.695,0 q -0.105,0 -0.105,0.105 l 0,1.2 q 0,0.09 0.105,0.09 l 4.695,0 q 0.87,0 1.47,0.615 0.6,0.6 0.6,1.455 l 0,1.2 q 0,0.855 -0.6,1.47 -0.6,0.6 -1.47,0.6 l -4.695,0 q -0.855,0 -1.47,-0.6 -0.6,-0.615 -0.6,-1.47 l 0,-0.375 1.965,0 0,0.375 q 0,0.105 0.105,0.105 l 4.695,0 q 0.105,0 0.105,-0.105 l 0,-1.2 q 0,-0.09 -0.105,-0.09 l -4.695,0 q -0.855,0 -1.47,-0.6 -0.6,-0.615 -0.6,-1.47 l 0,-1.2 q 0,-0.855 0.6,-1.455 0.615,-0.615 1.47,-0.615 l 4.695,0 q 0.87,0 1.47,0.615 0.6,0.6 0.6,1.455 z"
         style="font-style:normal;font-variant:normal;font-weight:bold;font-stretch:normal;font-family:Orbitron;-inkscape-font-specification:'Orbitron Bold'"
         id="path4564"
         inkscape:connector-curvature="0" />
      <path
         d="m 221.31008,-1076.6038 0,0.375 -1.965,0 0,-0.375 q 0,-0.105 -0.105,-0.105 l -4.695,0 q -0.105,0 -0.105,0.105 l 0,1.2 q 0,0.09 0.105,0.09 l 4.695,0 q 0.87,0 1.47,0.615 0.6,0.6 0.6,1.455 l 0,1.2 q 0,0.855 -0.6,1.47 -0.6,0.6 -1.47,0.6 l -4.695,0 q -0.855,0 -1.47,-0.6 -0.6,-0.615 -0.6,-1.47 l 0,-0.375 1.965,0 0,0.375 q 0,0.105 0.105,0.105 l 4.695,0 q 0.105,0 0.105,-0.105 l 0,-1.2 q 0,-0.09 -0.105,-0.09 l -4.695,0 q -0.855,0 -1.47,-0.6 -0.6,-0.615 -0.6,-1.47 l 0,-1.2 q 0,-0.855 0.6,-1.455 0.615,-0.615 1.47,-0.615 l 4.695,0 q 0.87,0 1.47,0.615 0.6,0.6 0.6,1.455 z"
         style="font-style:normal;font-variant:normal;font-weight:bold;font-stretch:normal;font-family:Orbitron;-inkscape-font-specification:'Orbitron Bold'"
         id="path4566"
         inkscape:connector-curvature="0" />
      <path
         d="m 238.27719,-1078.7938 -8.685,0 q -0.105,0 -0.105,0.105 l 0,6.63 q 0,0.105 0.105,0.105 l 8.685,0 0,1.98 -8.685,0 q -0.87,0 -1.485,-0.6 -0.6,-0.615 -0.6,-1.485 l 0,-6.63 q 0,-0.87 0.6,-1.47 0.615,-0.615 1.485,-0.615 l 8.685,0 0,1.98 z"
         style="font-style:normal;font-variant:normal;font-weight:bold;font-stretch:normal;font-family:Orbitron;-inkscape-font-specification:'Orbitron Bold'"
         id="path4568"
         inkscape:connector-curvature="0" />
      <path
         d="m 246.57617,-1078.6738 q 0.84,0 1.455,0.615 0.615,0.6 0.615,1.455 l 0,6.63 -1.965,0 0,-6.63 q 0,-0.105 -0.105,-0.105 l -4.695,0 q -0.105,0 -0.105,0.105 l 0,6.63 -1.965,0 0,-11.55 1.965,0 0,2.85 4.8,0 z"
         style="font-style:normal;font-variant:normal;font-weight:bold;font-stretch:normal;font-family:Orbitron;-inkscape-font-specification:'Orbitron Bold'"
         id="path4570"
         inkscape:connector-curvature="0" />
      <path
         d="m 256.55071,-1078.6738 q 0.855,0 1.455,0.615 0.615,0.6 0.615,1.455 l 0,3.27 -6.87,0 0,1.29 q 0,0.105 0.105,0.105 l 6.765,0 0,1.965 -6.765,0 q -0.855,0 -1.47,-0.6 -0.6,-0.615 -0.6,-1.47 l 0,-4.56 q 0,-0.855 0.6,-1.455 0.615,-0.615 1.47,-0.615 l 4.695,0 z m -4.8,3.36 4.905,0 0,-1.29 q 0,-0.105 -0.105,-0.105 l -4.695,0 q -0.105,0 -0.105,0.105 l 0,1.29 z"
         style="font-style:normal;font-variant:normal;font-weight:bold;font-stretch:normal;font-family:Orbitron;-inkscape-font-specification:'Orbitron Bold'"
         id="path4572"
         inkscape:connector-curvature="0" />
      <path
         d="m 270.9868,-1078.6738 q 0.855,0 1.455,0.615 0.615,0.6 0.615,1.455 l 0,6.63 -1.95,0 0,-6.63 q 0,-0.105 -0.12,-0.105 l -3.27,0 q -0.09,0 -0.09,0.105 l 0,6.63 -1.98,0 0,-6.63 q 0,-0.105 -0.09,-0.105 l -3.285,0 q -0.105,0 -0.105,0.105 l 0,6.63 -1.965,0 0,-8.7 10.785,0 z"
         style="font-style:normal;font-variant:normal;font-weight:bold;font-stretch:normal;font-family:Orbitron;-inkscape-font-specification:'Orbitron Bold'"
         id="path4574"
         inkscape:connector-curvature="0" />
      <path
         d="m 274.84953,-1069.9738 0,-8.7 1.965,0 0,8.7 -1.965,0 z m 0,-11.55 1.965,0 0,1.98 -1.965,0 0,-1.98 z"
         style="font-style:normal;font-variant:normal;font-weight:bold;font-stretch:normal;font-family:Orbitron;-inkscape-font-specification:'Orbitron Bold'"
         id="path4576"
         inkscape:connector-curvature="0" />
      <path
         d="m 287.11086,-1076.6038 0,0.375 -1.965,0 0,-0.375 q 0,-0.105 -0.105,-0.105 l -4.695,0 q -0.105,0 -0.105,0.105 l 0,1.2 q 0,0.09 0.105,0.09 l 4.695,0 q 0.87,0 1.47,0.615 0.6,0.6 0.6,1.455 l 0,1.2 q 0,0.855 -0.6,1.47 -0.6,0.6 -1.47,0.6 l -4.695,0 q -0.855,0 -1.47,-0.6 -0.6,-0.615 -0.6,-1.47 l 0,-0.375 1.965,0 0,0.375 q 0,0.105 0.105,0.105 l 4.695,0 q 0.105,0 0.105,-0.105 l 0,-1.2 q 0,-0.09 -0.105,-0.09 l -4.695,0 q -0.855,0 -1.47,-0.6 -0.6,-0.615 -0.6,-1.47 l 0,-1.2 q 0,-0.855 0.6,-1.455 0.615,-0.615 1.47,-0.615 l 4.695,0 q 0.87,0 1.47,0.615 0.6,0.6 0.6,1.455 z"
         style="font-style:normal;font-variant:normal;font-weight:bold;font-stretch:normal;font-family:Orbitron;-inkscape-font-specification:'Orbitron Bold'"
         id="path4578"
         inkscape:connector-curvature="0" />
      <path
         d="m 293.98907,-1076.7088 -3.39,0 0,4.665 q 0,0.105 0.105,0.105 l 3.285,0 0,1.965 -3.285,0 q -0.87,0 -1.47,-0.6 -0.6,-0.615 -0.6,-1.47 l 0,-9.48 1.965,0 0,2.85 3.39,0 0,1.965 z"
         style="font-style:normal;font-variant:normal;font-weight:bold;font-stretch:normal;font-family:Orbitron;-inkscape-font-specification:'Orbitron Bold'"
         id="path4580"
         inkscape:connector-curvature="0" />
      <path
         d="m 297.25157,-1078.6738 4.83,0 0,1.965 -4.83,0 q -0.105,0 -0.105,0.105 l 0,6.63 -1.965,0 0,-6.63 q 0,-0.855 0.6,-1.455 0.615,-0.615 1.47,-0.615 z"
         style="font-style:normal;font-variant:normal;font-weight:bold;font-stretch:normal;font-family:Orbitron;-inkscape-font-specification:'Orbitron Bold'"
         id="path4582"
         inkscape:connector-curvature="0" />
      <path
         d="m 311.77672,-1068.5938 q 0,0.855 -0.6,1.455 -0.6,0.615 -1.455,0.615 l -5.325,0 0,-1.98 5.325,0 q 0.09,0 0.09,-0.09 l 0,-1.38 -4.8,0 q -0.855,0 -1.47,-0.6 -0.6,-0.615 -0.6,-1.47 l 0,-6.6 1.965,0 0,6.6 q 0,0.105 0.105,0.105 l 4.71,0 q 0.09,0 0.09,-0.105 l 0,-6.6 1.965,0 0,10.05 z"
         style="font-style:normal;font-variant:normal;font-weight:bold;font-stretch:normal;font-family:Orbitron;-inkscape-font-specification:'Orbitron Bold'"
         id="path4584"
         inkscape:connector-curvature="0" />
      <path
         d="m 324.76883,-1078.6738 q 0.855,0 1.455,0.615 0.615,0.6 0.615,1.455 l 0,6.63 -6.765,0 q -0.855,0 -1.47,-0.6 -0.6,-0.615 -0.6,-1.47 l 0,-3.27 6.87,0 0,-1.29 q 0,-0.105 -0.105,-0.105 l -6.765,0 0,-1.965 6.765,0 z m 0.105,6.735 0,-1.395 -4.905,0 0,1.29 q 0,0.105 0.105,0.105 l 4.8,0 z"
         style="font-style:normal;font-variant:normal;font-weight:bold;font-stretch:normal;font-family:Orbitron;-inkscape-font-specification:'Orbitron Bold'"
         id="path4586"
         inkscape:connector-curvature="0" />
      <path
         d="m 335.05274,-1078.6738 q 0.855,0 1.455,0.615 0.615,0.6 0.615,1.455 l 0,6.63 -1.965,0 0,-6.63 q 0,-0.105 -0.105,-0.105 l -4.695,0 q -0.105,0 -0.105,0.105 l 0,6.63 -1.965,0 0,-8.7 6.765,0 z"
         style="font-style:normal;font-variant:normal;font-weight:bold;font-stretch:normal;font-family:Orbitron;-inkscape-font-specification:'Orbitron Bold'"
         id="path4588"
         inkscape:connector-curvature="0" />
      <path
         d="m 345.13742,-1081.5238 1.965,0 0,11.55 -6.78,0 q -0.855,0 -1.47,-0.6 -0.6,-0.615 -0.6,-1.47 l 0,-4.56 q 0,-0.855 0.6,-1.455 0.615,-0.615 1.47,-0.615 l 4.815,0 0,-2.85 z m -4.815,9.585 4.71,0 q 0.105,0 0.105,-0.105 l 0,-4.56 q 0,-0.105 -0.105,-0.105 l -4.71,0 q -0.09,0 -0.09,0.105 l 0,4.56 q 0,0.105 0.09,0.105 z"
         style="font-style:normal;font-variant:normal;font-weight:bold;font-stretch:normal;font-family:Orbitron;-inkscape-font-specification:'Orbitron Bold'"
         id="path4590"
         inkscape:connector-curvature="0" />
      <path
         d="m 359.48586,-1076.0938 3.915,-4.68 2.175,0 0,10.8 -1.995,0 0,-7.92 -4.095,4.875 -4.11,-4.875 0,7.92 -1.98,0 0,-10.8 2.16,0 3.93,4.68 z"
         style="font-style:normal;font-variant:normal;font-weight:bold;font-stretch:normal;font-family:Orbitron;-inkscape-font-specification:'Orbitron Bold'"
         id="path4592"
         inkscape:connector-curvature="0" />
      <path
         d="m 369.30688,-1078.6738 4.695,0 q 0.855,0 1.455,0.615 0.615,0.6 0.615,1.455 l 0,4.56 q 0,0.855 -0.615,1.47 -0.6,0.6 -1.455,0.6 l -4.695,0 q -0.855,0 -1.47,-0.6 -0.6,-0.615 -0.6,-1.47 l 0,-4.56 q 0,-0.855 0.6,-1.455 0.615,-0.615 1.47,-0.615 z m 4.695,1.965 -4.695,0 q -0.105,0 -0.105,0.105 l 0,4.56 q 0,0.105 0.105,0.105 l 4.695,0 q 0.105,0 0.105,-0.105 l 0,-4.56 q 0,-0.105 -0.105,-0.105 z"
         style="font-style:normal;font-variant:normal;font-weight:bold;font-stretch:normal;font-family:Orbitron;-inkscape-font-specification:'Orbitron Bold'"
         id="path4594"
         inkscape:connector-curvature="0" />
      <path
         d="m 379.4586,-1078.6738 4.83,0 0,1.965 -4.83,0 q -0.105,0 -0.105,0.105 l 0,6.63 -1.965,0 0,-6.63 q 0,-0.855 0.6,-1.455 0.615,-0.615 1.47,-0.615 z"
         style="font-style:normal;font-variant:normal;font-weight:bold;font-stretch:normal;font-family:Orbitron;-inkscape-font-specification:'Orbitron Bold'"
         id="path4596"
         inkscape:connector-curvature="0" />
      <path
         d="m 392.09375,-1078.6738 q 0.855,0 1.455,0.615 0.615,0.6 0.615,1.455 l 0,4.56 q 0,0.855 -0.615,1.47 -0.6,0.6 -1.455,0.6 l -4.8,0 0,3.45 -1.965,0 0,-12.15 6.765,0 z m 0.105,6.63 0,-4.56 q 0,-0.105 -0.105,-0.105 l -4.695,0 q -0.105,0 -0.105,0.105 l 0,4.56 q 0,0.105 0.105,0.105 l 4.695,0 q 0.105,0 0.105,-0.105 z"
         style="font-style:normal;font-variant:normal;font-weight:bold;font-stretch:normal;font-family:Orbitron;-inkscape-font-specification:'Orbitron Bold'"
         id="path4598"
         inkscape:connector-curvature="0" />
      <path
         d="m 402.05469,-1078.6738 q 0.84,0 1.455,0.615 0.615,0.6 0.615,1.455 l 0,6.63 -1.965,0 0,-6.63 q 0,-0.105 -0.105,-0.105 l -4.695,0 q -0.105,0 -0.105,0.105 l 0,6.63 -1.965,0 0,-11.55 1.965,0 0,2.85 4.8,0 z"
         style="font-style:normal;font-variant:normal;font-weight:bold;font-stretch:normal;font-family:Orbitron;-inkscape-font-specification:'Orbitron Bold'"
         id="path4600"
         inkscape:connector-curvature="0" />
      <path
         d="m 407.33422,-1078.6738 4.695,0 q 0.855,0 1.455,0.615 0.615,0.6 0.615,1.455 l 0,4.56 q 0,0.855 -0.615,1.47 -0.6,0.6 -1.455,0.6 l -4.695,0 q -0.855,0 -1.47,-0.6 -0.6,-0.615 -0.6,-1.47 l 0,-4.56 q 0,-0.855 0.6,-1.455 0.615,-0.615 1.47,-0.615 z m 4.695,1.965 -4.695,0 q -0.105,0 -0.105,0.105 l 0,4.56 q 0,0.105 0.105,0.105 l 4.695,0 q 0.105,0 0.105,-0.105 l 0,-4.56 q 0,-0.105 -0.105,-0.105 z"
         style="font-style:normal;font-variant:normal;font-weight:bold;font-stretch:normal;font-family:Orbitron;-inkscape-font-specification:'Orbitron Bold'"
         id="path4602"
         inkscape:connector-curvature="0" />
      <path
         d="m 415.26946,-1081.5238 1.98,0 0,9.48 q 0,0.105 0.09,0.105 l 1.755,0 0,1.965 -1.755,0 q -0.855,0 -1.47,-0.6 -0.6,-0.615 -0.6,-1.47 l 0,-9.48 z"
         style="font-style:normal;font-variant:normal;font-weight:bold;font-stretch:normal;font-family:Orbitron;-inkscape-font-specification:'Orbitron Bold'"
         id="path4604"
         inkscape:connector-curvature="0" />
      <path
         d="m 422.48071,-1078.6738 4.695,0 q 0.855,0 1.455,0.615 0.615,0.6 0.615,1.455 l 0,4.56 q 0,0.855 -0.615,1.47 -0.6,0.6 -1.455,0.6 l -4.695,0 q -0.855,0 -1.47,-0.6 -0.6,-0.615 -0.6,-1.47 l 0,-4.56 q 0,-0.855 0.6,-1.455 0.615,-0.615 1.47,-0.615 z m 4.695,1.965 -4.695,0 q -0.105,0 -0.105,0.105 l 0,4.56 q 0,0.105 0.105,0.105 l 4.695,0 q 0.105,0 0.105,-0.105 l 0,-4.56 q 0,-0.105 -0.105,-0.105 z"
         style="font-style:normal;font-variant:normal;font-weight:bold;font-stretch:normal;font-family:Orbitron;-inkscape-font-specification:'Orbitron Bold'"
         id="path4606"
         inkscape:connector-curvature="0" />
      <path
         d="m 439.4668,-1068.5938 q 0,0.855 -0.6,1.455 -0.6,0.615 -1.455,0.615 l -5.325,0 0,-1.98 5.325,0 q 0.09,0 0.09,-0.09 l 0,-1.38 -4.8,0 q -0.855,0 -1.47,-0.6 -0.6,-0.615 -0.6,-1.47 l 0,-4.56 q 0,-0.855 0.6,-1.455 0.615,-0.615 1.47,-0.615 l 4.71,0 q 0.855,0 1.455,0.615 0.6,0.6 0.6,1.455 l 0,8.01 z m -6.765,-3.345 4.71,0 q 0.09,0 0.09,-0.105 l 0,-4.56 q 0,-0.105 -0.09,-0.105 l -4.71,0 q -0.105,0 -0.105,0.105 l 0,4.56 q 0,0.105 0.105,0.105 z"
         style="font-style:normal;font-variant:normal;font-weight:bold;font-stretch:normal;font-family:Orbitron;-inkscape-font-specification:'Orbitron Bold'"
         id="path4608"
         inkscape:connector-curvature="0" />
      <path
         d="m 449.53063,-1068.5938 q 0,0.855 -0.6,1.455 -0.6,0.615 -1.455,0.615 l -5.325,0 0,-1.98 5.325,0 q 0.09,0 0.09,-0.09 l 0,-1.38 -4.8,0 q -0.855,0 -1.47,-0.6 -0.6,-0.615 -0.6,-1.47 l 0,-6.6 1.965,0 0,6.6 q 0,0.105 0.105,0.105 l 4.71,0 q 0.09,0 0.09,-0.105 l 0,-6.6 1.965,0 0,10.05 z"
         style="font-style:normal;font-variant:normal;font-weight:bold;font-stretch:normal;font-family:Orbitron;-inkscape-font-specification:'Orbitron Bold'"
         id="path4610"
         inkscape:connector-curvature="0" />
    </g>
    <g
       style="font-style:normal;font-variant:normal;font-weight:normal;font-stretch:normal;font-size:15px;line-height:125%;font-family:Arial;-inkscape-font-specification:'Arial, Normal';text-align:start;letter-spacing:0px;word-spacing:0px;writing-mode:lr-tb;text-anchor:start;fill:#000000;fill-opacity:1;stroke:none;stroke-width:1px;stroke-linecap:butt;stroke-linejoin:miter;stroke-opacity:1"
       id="text4399"
       transform="matrix(1.5153081,0,0,1.5153081,29.754161,1776.6742)">
      <path
         d="m 34.165549,-1054.7269 q -0.9125,0 -1.6625,-0.3 -0.75,-0.3 -1.2875,-0.875 -0.5375,-0.575 -0.8375,-1.4125 -0.2875,-0.85 -0.2875,-1.9375 0,-1.0875 0.325,-1.925 0.3375,-0.85 0.9,-1.425 0.5625,-0.575 1.3125,-0.875 0.75,-0.3 1.6,-0.3 0.5375,0 0.9625,0.075 0.4375,0.075 0.75,0.175 0.325,0.1 0.525,0.2 0.2,0.1 0.275,0.15 l -0.35,1 q -0.1125,-0.075 -0.325,-0.1625 -0.2125,-0.087 -0.4875,-0.175 -0.2625,-0.087 -0.5875,-0.1375 -0.3125,-0.062 -0.6375,-0.062 -0.6875,0 -1.2375,0.2375 -0.55,0.2375 -0.9375,0.6875 -0.3875,0.45 -0.6,1.1 -0.2,0.6375 -0.2,1.4375 0,0.775 0.175,1.4125 0.1875,0.6375 0.55,1.1 0.3625,0.45 0.9,0.7 0.55,0.25 1.275,0.25 0.8375,0 1.3875,-0.175 0.55,-0.175 0.825,-0.3125 l 0.3125,1 q -0.0875,0.062 -0.3125,0.1625 -0.225,0.087 -0.5625,0.175 -0.3375,0.088 -0.7875,0.15 -0.45,0.062 -0.975,0.062 z"
         style="font-style:normal;font-variant:normal;font-weight:normal;font-stretch:normal;font-size:12.5px;font-family:Ubuntu;-inkscape-font-specification:Ubuntu"
         id="path4406"
         inkscape:connector-curvature="0" />
      <path
         d="m 40.304807,-1055.7519 q 0.4125,0 0.725,-0.013 0.325,-0.025 0.5375,-0.075 l 0,-1.9375 q -0.125,-0.062 -0.4125,-0.1 -0.275,-0.05 -0.675,-0.05 -0.2625,0 -0.5625,0.037 -0.2875,0.038 -0.5375,0.1625 -0.2375,0.1125 -0.4,0.325 -0.1625,0.2 -0.1625,0.5375 0,0.625 0.4,0.875 0.4,0.2375 1.0875,0.2375 z m -0.1,-5.825 q 0.7,0 1.175,0.1875 0.4875,0.175 0.775,0.5125 0.3,0.325 0.425,0.7875 0.125,0.45 0.125,1 l 0,4.0625 q -0.15,0.025 -0.425,0.075 -0.2625,0.038 -0.6,0.075 -0.3375,0.037 -0.7375,0.062 -0.3875,0.037 -0.775,0.037 -0.55,0 -1.0125,-0.1125 -0.4625,-0.1125 -0.8,-0.35 -0.3375,-0.25 -0.525,-0.65 -0.1875,-0.4 -0.1875,-0.9625 0,-0.5375 0.2125,-0.925 0.225,-0.3875 0.6,-0.625 0.375,-0.2375 0.875,-0.35 0.5,-0.1125 1.05,-0.1125 0.175,0 0.3625,0.025 0.1875,0.013 0.35,0.05 0.175,0.025 0.3,0.05 0.125,0.025 0.175,0.037 l 0,-0.325 q 0,-0.2875 -0.0625,-0.5625 -0.0625,-0.2875 -0.225,-0.5 -0.1625,-0.225 -0.45,-0.35 -0.275,-0.1375 -0.725,-0.1375 -0.575,0 -1.0125,0.088 -0.425,0.075 -0.6375,0.1625 l -0.1375,-0.9625 q 0.225,-0.1 0.75,-0.1875 0.525,-0.1 1.1375,-0.1 z"
         style="font-style:normal;font-variant:normal;font-weight:normal;font-stretch:normal;font-size:12.5px;font-family:Ubuntu;-inkscape-font-specification:Ubuntu"
         id="path4408"
         inkscape:connector-curvature="0" />
      <path
         d="m 44.623362,-1061.2269 q 0.4,-0.1 1.05,-0.2125 0.6625,-0.1125 1.525,-0.1125 0.625,0 1.05,0.175 0.425,0.1625 0.7125,0.4875 0.0875,-0.062 0.275,-0.175 0.1875,-0.1125 0.4625,-0.2125 0.275,-0.1125 0.6125,-0.1875 0.3375,-0.087 0.725,-0.087 0.75,0 1.225,0.225 0.475,0.2125 0.7375,0.6125 0.275,0.4 0.3625,0.95 0.1,0.55 0.1,1.2 l 0,3.65 -1.1625,0 0,-3.4 q 0,-0.575 -0.0625,-0.9875 -0.05,-0.4125 -0.2125,-0.6875 -0.15,-0.275 -0.425,-0.4 -0.2625,-0.1375 -0.6875,-0.1375 -0.5875,0 -0.975,0.1625 -0.375,0.15 -0.5125,0.275 0.1,0.325 0.15,0.7125 0.05,0.3875 0.05,0.8125 l 0,3.65 -1.1625,0 0,-3.4 q 0,-0.575 -0.0625,-0.9875 -0.0625,-0.4125 -0.225,-0.6875 -0.15,-0.275 -0.425,-0.4 -0.2625,-0.1375 -0.675,-0.1375 -0.175,0 -0.375,0.013 -0.2,0.013 -0.3875,0.038 -0.175,0.012 -0.325,0.037 -0.15,0.025 -0.2,0.037 l 0,5.4875 -1.1625,0 0,-6.3125 z"
         style="font-style:normal;font-variant:normal;font-weight:normal;font-stretch:normal;font-size:12.5px;font-family:Ubuntu;-inkscape-font-specification:Ubuntu"
         id="path4410"
         inkscape:connector-curvature="0" />
      <path
         d="m 56.552463,-1054.9144 -1.1625,0 0,-6.5 1.1625,0 0,6.5 z m -0.5875,-7.675 q -0.3125,0 -0.5375,-0.2 -0.2125,-0.2125 -0.2125,-0.5625 0,-0.35 0.2125,-0.55 0.225,-0.2125 0.5375,-0.2125 0.3125,0 0.525,0.2125 0.225,0.2 0.225,0.55 0,0.35 -0.225,0.5625 -0.2125,0.2 -0.525,0.2 z"
         style="font-style:normal;font-variant:normal;font-weight:normal;font-stretch:normal;font-size:12.5px;font-family:Ubuntu;-inkscape-font-specification:Ubuntu"
         id="path4412"
         inkscape:connector-curvature="0" />
      <path
         d="m 60.513791,-1054.7894 q -1.075,-0.025 -1.525,-0.4625 -0.45,-0.4375 -0.45,-1.3625 l 0,-7.8 1.1625,-0.2 0,7.8125 q 0,0.2875 0.05,0.475 0.05,0.1875 0.1625,0.3 0.1125,0.1125 0.3,0.175 0.1875,0.05 0.4625,0.087 l -0.1625,0.975 z"
         style="font-style:normal;font-variant:normal;font-weight:normal;font-stretch:normal;font-size:12.5px;font-family:Ubuntu;-inkscape-font-specification:Ubuntu"
         id="path4414"
         inkscape:connector-curvature="0" />
      <path
         d="m 64.18176,-1055.7519 q 0.4125,0 0.725,-0.013 0.325,-0.025 0.5375,-0.075 l 0,-1.9375 q -0.125,-0.062 -0.4125,-0.1 -0.275,-0.05 -0.675,-0.05 -0.2625,0 -0.5625,0.037 -0.2875,0.038 -0.5375,0.1625 -0.2375,0.1125 -0.4,0.325 -0.1625,0.2 -0.1625,0.5375 0,0.625 0.4,0.875 0.4,0.2375 1.0875,0.2375 z m -0.1,-5.825 q 0.7,0 1.175,0.1875 0.4875,0.175 0.775,0.5125 0.3,0.325 0.425,0.7875 0.125,0.45 0.125,1 l 0,4.0625 q -0.15,0.025 -0.425,0.075 -0.2625,0.038 -0.6,0.075 -0.3375,0.037 -0.7375,0.062 -0.3875,0.037 -0.775,0.037 -0.55,0 -1.0125,-0.1125 -0.4625,-0.1125 -0.8,-0.35 -0.3375,-0.25 -0.525,-0.65 -0.1875,-0.4 -0.1875,-0.9625 0,-0.5375 0.2125,-0.925 0.225,-0.3875 0.6,-0.625 0.375,-0.2375 0.875,-0.35 0.5,-0.1125 1.05,-0.1125 0.175,0 0.3625,0.025 0.1875,0.013 0.35,0.05 0.175,0.025 0.3,0.05 0.125,0.025 0.175,0.037 l 0,-0.325 q 0,-0.2875 -0.0625,-0.5625 -0.0625,-0.2875 -0.225,-0.5 -0.1625,-0.225 -0.45,-0.35 -0.275,-0.1375 -0.725,-0.1375 -0.575,0 -1.0125,0.088 -0.425,0.075 -0.6375,0.1625 l -0.1375,-0.9625 q 0.225,-0.1 0.75,-0.1875 0.525,-0.1 1.1375,-0.1 z"
         style="font-style:normal;font-variant:normal;font-weight:normal;font-stretch:normal;font-size:12.5px;font-family:Ubuntu;-inkscape-font-specification:Ubuntu"
         id="path4416"
         inkscape:connector-curvature="0" />
      <path
         d="m 77.243674,-1054.9144 q -0.2125,-0.5625 -0.4,-1.1 -0.1875,-0.55 -0.3875,-1.1125 l -3.925,0 -0.7875,2.2125 -1.2625,0 q 0.5,-1.375 0.9375,-2.5375 0.4375,-1.175 0.85,-2.225 0.425,-1.05 0.8375,-2 0.4125,-0.9625 0.8625,-1.9 l 1.1125,0 q 0.45,0.9375 0.8625,1.9 0.4125,0.95 0.825,2 0.425,1.05 0.8625,2.225 0.4375,1.1625 0.9375,2.5375 l -1.325,0 z m -1.1375,-3.2125 q -0.4,-1.0875 -0.8,-2.1 -0.3875,-1.025 -0.8125,-1.9625 -0.4375,0.9375 -0.8375,1.9625 -0.3875,1.0125 -0.775,2.1 l 3.225,0 z"
         style="font-style:normal;font-variant:normal;font-weight:normal;font-stretch:normal;font-size:12.5px;font-family:Ubuntu;-inkscape-font-specification:Ubuntu"
         id="path4418"
         inkscape:connector-curvature="0" />
      <path
         d="m 81.607541,-1054.7894 q -1.075,-0.025 -1.525,-0.4625 -0.45,-0.4375 -0.45,-1.3625 l 0,-7.8 1.1625,-0.2 0,7.8125 q 0,0.2875 0.05,0.475 0.05,0.1875 0.1625,0.3 0.1125,0.1125 0.3,0.175 0.1875,0.05 0.4625,0.087 l -0.1625,0.975 z"
         style="font-style:normal;font-variant:normal;font-weight:normal;font-stretch:normal;font-size:12.5px;font-family:Ubuntu;-inkscape-font-specification:Ubuntu"
         id="path4420"
         inkscape:connector-curvature="0" />
      <path
         d="m 88.15051,-1061.4144 q -0.4875,1.825 -1.15,3.5 -0.65,1.675 -1.2625,3 l -1.05,0 q -0.6125,-1.325 -1.275,-3 -0.65,-1.675 -1.1375,-3.5 l 1.25,0 q 0.15,0.6125 0.35,1.3125 0.2125,0.6875 0.4375,1.375 0.2375,0.675 0.475,1.3125 0.2375,0.6375 0.45,1.1375 0.2125,-0.5 0.45,-1.1375 0.2375,-0.6375 0.4625,-1.3125 0.2375,-0.6875 0.4375,-1.375 0.2125,-0.7 0.3625,-1.3125 l 1.2,0 z"
         style="font-style:normal;font-variant:normal;font-weight:normal;font-stretch:normal;font-size:12.5px;font-family:Ubuntu;-inkscape-font-specification:Ubuntu"
         id="path4422"
         inkscape:connector-curvature="0" />
      <path
         d="m 88.816526,-1058.1519 q 0,-0.8625 0.25,-1.5 0.25,-0.65 0.6625,-1.075 0.4125,-0.425 0.95,-0.6375 0.5375,-0.2125 1.1,-0.2125 1.3125,0 2.0125,0.825 0.7,0.8125 0.7,2.4875 0,0.075 0,0.2 0,0.1125 -0.0125,0.2125 l -4.45,0 q 0.075,1.0125 0.5875,1.5375 0.5125,0.525 1.6,0.525 0.6125,0 1.025,-0.1 0.425,-0.1125 0.6375,-0.2125 l 0.1625,0.975 q -0.2125,0.1125 -0.75,0.2375 -0.525,0.125 -1.2,0.125 -0.85,0 -1.475,-0.25 -0.6125,-0.2625 -1.0125,-0.7125 -0.4,-0.45 -0.6,-1.0625 -0.1875,-0.625 -0.1875,-1.3625 z m 4.4625,-0.6375 q 0.0125,-0.7875 -0.4,-1.2875 -0.4,-0.5125 -1.1125,-0.5125 -0.4,0 -0.7125,0.1625 -0.3,0.15 -0.5125,0.4 -0.2125,0.25 -0.3375,0.575 -0.1125,0.325 -0.15,0.6625 l 3.225,0 z"
         style="font-style:normal;font-variant:normal;font-weight:normal;font-stretch:normal;font-size:12.5px;font-family:Ubuntu;-inkscape-font-specification:Ubuntu"
         id="path4424"
         inkscape:connector-curvature="0" />
      <path
         d="m 97.673948,-1055.7519 q 0.7125,0 1.05,-0.1875 0.35,-0.1875 0.35,-0.6 0,-0.425 -0.3375,-0.675 -0.3375,-0.25 -1.1125,-0.5625 -0.375,-0.15 -0.725,-0.3 -0.3375,-0.1625 -0.5875,-0.375 -0.25,-0.2125 -0.4,-0.5125 -0.15,-0.3 -0.15,-0.7375 0,-0.8625 0.6375,-1.3625 0.6375,-0.5125 1.7375,-0.5125 0.275,0 0.55,0.038 0.275,0.025 0.5125,0.075 0.2375,0.038 0.4125,0.088 0.1875,0.05 0.2875,0.088 l -0.2125,1 q -0.1875,-0.1 -0.5875,-0.2 -0.4,-0.1125 -0.9625,-0.1125 -0.4875,0 -0.85,0.2 -0.3625,0.1875 -0.3625,0.6 0,0.2125 0.075,0.375 0.0875,0.1625 0.25,0.3 0.175,0.125 0.425,0.2375 0.25,0.1125 0.6,0.2375 0.4625,0.175 0.825,0.35 0.3625,0.1625 0.6125,0.3875 0.2625,0.225 0.400002,0.55 0.1375,0.3125 0.1375,0.775 0,0.9 -0.675002,1.3625 -0.6625,0.4625 -1.9,0.4625 -0.8625,0 -1.35,-0.15 -0.4875,-0.1375 -0.6625,-0.2125 l 0.2125,-1 q 0.2,0.075 0.6375,0.225 0.4375,0.15 1.1625,0.15 z"
         style="font-style:normal;font-variant:normal;font-weight:normal;font-stretch:normal;font-size:12.5px;font-family:Ubuntu;-inkscape-font-specification:Ubuntu"
         id="path4426"
         inkscape:connector-curvature="0" />
      <path
         d="m 108.80871,-1060.0394 q -0.2125,-0.175 -0.6125,-0.3375 -0.4,-0.1625 -0.875,-0.1625 -0.5,0 -0.8625,0.1875 -0.35,0.175 -0.575,0.5 -0.225,0.3125 -0.325,0.75 -0.1,0.4375 -0.1,0.9375 0,1.1375 0.5625,1.7625 0.5625,0.6125 1.5,0.6125 0.475,0 0.7875,-0.038 0.325,-0.05 0.5,-0.1 l 0,-4.1125 z m 0,-4.375 1.1625,-0.2 0,9.5125 q -0.4,0.1125 -1.025,0.225 -0.625,0.1125 -1.4375,0.1125 -0.75,0 -1.35,-0.2375 -0.6,-0.2375 -1.025,-0.675 -0.425,-0.4375 -0.6625,-1.0625 -0.225,-0.6375 -0.225,-1.425 0,-0.75 0.1875,-1.375 0.2,-0.625 0.575,-1.075 0.375,-0.45 0.9125,-0.7 0.55,-0.25 1.25,-0.25 0.5625,0 0.9875,0.15 0.4375,0.15 0.65,0.2875 l 0,-3.2875 z"
         style="font-style:normal;font-variant:normal;font-weight:normal;font-stretch:normal;font-size:12.5px;font-family:Ubuntu;-inkscape-font-specification:Ubuntu"
         id="path4428"
         inkscape:connector-curvature="0" />
      <path
         d="m 111.61926,-1058.1519 q 0,-0.8625 0.25,-1.5 0.25,-0.65 0.6625,-1.075 0.4125,-0.425 0.95,-0.6375 0.5375,-0.2125 1.1,-0.2125 1.3125,0 2.0125,0.825 0.7,0.8125 0.7,2.4875 0,0.075 0,0.2 0,0.1125 -0.0125,0.2125 l -4.45,0 q 0.075,1.0125 0.5875,1.5375 0.5125,0.525 1.6,0.525 0.6125,0 1.025,-0.1 0.425,-0.1125 0.6375,-0.2125 l 0.1625,0.975 q -0.2125,0.1125 -0.75,0.2375 -0.525,0.125 -1.2,0.125 -0.85,0 -1.475,-0.25 -0.6125,-0.2625 -1.0125,-0.7125 -0.4,-0.45 -0.6,-1.0625 -0.1875,-0.625 -0.1875,-1.3625 z m 4.4625,-0.6375 q 0.0125,-0.7875 -0.4,-1.2875 -0.4,-0.5125 -1.1125,-0.5125 -0.4,0 -0.7125,0.1625 -0.3,0.15 -0.5125,0.4 -0.2125,0.25 -0.3375,0.575 -0.1125,0.325 -0.15,0.6625 l 3.225,0 z"
         style="font-style:normal;font-variant:normal;font-weight:normal;font-stretch:normal;font-size:12.5px;font-family:Ubuntu;-inkscape-font-specification:Ubuntu"
         id="path4430"
         inkscape:connector-curvature="0" />
      <path
         d="m 126.15754,-1058.5394 q 0.2,0.25 0.5,0.6625 0.3125,0.4 0.6375,0.9 0.325,0.4875 0.6375,1.025 0.325,0.5375 0.55,1.0375 l -1.325,0 q -0.25,-0.475 -0.55,-0.9625 -0.2875,-0.4875 -0.5875,-0.925 -0.3,-0.45 -0.6,-0.8375 -0.2875,-0.3875 -0.525,-0.675 -0.1625,0.013 -0.3375,0.013 -0.1625,0 -0.3375,0 l -1.0875,0 0,3.3875 -1.2125,0 0,-8.5375 q 0.5125,-0.125 1.1375,-0.1625 0.6375,-0.05 1.1625,-0.05 1.825,0 2.775,0.6875 0.9625,0.6875 0.9625,2.05 0,0.8625 -0.4625,1.475 -0.45,0.6125 -1.3375,0.9125 z m -1.8375,-4.0625 q -0.775,0 -1.1875,0.037 l 0,3.2625 0.8625,0 q 0.625,0 1.125,-0.062 0.5,-0.062 0.8375,-0.2375 0.35,-0.175 0.5375,-0.4875 0.1875,-0.325 0.1875,-0.85 0,-0.4875 -0.1875,-0.8125 -0.1875,-0.325 -0.5125,-0.5125 -0.3125,-0.1875 -0.75,-0.2625 -0.425,-0.075 -0.9125,-0.075 z"
         style="font-style:normal;font-variant:normal;font-weight:normal;font-stretch:normal;font-size:12.5px;font-family:Ubuntu;-inkscape-font-specification:Ubuntu"
         id="path4432"
         inkscape:connector-curvature="0" />
      <path
         d="m 129.34387,-1058.1519 q 0,-0.8625 0.25,-1.5 0.25,-0.65 0.6625,-1.075 0.4125,-0.425 0.95,-0.6375 0.5375,-0.2125 1.1,-0.2125 1.3125,0 2.0125,0.825 0.7,0.8125 0.7,2.4875 0,0.075 0,0.2 0,0.1125 -0.0125,0.2125 l -4.45,0 q 0.075,1.0125 0.5875,1.5375 0.5125,0.525 1.6,0.525 0.6125,0 1.025,-0.1 0.425,-0.1125 0.6375,-0.2125 l 0.1625,0.975 q -0.2125,0.1125 -0.75,0.2375 -0.525,0.125 -1.2,0.125 -0.85,0 -1.475,-0.25 -0.6125,-0.2625 -1.0125,-0.7125 -0.4,-0.45 -0.6,-1.0625 -0.1875,-0.625 -0.1875,-1.3625 z m 4.4625,-0.6375 q 0.0125,-0.7875 -0.4,-1.2875 -0.4,-0.5125 -1.1125,-0.5125 -0.4,0 -0.7125,0.1625 -0.3,0.15 -0.5125,0.4 -0.2125,0.25 -0.3375,0.575 -0.1125,0.325 -0.15,0.6625 l 3.225,0 z"
         style="font-style:normal;font-variant:normal;font-weight:normal;font-stretch:normal;font-size:12.5px;font-family:Ubuntu;-inkscape-font-specification:Ubuntu"
         id="path4434"
         inkscape:connector-curvature="0" />
      <path
         d="m 141.00129,-1060.5394 q -0.2625,0.2875 -0.7,0.8125 -0.425,0.525 -0.925,1.1625 -0.4875,0.6375 -0.9875,1.3375 -0.4875,0.7 -0.8625,1.3375 l 3.575,0 0,0.975 -4.9625,0 0,-0.775 q 0.3,-0.55 0.7375,-1.2125 0.4375,-0.6625 0.9125,-1.3125 0.4875,-0.6625 0.9375,-1.2375 0.4625,-0.5875 0.8,-0.9875 l -3.2125,0 0,-0.975 4.6875,0 0,0.875 z"
         style="font-style:normal;font-variant:normal;font-weight:normal;font-stretch:normal;font-size:12.5px;font-family:Ubuntu;-inkscape-font-specification:Ubuntu"
         id="path4436"
         inkscape:connector-curvature="0" />
      <path
         d="m 141.96594,-1058.1519 q 0,-0.8625 0.25,-1.5 0.25,-0.65 0.6625,-1.075 0.4125,-0.425 0.95,-0.6375 0.5375,-0.2125 1.1,-0.2125 1.3125,0 2.0125,0.825 0.7,0.8125 0.7,2.4875 0,0.075 0,0.2 0,0.1125 -0.0125,0.2125 l -4.45,0 q 0.075,1.0125 0.5875,1.5375 0.5125,0.525 1.6,0.525 0.6125,0 1.025,-0.1 0.425,-0.1125 0.6375,-0.2125 l 0.1625,0.975 q -0.2125,0.1125 -0.75,0.2375 -0.525,0.125 -1.2,0.125 -0.85,0 -1.475,-0.25 -0.6125,-0.2625 -1.0125,-0.7125 -0.4,-0.45 -0.6,-1.0625 -0.1875,-0.625 -0.1875,-1.3625 z m 4.4625,-0.6375 q 0.0125,-0.7875 -0.4,-1.2875 -0.4,-0.5125 -1.1125,-0.5125 -0.4,0 -0.7125,0.1625 -0.3,0.15 -0.5125,0.4 -0.2125,0.25 -0.3375,0.575 -0.1125,0.325 -0.15,0.6625 l 3.225,0 z"
         style="font-style:normal;font-variant:normal;font-weight:normal;font-stretch:normal;font-size:12.5px;font-family:Ubuntu;-inkscape-font-specification:Ubuntu"
         id="path4439"
         inkscape:connector-curvature="0" />
      <path
         d="m 149.31086,-1061.2269 q 0.4,-0.1 1.0625,-0.2125 0.6625,-0.1125 1.525,-0.1125 0.775,0 1.2875,0.225 0.5125,0.2125 0.8125,0.6125 0.3125,0.3875 0.4375,0.9375 0.125,0.55 0.125,1.2125 l 0,3.65 -1.1625,0 0,-3.4 q 0,-0.6 -0.0875,-1.025 -0.075,-0.425 -0.2625,-0.6875 -0.1875,-0.2625 -0.5,-0.375 -0.3125,-0.125 -0.775,-0.125 -0.1875,0 -0.3875,0.013 -0.2,0.013 -0.3875,0.038 -0.175,0.012 -0.325,0.037 -0.1375,0.025 -0.2,0.037 l 0,5.4875 -1.1625,0 0,-6.3125 z"
         style="font-style:normal;font-variant:normal;font-weight:normal;font-stretch:normal;font-size:12.5px;font-family:Ubuntu;-inkscape-font-specification:Ubuntu"
         id="path4441"
         inkscape:connector-curvature="0" />
      <path
         d="m 160.6886,-1060.0394 q -0.2125,-0.175 -0.6125,-0.3375 -0.4,-0.1625 -0.875,-0.1625 -0.5,0 -0.8625,0.1875 -0.35,0.175 -0.575,0.5 -0.225,0.3125 -0.325,0.75 -0.1,0.4375 -0.1,0.9375 0,1.1375 0.5625,1.7625 0.5625,0.6125 1.5,0.6125 0.475,0 0.7875,-0.038 0.325,-0.05 0.5,-0.1 l 0,-4.1125 z m 0,-4.375 1.1625,-0.2 0,9.5125 q -0.4,0.1125 -1.025,0.225 -0.625,0.1125 -1.4375,0.1125 -0.75,0 -1.35,-0.2375 -0.6,-0.2375 -1.025,-0.675 -0.425,-0.4375 -0.6625,-1.0625 -0.225,-0.6375 -0.225,-1.425 0,-0.75 0.1875,-1.375 0.2,-0.625 0.575,-1.075 0.375,-0.45 0.9125,-0.7 0.55,-0.25 1.25,-0.25 0.5625,0 0.9875,0.15 0.4375,0.15 0.65,0.2875 l 0,-3.2875 z"
         style="font-style:normal;font-variant:normal;font-weight:normal;font-stretch:normal;font-size:12.5px;font-family:Ubuntu;-inkscape-font-specification:Ubuntu"
         id="path4443"
         inkscape:connector-curvature="0" />
      <path
         d="m 163.49914,-1058.1519 q 0,-0.8625 0.25,-1.5 0.25,-0.65 0.6625,-1.075 0.4125,-0.425 0.95,-0.6375 0.5375,-0.2125 1.1,-0.2125 1.3125,0 2.0125,0.825 0.7,0.8125 0.7,2.4875 0,0.075 0,0.2 0,0.1125 -0.0125,0.2125 l -4.45,0 q 0.075,1.0125 0.5875,1.5375 0.5125,0.525 1.6,0.525 0.6125,0 1.025,-0.1 0.425,-0.1125 0.6375,-0.2125 l 0.1625,0.975 q -0.2125,0.1125 -0.75,0.2375 -0.525,0.125 -1.2,0.125 -0.85,0 -1.475,-0.25 -0.6125,-0.2625 -1.0125,-0.7125 -0.4,-0.45 -0.6,-1.0625 -0.1875,-0.625 -0.1875,-1.3625 z m 4.4625,-0.6375 q 0.0125,-0.7875 -0.4,-1.2875 -0.4,-0.5125 -1.1125,-0.5125 -0.4,0 -0.7125,0.1625 -0.3,0.15 -0.5125,0.4 -0.2125,0.25 -0.3375,0.575 -0.1125,0.325 -0.15,0.6625 l 3.225,0 z"
         style="font-style:normal;font-variant:normal;font-weight:normal;font-stretch:normal;font-size:12.5px;font-family:Ubuntu;-inkscape-font-specification:Ubuntu"
         id="path4445"
         inkscape:connector-curvature="0" />
      <path
         d="m 30.333049,-1048.3531 1.09125,0 0,7.7963 -1.09125,0 0,-7.7963 z"
         style="font-style:normal;font-variant:normal;font-weight:normal;font-stretch:normal;font-size:11.25px;font-family:Ubuntu;-inkscape-font-specification:Ubuntu"
         id="path4447"
         inkscape:connector-curvature="0" />
      <path
         d="m 33.297776,-1046.2381 q 0.36,-0.09 0.95625,-0.1912 0.59625,-0.1013 1.3725,-0.1013 0.6975,0 1.15875,0.2025 0.46125,0.1913 0.73125,0.5513 0.28125,0.3487 0.39375,0.8437 0.1125,0.495 0.1125,1.0913 l 0,3.285 -1.04625,0 0,-3.06 q 0,-0.54 -0.07875,-0.9225 -0.0675,-0.3825 -0.23625,-0.6188 -0.16875,-0.2362 -0.45,-0.3375 -0.28125,-0.1125 -0.6975,-0.1125 -0.16875,0 -0.34875,0.011 -0.18,0.011 -0.34875,0.034 -0.1575,0.011 -0.2925,0.034 -0.12375,0.022 -0.18,0.034 l 0,4.9388 -1.04625,0 0,-5.6813 z"
         style="font-style:normal;font-variant:normal;font-weight:normal;font-stretch:normal;font-size:11.25px;font-family:Ubuntu;-inkscape-font-specification:Ubuntu"
         id="path4449"
         inkscape:connector-curvature="0" />
      <path
         d="m 41.118987,-1041.3106 q 0.64125,0 0.945,-0.1687 0.315,-0.1688 0.315,-0.54 0,-0.3825 -0.30375,-0.6075 -0.30375,-0.225 -1.00125,-0.5063 -0.3375,-0.135 -0.6525,-0.27 -0.30375,-0.1462 -0.52875,-0.3375 -0.225,-0.1912 -0.36,-0.4612 -0.135,-0.27 -0.135,-0.6638 0,-0.7762 0.57375,-1.2262 0.57375,-0.4613 1.56375,-0.4613 0.2475,0 0.495,0.034 0.2475,0.023 0.46125,0.067 0.21375,0.034 0.37125,0.079 0.16875,0.045 0.25875,0.079 l -0.19125,0.9 q -0.16875,-0.09 -0.52875,-0.18 -0.36,-0.1013 -0.86625,-0.1013 -0.43875,0 -0.765,0.18 -0.32625,0.1688 -0.32625,0.54 0,0.1913 0.0675,0.3375 0.07875,0.1463 0.225,0.27 0.1575,0.1125 0.3825,0.2138 0.225,0.1012 0.54,0.2137 0.41625,0.1575 0.7425,0.315 0.32625,0.1463 0.55125,0.3488 0.23625,0.2025 0.36,0.495 0.12375,0.2812 0.12375,0.6975 0,0.81 -0.6075,1.2262 -0.59625,0.4163 -1.71,0.4163 -0.77625,0 -1.215,-0.135 -0.43875,-0.1238 -0.59625,-0.1913 l 0.19125,-0.9 q 0.18,0.068 0.57375,0.2025 0.39375,0.135 1.04625,0.135 z"
         style="font-style:normal;font-variant:normal;font-weight:normal;font-stretch:normal;font-size:11.25px;font-family:Ubuntu;-inkscape-font-specification:Ubuntu"
         id="path4451"
         inkscape:connector-curvature="0" />
      <path
         d="m 45.746252,-1046.4068 2.21625,0 0,0.8775 -2.21625,0 0,2.7 q 0,0.4387 0.0675,0.7312 0.0675,0.2813 0.2025,0.45 0.135,0.1575 0.3375,0.225 0.2025,0.067 0.4725,0.067 0.4725,0 0.75375,-0.1012 0.2925,-0.1125 0.405,-0.1575 l 0.2025,0.8662 q -0.1575,0.079 -0.55125,0.1913 -0.39375,0.1237 -0.9,0.1237 -0.59625,0 -0.99,-0.1462 -0.3825,-0.1575 -0.61875,-0.4613 -0.23625,-0.3037 -0.3375,-0.7425 -0.09,-0.45 -0.09,-1.035 l 0,-5.22 1.04625,-0.18 0,1.8113 z"
         style="font-style:normal;font-variant:normal;font-weight:normal;font-stretch:normal;font-size:11.25px;font-family:Ubuntu;-inkscape-font-specification:Ubuntu"
         id="path4453"
         inkscape:connector-curvature="0" />
      <path
         d="m 50.340119,-1040.5568 -1.04625,0 0,-5.85 1.04625,0 0,5.85 z m -0.52875,-6.9075 q -0.28125,0 -0.48375,-0.18 -0.19125,-0.1913 -0.19125,-0.5063 0,-0.315 0.19125,-0.495 0.2025,-0.1912 0.48375,-0.1912 0.28125,0 0.4725,0.1912 0.2025,0.18 0.2025,0.495 0,0.315 -0.2025,0.5063 -0.19125,0.18 -0.4725,0.18 z"
         style="font-style:normal;font-variant:normal;font-weight:normal;font-stretch:normal;font-size:11.25px;font-family:Ubuntu;-inkscape-font-specification:Ubuntu"
         id="path4455"
         inkscape:connector-curvature="0" />
      <path
         d="m 53.129065,-1046.4068 2.21625,0 0,0.8775 -2.21625,0 0,2.7 q 0,0.4387 0.0675,0.7312 0.0675,0.2813 0.2025,0.45 0.135,0.1575 0.3375,0.225 0.2025,0.067 0.4725,0.067 0.4725,0 0.75375,-0.1012 0.2925,-0.1125 0.405,-0.1575 l 0.2025,0.8662 q -0.1575,0.079 -0.55125,0.1913 -0.39375,0.1237 -0.9,0.1237 -0.59625,0 -0.99,-0.1462 -0.3825,-0.1575 -0.61875,-0.4613 -0.23625,-0.3037 -0.3375,-0.7425 -0.09,-0.45 -0.09,-1.035 l 0,-5.22 1.04625,-0.18 0,1.8113 z"
         style="font-style:normal;font-variant:normal;font-weight:normal;font-stretch:normal;font-size:11.25px;font-family:Ubuntu;-inkscape-font-specification:Ubuntu"
         id="path4457"
         inkscape:connector-curvature="0" />
      <path
         d="m 61.334182,-1040.7256 q -0.36,0.09 -0.95625,0.1913 -0.585,0.1012 -1.36125,0.1012 -0.675,0 -1.13625,-0.1912 -0.46125,-0.2025 -0.7425,-0.5625 -0.28125,-0.36 -0.405,-0.8438 -0.12375,-0.495 -0.12375,-1.0912 l 0,-3.285 1.04625,0 0,3.06 q 0,1.0687 0.3375,1.53 0.3375,0.4612 1.13625,0.4612 0.16875,0 0.34875,-0.011 0.18,-0.011 0.3375,-0.023 0.1575,-0.023 0.28125,-0.034 0.135,-0.023 0.19125,-0.045 l 0,-4.9387 1.04625,0 0,5.6812 z"
         style="font-style:normal;font-variant:normal;font-weight:normal;font-stretch:normal;font-size:11.25px;font-family:Ubuntu;-inkscape-font-specification:Ubuntu"
         id="path4459"
         inkscape:connector-curvature="0" />
      <path
         d="m 64.115393,-1046.4068 2.21625,0 0,0.8775 -2.21625,0 0,2.7 q 0,0.4387 0.0675,0.7312 0.0675,0.2813 0.2025,0.45 0.135,0.1575 0.3375,0.225 0.2025,0.067 0.4725,0.067 0.4725,0 0.75375,-0.1012 0.2925,-0.1125 0.405,-0.1575 l 0.2025,0.8662 q -0.1575,0.079 -0.55125,0.1913 -0.39375,0.1237 -0.9,0.1237 -0.59625,0 -0.99,-0.1462 -0.3825,-0.1575 -0.61875,-0.4613 -0.23625,-0.3037 -0.3375,-0.7425 -0.09,-0.45 -0.09,-1.035 l 0,-5.22 1.04625,-0.18 0,1.8113 z"
         style="font-style:normal;font-variant:normal;font-weight:normal;font-stretch:normal;font-size:11.25px;font-family:Ubuntu;-inkscape-font-specification:Ubuntu"
         id="path4461"
         inkscape:connector-curvature="0" />
      <path
         d="m 67.226897,-1043.4706 q 0,-0.7762 0.225,-1.35 0.225,-0.585 0.59625,-0.9675 0.37125,-0.3825 0.855,-0.5737 0.48375,-0.1913 0.99,-0.1913 1.18125,0 1.81125,0.7425 0.63,0.7313 0.63,2.2388 0,0.067 0,0.18 0,0.1012 -0.01125,0.1912 l -4.005,0 q 0.0675,0.9113 0.52875,1.3838 0.46125,0.4725 1.44,0.4725 0.55125,0 0.9225,-0.09 0.3825,-0.1013 0.57375,-0.1913 l 0.14625,0.8775 q -0.19125,0.1013 -0.675,0.2138 -0.4725,0.1125 -1.08,0.1125 -0.765,0 -1.3275,-0.225 -0.55125,-0.2363 -0.91125,-0.6413 -0.36,-0.405 -0.54,-0.9562 -0.16875,-0.5625 -0.16875,-1.2263 z m 4.01625,-0.5737 q 0.01125,-0.7088 -0.36,-1.1588 -0.36,-0.4612 -1.00125,-0.4612 -0.36,0 -0.64125,0.1462 -0.27,0.135 -0.46125,0.36 -0.19125,0.225 -0.30375,0.5175 -0.10125,0.2925 -0.135,0.5963 l 2.9025,0 z"
         style="font-style:normal;font-variant:normal;font-weight:normal;font-stretch:normal;font-size:11.25px;font-family:Ubuntu;-inkscape-font-specification:Ubuntu"
         id="path4463"
         inkscape:connector-curvature="0" />
      <path
         d="m 81.59385,-1043.4818 q 0,0.6975 -0.2025,1.26 -0.2025,0.5625 -0.57375,0.9675 -0.36,0.405 -0.86625,0.63 -0.50625,0.2137 -1.1025,0.2137 -0.59625,0 -1.1025,-0.2137 -0.50625,-0.225 -0.8775,-0.63 -0.36,-0.405 -0.5625,-0.9675 -0.2025,-0.5625 -0.2025,-1.26 0,-0.6863 0.2025,-1.2488 0.2025,-0.5737 0.5625,-0.9787 0.37125,-0.405 0.8775,-0.6188 0.50625,-0.225 1.1025,-0.225 0.59625,0 1.1025,0.225 0.50625,0.2138 0.86625,0.6188 0.37125,0.405 0.57375,0.9787 0.2025,0.5625 0.2025,1.2488 z m -1.09125,0 q 0,-0.99 -0.45,-1.5638 -0.43875,-0.585 -1.20375,-0.585 -0.765,0 -1.215,0.585 -0.43875,0.5738 -0.43875,1.5638 0,0.99 0.43875,1.575 0.45,0.5737 1.215,0.5737 0.765,0 1.20375,-0.5737 0.45,-0.585 0.45,-1.575 z"
         style="font-style:normal;font-variant:normal;font-weight:normal;font-stretch:normal;font-size:11.25px;font-family:Ubuntu;-inkscape-font-specification:Ubuntu"
         id="path4465"
         inkscape:connector-curvature="0" />
      <path
         d="m 85.349592,-1049.2868 q 0.46125,0 0.7875,0.068 0.3375,0.067 0.4725,0.1237 l -0.19125,0.9 q -0.135,-0.067 -0.3825,-0.1237 -0.2475,-0.067 -0.6075,-0.067 -0.73125,0 -1.02375,0.405 -0.2925,0.3937 -0.2925,1.0687 l 0,0.5063 2.25,0 0,0.8775 -2.25,0 0,4.9725 -1.04625,0 0,-6.3788 q 0,-1.125 0.55125,-1.7325 0.55125,-0.6187 1.7325,-0.6187 z"
         style="font-style:normal;font-variant:normal;font-weight:normal;font-stretch:normal;font-size:11.25px;font-family:Ubuntu;-inkscape-font-specification:Ubuntu"
         id="path4467"
         inkscape:connector-curvature="0" />
      <path
         d="m 93.429201,-1040.3881 q -0.82125,0 -1.49625,-0.27 -0.675,-0.27 -1.15875,-0.7875 -0.48375,-0.5175 -0.75375,-1.2712 -0.25875,-0.765 -0.25875,-1.7438 0,-0.9787 0.2925,-1.7325 0.30375,-0.765 0.81,-1.2825 0.50625,-0.5175 1.18125,-0.7875 0.675,-0.27 1.44,-0.27 0.48375,0 0.86625,0.068 0.39375,0.067 0.675,0.1575 0.2925,0.09 0.4725,0.18 0.18,0.09 0.2475,0.135 l -0.315,0.9 q -0.10125,-0.067 -0.2925,-0.1462 -0.19125,-0.079 -0.43875,-0.1575 -0.23625,-0.079 -0.52875,-0.1238 -0.28125,-0.056 -0.57375,-0.056 -0.61875,0 -1.11375,0.2137 -0.495,0.2138 -0.84375,0.6188 -0.34875,0.405 -0.54,0.99 -0.18,0.5737 -0.18,1.2937 0,0.6975 0.1575,1.2713 0.16875,0.5737 0.495,0.99 0.32625,0.405 0.81,0.63 0.495,0.225 1.1475,0.225 0.75375,0 1.24875,-0.1575 0.495,-0.1575 0.7425,-0.2813 l 0.28125,0.9 q -0.07875,0.056 -0.28125,0.1463 -0.2025,0.079 -0.50625,0.1575 -0.30375,0.079 -0.70875,0.135 -0.405,0.056 -0.8775,0.056 z"
         style="font-style:normal;font-variant:normal;font-weight:normal;font-stretch:normal;font-size:11.25px;font-family:Ubuntu;-inkscape-font-specification:Ubuntu"
         id="path4469"
         inkscape:connector-curvature="0" />
      <path
         d="m 96.974533,-1040.5568 0,-8.55 1.04625,-0.18 0,2.9925 q 0.2925,-0.1125 0.61875,-0.1688 0.3375,-0.068 0.66375,-0.068 0.697497,0 1.158747,0.2025 0.46125,0.1913 0.73125,0.5513 0.28125,0.3487 0.39375,0.8437 0.1125,0.495 0.1125,1.0913 l 0,3.285 -1.04625,0 0,-3.06 q 0,-0.54 -0.0787,-0.9225 -0.0675,-0.3825 -0.23625,-0.6188 -0.16875,-0.2362 -0.449997,-0.3375 -0.28125,-0.1125 -0.6975,-0.1125 -0.16875,0 -0.34875,0.022 -0.18,0.023 -0.34875,0.056 -0.1575,0.022 -0.2925,0.056 -0.12375,0.034 -0.18,0.056 l 0,4.86 -1.04625,0 z"
         style="font-style:normal;font-variant:normal;font-weight:normal;font-stretch:normal;font-size:11.25px;font-family:Ubuntu;-inkscape-font-specification:Ubuntu"
         id="path4471"
         inkscape:connector-curvature="0" />
      <path
         d="m 103.0643,-1043.4706 q 0,-0.7762 0.225,-1.35 0.225,-0.585 0.59625,-0.9675 0.37125,-0.3825 0.855,-0.5737 0.48375,-0.1913 0.99,-0.1913 1.18125,0 1.81125,0.7425 0.63,0.7313 0.63,2.2388 0,0.067 0,0.18 0,0.1012 -0.0113,0.1912 l -4.005,0 q 0.0675,0.9113 0.52875,1.3838 0.46125,0.4725 1.44,0.4725 0.55125,0 0.9225,-0.09 0.3825,-0.1013 0.57375,-0.1913 l 0.14625,0.8775 q -0.19125,0.1013 -0.675,0.2138 -0.4725,0.1125 -1.08,0.1125 -0.765,0 -1.3275,-0.225 -0.55125,-0.2363 -0.91125,-0.6413 -0.36,-0.405 -0.54,-0.9562 -0.16875,-0.5625 -0.16875,-1.2263 z m 4.01625,-0.5737 q 0.0113,-0.7088 -0.36,-1.1588 -0.36,-0.4612 -1.00125,-0.4612 -0.36,0 -0.64125,0.1462 -0.27,0.135 -0.46125,0.36 -0.19125,0.225 -0.30375,0.5175 -0.10125,0.2925 -0.135,0.5963 l 2.9025,0 z"
         style="font-style:normal;font-variant:normal;font-weight:normal;font-stretch:normal;font-size:11.25px;font-family:Ubuntu;-inkscape-font-specification:Ubuntu"
         id="path4473"
         inkscape:connector-curvature="0" />
      <path
         d="m 109.67473,-1046.2381 q 0.36,-0.09 0.945,-0.1912 0.59625,-0.1013 1.3725,-0.1013 0.5625,0 0.945,0.1575 0.3825,0.1463 0.64125,0.4388 0.0787,-0.056 0.2475,-0.1575 0.16875,-0.1013 0.41625,-0.1913 0.2475,-0.1012 0.55125,-0.1687 0.30375,-0.079 0.6525,-0.079 0.675,0 1.1025,0.2025 0.4275,0.1913 0.66375,0.5513 0.2475,0.36 0.32625,0.855 0.09,0.495 0.09,1.08 l 0,3.285 -1.04625,0 0,-3.06 q 0,-0.5175 -0.0562,-0.8888 -0.045,-0.3712 -0.19125,-0.6187 -0.135,-0.2475 -0.3825,-0.36 -0.23625,-0.1238 -0.61875,-0.1238 -0.52875,0 -0.8775,0.1463 -0.3375,0.135 -0.46125,0.2475 0.09,0.2925 0.135,0.6412 0.045,0.3488 0.045,0.7313 l 0,3.285 -1.04625,0 0,-3.06 q 0,-0.5175 -0.0562,-0.8888 -0.0563,-0.3712 -0.2025,-0.6187 -0.135,-0.2475 -0.3825,-0.36 -0.23625,-0.1238 -0.6075,-0.1238 -0.1575,0 -0.3375,0.011 -0.18,0.011 -0.34875,0.034 -0.1575,0.011 -0.2925,0.034 -0.135,0.022 -0.18,0.034 l 0,4.9388 -1.04625,0 0,-5.6813 z"
         style="font-style:normal;font-variant:normal;font-weight:normal;font-stretch:normal;font-size:11.25px;font-family:Ubuntu;-inkscape-font-specification:Ubuntu"
         id="path4475"
         inkscape:connector-curvature="0" />
      <path
         d="m 120.41092,-1040.5568 -1.04625,0 0,-5.85 1.04625,0 0,5.85 z m -0.52875,-6.9075 q -0.28125,0 -0.48375,-0.18 -0.19125,-0.1913 -0.19125,-0.5063 0,-0.315 0.19125,-0.495 0.2025,-0.1912 0.48375,-0.1912 0.28125,0 0.4725,0.1912 0.2025,0.18 0.2025,0.495 0,0.315 -0.2025,0.5063 -0.19125,0.18 -0.4725,0.18 z"
         style="font-style:normal;font-variant:normal;font-weight:normal;font-stretch:normal;font-size:11.25px;font-family:Ubuntu;-inkscape-font-specification:Ubuntu"
         id="path4477"
         inkscape:connector-curvature="0" />
      <path
         d="m 123.58237,-1041.3106 q 0.64125,0 0.945,-0.1687 0.315,-0.1688 0.315,-0.54 0,-0.3825 -0.30375,-0.6075 -0.30375,-0.225 -1.00125,-0.5063 -0.3375,-0.135 -0.6525,-0.27 -0.30375,-0.1462 -0.52875,-0.3375 -0.225,-0.1912 -0.36,-0.4612 -0.135,-0.27 -0.135,-0.6638 0,-0.7762 0.57375,-1.2262 0.57375,-0.4613 1.56375,-0.4613 0.2475,0 0.495,0.034 0.2475,0.023 0.46125,0.067 0.21375,0.034 0.37125,0.079 0.16875,0.045 0.25875,0.079 l -0.19125,0.9 q -0.16875,-0.09 -0.52875,-0.18 -0.36,-0.1013 -0.86625,-0.1013 -0.43875,0 -0.765,0.18 -0.32625,0.1688 -0.32625,0.54 0,0.1913 0.0675,0.3375 0.0787,0.1463 0.225,0.27 0.1575,0.1125 0.3825,0.2138 0.225,0.1012 0.54,0.2137 0.41625,0.1575 0.7425,0.315 0.32625,0.1463 0.55125,0.3488 0.23625,0.2025 0.36,0.495 0.12375,0.2812 0.12375,0.6975 0,0.81 -0.6075,1.2262 -0.59625,0.4163 -1.71,0.4163 -0.77625,0 -1.215,-0.135 -0.43875,-0.1238 -0.59625,-0.1913 l 0.19125,-0.9 q 0.18,0.068 0.57375,0.2025 0.39375,0.135 1.04625,0.135 z"
         style="font-style:normal;font-variant:normal;font-weight:normal;font-stretch:normal;font-size:11.25px;font-family:Ubuntu;-inkscape-font-specification:Ubuntu"
         id="path4479"
         inkscape:connector-curvature="0" />
      <path
         d="m 128.20963,-1046.4068 2.21625,0 0,0.8775 -2.21625,0 0,2.7 q 0,0.4387 0.0675,0.7312 0.0675,0.2813 0.2025,0.45 0.135,0.1575 0.3375,0.225 0.2025,0.067 0.4725,0.067 0.4725,0 0.75375,-0.1012 0.2925,-0.1125 0.405,-0.1575 l 0.2025,0.8662 q -0.1575,0.079 -0.55125,0.1913 -0.39375,0.1237 -0.9,0.1237 -0.59625,0 -0.99,-0.1462 -0.3825,-0.1575 -0.61875,-0.4613 -0.23625,-0.3037 -0.3375,-0.7425 -0.09,-0.45 -0.09,-1.035 l 0,-5.22 1.04625,-0.18 0,1.8113 z"
         style="font-style:normal;font-variant:normal;font-weight:normal;font-stretch:normal;font-size:11.25px;font-family:Ubuntu;-inkscape-font-specification:Ubuntu"
         id="path4481"
         inkscape:connector-curvature="0" />
      <path
         d="m 133.91725,-1046.5306 q 0.135,0 0.30375,0.023 0.18,0.011 0.34875,0.045 0.16875,0.023 0.30375,0.056 0.14625,0.023 0.21375,0.045 l -0.18,0.9112 q -0.12375,-0.045 -0.41625,-0.1012 -0.28125,-0.068 -0.73125,-0.068 -0.2925,0 -0.585,0.068 -0.28125,0.056 -0.37125,0.079 l 0,4.9163 -1.04625,0 0,-5.6025 q 0.37125,-0.135 0.9225,-0.2475 0.55125,-0.1238 1.2375,-0.1238 z"
         style="font-style:normal;font-variant:normal;font-weight:normal;font-stretch:normal;font-size:11.25px;font-family:Ubuntu;-inkscape-font-specification:Ubuntu"
         id="path4483"
         inkscape:connector-curvature="0" />
      <path
         d="m 135.66328,-1039.4656 q 0.12375,0.056 0.315,0.1013 0.2025,0.056 0.39375,0.056 0.61875,0 0.9675,-0.2812 0.34875,-0.27 0.63,-0.8888 -0.70875,-1.35 -1.3275,-2.8575 -0.6075,-1.5187 -1.0125,-3.0712 l 1.125,0 q 0.12375,0.5062 0.2925,1.0912 0.18,0.585 0.39375,1.2038 0.21375,0.6187 0.46125,1.2375 0.2475,0.6187 0.5175,1.1925 0.4275,-1.1813 0.7425,-2.34 0.315,-1.1588 0.59625,-2.385 l 1.08,0 q -0.405,1.6537 -0.9,3.1837 -0.495,1.5188 -1.06875,2.8463 -0.225,0.5062 -0.4725,0.8662 -0.23625,0.3713 -0.52875,0.6075 -0.2925,0.2363 -0.66375,0.3488 -0.36,0.1125 -0.82125,0.1125 -0.12375,0 -0.25875,-0.023 -0.135,-0.011 -0.27,-0.045 -0.12375,-0.023 -0.23625,-0.056 -0.10125,-0.034 -0.14625,-0.056 l 0.19125,-0.8438 z"
         style="font-style:normal;font-variant:normal;font-weight:normal;font-stretch:normal;font-size:11.25px;font-family:Ubuntu;-inkscape-font-specification:Ubuntu"
         id="path4485"
         inkscape:connector-curvature="0" />
      <path
         d="m 143.91586,-1044.4156 2.77875,0 0,0.9788 -2.77875,0 0,-0.9788 z"
         style="font-style:normal;font-variant:normal;font-weight:normal;font-stretch:normal;font-size:11.25px;font-family:Ubuntu;-inkscape-font-specification:Ubuntu"
         id="path4487"
         inkscape:connector-curvature="0" />
      <path
         d="m 153.44795,-1040.3881 q -0.765,0 -1.3275,-0.2362 -0.5625,-0.2363 -0.9225,-0.6413 -0.36,-0.4162 -0.54,-0.9787 -0.16875,-0.5625 -0.16875,-1.215 l 0,-4.8938 1.09125,0 0,4.77 q 0,1.17 0.5175,1.6988 0.5175,0.5287 1.35,0.5287 0.41625,0 0.75375,-0.1237 0.34875,-0.135 0.59625,-0.405 0.2475,-0.27 0.3825,-0.6863 0.135,-0.4275 0.135,-1.0125 l 0,-4.77 1.09125,0 0,4.8938 q 0,0.6525 -0.18,1.215 -0.16875,0.5625 -0.54,0.9787 -0.36,0.405 -0.9225,0.6413 -0.55125,0.2362 -1.31625,0.2362 z"
         style="font-style:normal;font-variant:normal;font-weight:normal;font-stretch:normal;font-size:11.25px;font-family:Ubuntu;-inkscape-font-specification:Ubuntu"
         id="path4489"
         inkscape:connector-curvature="0" />
      <path
         d="m 158.21233,-1046.2381 q 0.36,-0.09 0.95625,-0.1912 0.59625,-0.1013 1.3725,-0.1013 0.6975,0 1.15875,0.2025 0.46125,0.1913 0.73125,0.5513 0.28125,0.3487 0.39375,0.8437 0.1125,0.495 0.1125,1.0913 l 0,3.285 -1.04625,0 0,-3.06 q 0,-0.54 -0.0787,-0.9225 -0.0675,-0.3825 -0.23625,-0.6188 -0.16875,-0.2362 -0.45,-0.3375 -0.28125,-0.1125 -0.6975,-0.1125 -0.16875,0 -0.34875,0.011 -0.18,0.011 -0.34875,0.034 -0.1575,0.011 -0.2925,0.034 -0.12375,0.022 -0.18,0.034 l 0,4.9388 -1.04625,0 0,-5.6813 z"
         style="font-style:normal;font-variant:normal;font-weight:normal;font-stretch:normal;font-size:11.25px;font-family:Ubuntu;-inkscape-font-specification:Ubuntu"
         id="path4491"
         inkscape:connector-curvature="0" />
      <path
         d="m 165.71854,-1040.5568 -1.04625,0 0,-5.85 1.04625,0 0,5.85 z m -0.52875,-6.9075 q -0.28125,0 -0.48375,-0.18 -0.19125,-0.1913 -0.19125,-0.5063 0,-0.315 0.19125,-0.495 0.2025,-0.1912 0.48375,-0.1912 0.28125,0 0.4725,0.1912 0.2025,0.18 0.2025,0.495 0,0.315 -0.2025,0.5063 -0.19125,0.18 -0.4725,0.18 z"
         style="font-style:normal;font-variant:normal;font-weight:normal;font-stretch:normal;font-size:11.25px;font-family:Ubuntu;-inkscape-font-specification:Ubuntu"
         id="path4493"
         inkscape:connector-curvature="0" />
      <path
         d="m 172.09623,-1046.4068 q -0.43875,1.6425 -1.035,3.15 -0.585,1.5075 -1.13625,2.7 l -0.945,0 q -0.55125,-1.1925 -1.1475,-2.7 -0.585,-1.5075 -1.02375,-3.15 l 1.125,0 q 0.135,0.5512 0.315,1.1812 0.19125,0.6188 0.39375,1.2375 0.21375,0.6075 0.4275,1.1813 0.21375,0.5737 0.405,1.0237 0.19125,-0.45 0.405,-1.0237 0.21375,-0.5738 0.41625,-1.1813 0.21375,-0.6187 0.39375,-1.2375 0.19125,-0.63 0.32625,-1.1812 l 1.08,0 z"
         style="font-style:normal;font-variant:normal;font-weight:normal;font-stretch:normal;font-size:11.25px;font-family:Ubuntu;-inkscape-font-specification:Ubuntu"
         id="path4495"
         inkscape:connector-curvature="0" />
      <path
         d="m 172.69565,-1043.4706 q 0,-0.7762 0.225,-1.35 0.225,-0.585 0.59625,-0.9675 0.37125,-0.3825 0.855,-0.5737 0.48375,-0.1913 0.99,-0.1913 1.18125,0 1.81125,0.7425 0.63,0.7313 0.63,2.2388 0,0.067 0,0.18 0,0.1012 -0.0112,0.1912 l -4.005,0 q 0.0675,0.9113 0.52875,1.3838 0.46125,0.4725 1.44,0.4725 0.55125,0 0.9225,-0.09 0.3825,-0.1013 0.57375,-0.1913 l 0.14625,0.8775 q -0.19125,0.1013 -0.675,0.2138 -0.4725,0.1125 -1.08,0.1125 -0.765,0 -1.3275,-0.225 -0.55125,-0.2363 -0.91125,-0.6413 -0.36,-0.405 -0.54,-0.9562 -0.16875,-0.5625 -0.16875,-1.2263 z m 4.01625,-0.5737 q 0.0112,-0.7088 -0.36,-1.1588 -0.36,-0.4612 -1.00125,-0.4612 -0.36,0 -0.64125,0.1462 -0.27,0.135 -0.46125,0.36 -0.19125,0.225 -0.30375,0.5175 -0.10125,0.2925 -0.135,0.5963 l 2.9025,0 z"
         style="font-style:normal;font-variant:normal;font-weight:normal;font-stretch:normal;font-size:11.25px;font-family:Ubuntu;-inkscape-font-specification:Ubuntu"
         id="path4497"
         inkscape:connector-curvature="0" />
      <path
         d="m 181.46608,-1046.5306 q 0.135,0 0.30375,0.023 0.18,0.011 0.34875,0.045 0.16875,0.023 0.30375,0.056 0.14625,0.023 0.21375,0.045 l -0.18,0.9112 q -0.12375,-0.045 -0.41625,-0.1012 -0.28125,-0.068 -0.73125,-0.068 -0.2925,0 -0.585,0.068 -0.28125,0.056 -0.37125,0.079 l 0,4.9163 -1.04625,0 0,-5.6025 q 0.37125,-0.135 0.9225,-0.2475 0.55125,-0.1238 1.2375,-0.1238 z"
         style="font-style:normal;font-variant:normal;font-weight:normal;font-stretch:normal;font-size:11.25px;font-family:Ubuntu;-inkscape-font-specification:Ubuntu"
         id="path4499"
         inkscape:connector-curvature="0" />
      <path
         d="m 185.01791,-1041.3106 q 0.64125,0 0.945,-0.1687 0.315,-0.1688 0.315,-0.54 0,-0.3825 -0.30375,-0.6075 -0.30375,-0.225 -1.00125,-0.5063 -0.3375,-0.135 -0.6525,-0.27 -0.30375,-0.1462 -0.52875,-0.3375 -0.225,-0.1912 -0.36,-0.4612 -0.135,-0.27 -0.135,-0.6638 0,-0.7762 0.57375,-1.2262 0.57375,-0.4613 1.56375,-0.4613 0.2475,0 0.495,0.034 0.2475,0.023 0.46125,0.067 0.21375,0.034 0.37125,0.079 0.16875,0.045 0.25875,0.079 l -0.19125,0.9 q -0.16875,-0.09 -0.52875,-0.18 -0.36,-0.1013 -0.86625,-0.1013 -0.43875,0 -0.765,0.18 -0.32625,0.1688 -0.32625,0.54 0,0.1913 0.0675,0.3375 0.0787,0.1463 0.225,0.27 0.1575,0.1125 0.3825,0.2138 0.225,0.1012 0.54,0.2137 0.41625,0.1575 0.7425,0.315 0.32625,0.1463 0.55125,0.3488 0.23625,0.2025 0.36,0.495 0.12375,0.2812 0.12375,0.6975 0,0.81 -0.6075,1.2262 -0.59625,0.4163 -1.71,0.4163 -0.77625,0 -1.215,-0.135 -0.43875,-0.1238 -0.59625,-0.1913 l 0.19125,-0.9 q 0.18,0.068 0.57375,0.2025 0.39375,0.135 1.04625,0.135 z"
         style="font-style:normal;font-variant:normal;font-weight:normal;font-stretch:normal;font-size:11.25px;font-family:Ubuntu;-inkscape-font-specification:Ubuntu"
         id="path4501"
         inkscape:connector-curvature="0" />
      <path
         d="m 189.71268,-1040.5568 -1.04625,0 0,-5.85 1.04625,0 0,5.85 z m -0.52875,-6.9075 q -0.28125,0 -0.48375,-0.18 -0.19125,-0.1913 -0.19125,-0.5063 0,-0.315 0.19125,-0.495 0.2025,-0.1912 0.48375,-0.1912 0.28125,0 0.4725,0.1912 0.2025,0.18 0.2025,0.495 0,0.315 -0.2025,0.5063 -0.19125,0.18 -0.4725,0.18 z"
         style="font-style:normal;font-variant:normal;font-weight:normal;font-stretch:normal;font-size:11.25px;font-family:Ubuntu;-inkscape-font-specification:Ubuntu"
         id="path4503"
         inkscape:connector-curvature="0" />
      <path
         d="m 192.50162,-1046.4068 2.21625,0 0,0.8775 -2.21625,0 0,2.7 q 0,0.4387 0.0675,0.7312 0.0675,0.2813 0.2025,0.45 0.135,0.1575 0.3375,0.225 0.2025,0.067 0.4725,0.067 0.4725,0 0.75375,-0.1012 0.2925,-0.1125 0.405,-0.1575 l 0.2025,0.8662 q -0.1575,0.079 -0.55125,0.1913 -0.39375,0.1237 -0.9,0.1237 -0.59625,0 -0.99,-0.1462 -0.3825,-0.1575 -0.61875,-0.4613 -0.23625,-0.3037 -0.3375,-0.7425 -0.09,-0.45 -0.09,-1.035 l 0,-5.22 1.04625,-0.18 0,1.8113 z"
         style="font-style:normal;font-variant:normal;font-weight:normal;font-stretch:normal;font-size:11.25px;font-family:Ubuntu;-inkscape-font-specification:Ubuntu"
         id="path4505"
         inkscape:connector-curvature="0" />
      <path
         d="m 195.36299,-1039.4656 q 0.12375,0.056 0.315,0.1013 0.2025,0.056 0.39375,0.056 0.61875,0 0.9675,-0.2812 0.34875,-0.27 0.63,-0.8888 -0.70875,-1.35 -1.3275,-2.8575 -0.6075,-1.5187 -1.0125,-3.0712 l 1.125,0 q 0.12375,0.5062 0.2925,1.0912 0.18,0.585 0.39375,1.2038 0.21375,0.6187 0.46125,1.2375 0.2475,0.6187 0.5175,1.1925 0.4275,-1.1813 0.7425,-2.34 0.315,-1.1588 0.59625,-2.385 l 1.08,0 q -0.405,1.6537 -0.9,3.1837 -0.495,1.5188 -1.06875,2.8463 -0.225,0.5062 -0.4725,0.8662 -0.23625,0.3713 -0.52875,0.6075 -0.2925,0.2363 -0.66375,0.3488 -0.36,0.1125 -0.82125,0.1125 -0.12375,0 -0.25875,-0.023 -0.135,-0.011 -0.27,-0.045 -0.12375,-0.023 -0.23625,-0.056 -0.10125,-0.034 -0.14625,-0.056 l 0.19125,-0.8438 z"
         style="font-style:normal;font-variant:normal;font-weight:normal;font-stretch:normal;font-size:11.25px;font-family:Ubuntu;-inkscape-font-specification:Ubuntu"
         id="path4507"
         inkscape:connector-curvature="0" />
      <path
         d="m 209.38682,-1043.4818 q 0,0.6975 -0.2025,1.26 -0.2025,0.5625 -0.57375,0.9675 -0.36,0.405 -0.86625,0.63 -0.50625,0.2137 -1.1025,0.2137 -0.59625,0 -1.1025,-0.2137 -0.50625,-0.225 -0.8775,-0.63 -0.36,-0.405 -0.5625,-0.9675 -0.2025,-0.5625 -0.2025,-1.26 0,-0.6863 0.2025,-1.2488 0.2025,-0.5737 0.5625,-0.9787 0.37125,-0.405 0.8775,-0.6188 0.50625,-0.225 1.1025,-0.225 0.59625,0 1.1025,0.225 0.50625,0.2138 0.86625,0.6188 0.37125,0.405 0.57375,0.9787 0.2025,0.5625 0.2025,1.2488 z m -1.09125,0 q 0,-0.99 -0.45,-1.5638 -0.43875,-0.585 -1.20375,-0.585 -0.765,0 -1.215,0.585 -0.43875,0.5738 -0.43875,1.5638 0,0.99 0.43875,1.575 0.45,0.5737 1.215,0.5737 0.765,0 1.20375,-0.5737 0.45,-0.585 0.45,-1.575 z"
         style="font-style:normal;font-variant:normal;font-weight:normal;font-stretch:normal;font-size:11.25px;font-family:Ubuntu;-inkscape-font-specification:Ubuntu"
         id="path4509"
         inkscape:connector-curvature="0" />
      <path
         d="m 213.14256,-1049.2868 q 0.46125,0 0.7875,0.068 0.3375,0.067 0.4725,0.1237 l -0.19125,0.9 q -0.135,-0.067 -0.3825,-0.1237 -0.2475,-0.067 -0.6075,-0.067 -0.73125,0 -1.02375,0.405 -0.2925,0.3937 -0.2925,1.0687 l 0,0.5063 2.25,0 0,0.8775 -2.25,0 0,4.9725 -1.04625,0 0,-6.3788 q 0,-1.125 0.55125,-1.7325 0.55125,-0.6187 1.7325,-0.6187 z"
         style="font-style:normal;font-variant:normal;font-weight:normal;font-stretch:normal;font-size:11.25px;font-family:Ubuntu;-inkscape-font-specification:Ubuntu"
         id="path4511"
         inkscape:connector-curvature="0" />
      <path
         d="m 221.22217,-1040.3881 q -0.82125,0 -1.49625,-0.27 -0.675,-0.27 -1.15875,-0.7875 -0.48375,-0.5175 -0.75375,-1.2712 -0.25875,-0.765 -0.25875,-1.7438 0,-0.9787 0.2925,-1.7325 0.30375,-0.765 0.81,-1.2825 0.50625,-0.5175 1.18125,-0.7875 0.675,-0.27 1.44,-0.27 0.48375,0 0.86625,0.068 0.39375,0.067 0.675,0.1575 0.2925,0.09 0.4725,0.18 0.18,0.09 0.2475,0.135 l -0.315,0.9 q -0.10125,-0.067 -0.2925,-0.1462 -0.19125,-0.079 -0.43875,-0.1575 -0.23625,-0.079 -0.52875,-0.1238 -0.28125,-0.056 -0.57375,-0.056 -0.61875,0 -1.11375,0.2137 -0.495,0.2138 -0.84375,0.6188 -0.34875,0.405 -0.54,0.99 -0.18,0.5737 -0.18,1.2937 0,0.6975 0.1575,1.2713 0.16875,0.5737 0.495,0.99 0.32625,0.405 0.81,0.63 0.495,0.225 1.1475,0.225 0.75375,0 1.24875,-0.1575 0.495,-0.1575 0.7425,-0.2813 l 0.28125,0.9 q -0.0788,0.056 -0.28125,0.1463 -0.2025,0.079 -0.50625,0.1575 -0.30375,0.079 -0.70875,0.135 -0.405,0.056 -0.8775,0.056 z"
         style="font-style:normal;font-variant:normal;font-weight:normal;font-stretch:normal;font-size:11.25px;font-family:Ubuntu;-inkscape-font-specification:Ubuntu"
         id="path4513"
         inkscape:connector-curvature="0" />
      <path
         d="m 226.7475,-1041.3106 q 0.37125,0 0.6525,-0.011 0.2925,-0.023 0.48375,-0.068 l 0,-1.7438 q -0.1125,-0.056 -0.37125,-0.09 -0.2475,-0.045 -0.6075,-0.045 -0.23625,0 -0.50625,0.034 -0.25875,0.034 -0.48375,0.1462 -0.21375,0.1013 -0.36,0.2925 -0.14625,0.18 -0.14625,0.4838 0,0.5625 0.36,0.7875 0.36,0.2137 0.97875,0.2137 z m -0.09,-5.2425 q 0.63,0 1.0575,0.1688 0.43875,0.1575 0.6975,0.4612 0.27,0.2925 0.3825,0.7088 0.1125,0.405 0.1125,0.9 l 0,3.6562 q -0.135,0.023 -0.3825,0.068 -0.23625,0.034 -0.54,0.067 -0.30375,0.034 -0.66375,0.056 -0.34875,0.034 -0.6975,0.034 -0.495,0 -0.91125,-0.1012 -0.41625,-0.1013 -0.72,-0.315 -0.30375,-0.225 -0.4725,-0.585 -0.16875,-0.36 -0.16875,-0.8663 0,-0.4837 0.19125,-0.8325 0.2025,-0.3487 0.54,-0.5625 0.3375,-0.2137 0.7875,-0.315 0.45,-0.1012 0.945,-0.1012 0.1575,0 0.32625,0.022 0.16875,0.011 0.315,0.045 0.1575,0.023 0.27,0.045 0.1125,0.023 0.1575,0.034 l 0,-0.2925 q 0,-0.2587 -0.0563,-0.5062 -0.0562,-0.2588 -0.2025,-0.45 -0.14625,-0.2025 -0.405,-0.315 -0.2475,-0.1238 -0.6525,-0.1238 -0.5175,0 -0.91125,0.079 -0.3825,0.067 -0.57375,0.1462 l -0.12375,-0.8662 q 0.2025,-0.09 0.675,-0.1688 0.4725,-0.09 1.02375,-0.09 z"
         style="font-style:normal;font-variant:normal;font-weight:normal;font-stretch:normal;font-size:11.25px;font-family:Ubuntu;-inkscape-font-specification:Ubuntu"
         id="path4515"
         inkscape:connector-curvature="0" />
      <path
         d="m 230.6342,-1046.2381 q 0.36,-0.09 0.945,-0.1912 0.59625,-0.1013 1.3725,-0.1013 0.5625,0 0.945,0.1575 0.3825,0.1463 0.64125,0.4388 0.0788,-0.056 0.2475,-0.1575 0.16875,-0.1013 0.41625,-0.1913 0.2475,-0.1012 0.55125,-0.1687 0.30375,-0.079 0.6525,-0.079 0.675,0 1.1025,0.2025 0.4275,0.1913 0.66375,0.5513 0.2475,0.36 0.32625,0.855 0.09,0.495 0.09,1.08 l 0,3.285 -1.04625,0 0,-3.06 q 0,-0.5175 -0.0563,-0.8888 -0.045,-0.3712 -0.19125,-0.6187 -0.135,-0.2475 -0.3825,-0.36 -0.23625,-0.1238 -0.61875,-0.1238 -0.52875,0 -0.8775,0.1463 -0.3375,0.135 -0.46125,0.2475 0.09,0.2925 0.135,0.6412 0.045,0.3488 0.045,0.7313 l 0,3.285 -1.04625,0 0,-3.06 q 0,-0.5175 -0.0563,-0.8888 -0.0563,-0.3712 -0.2025,-0.6187 -0.135,-0.2475 -0.3825,-0.36 -0.23625,-0.1238 -0.6075,-0.1238 -0.1575,0 -0.3375,0.011 -0.18,0.011 -0.34875,0.034 -0.1575,0.011 -0.2925,0.034 -0.135,0.022 -0.18,0.034 l 0,4.9388 -1.04625,0 0,-5.6813 z"
         style="font-style:normal;font-variant:normal;font-weight:normal;font-stretch:normal;font-size:11.25px;font-family:Ubuntu;-inkscape-font-specification:Ubuntu"
         id="path4517"
         inkscape:connector-curvature="0" />
      <path
         d="m 244.38539,-1043.4706 q 0,-1.0237 -0.50625,-1.575 -0.50625,-0.5512 -1.35,-0.5512 -0.4725,0 -0.7425,0.034 -0.25875,0.034 -0.41625,0.079 l 0,3.69 q 0.19125,0.1575 0.55125,0.3037 0.36,0.1463 0.7875,0.1463 0.45,0 0.765,-0.1575 0.32625,-0.1688 0.52875,-0.45 0.2025,-0.2925 0.2925,-0.675 0.09,-0.3938 0.09,-0.8438 z m 1.09125,0 q 0,0.6638 -0.18,1.2263 -0.16875,0.5625 -0.50625,0.9675 -0.3375,0.405 -0.8325,0.63 -0.48375,0.225 -1.11375,0.225 -0.50625,0 -0.9,-0.135 -0.3825,-0.135 -0.57375,-0.2588 l 0,2.34 -1.04625,0 0,-7.7512 q 0.37125,-0.09 0.9225,-0.1913 0.5625,-0.1125 1.29375,-0.1125 0.675,0 1.215,0.2138 0.54,0.2137 0.9225,0.6075 0.3825,0.3937 0.585,0.9675 0.21375,0.5625 0.21375,1.2712 z"
         style="font-style:normal;font-variant:normal;font-weight:normal;font-stretch:normal;font-size:11.25px;font-family:Ubuntu;-inkscape-font-specification:Ubuntu"
         id="path4519"
         inkscape:connector-curvature="0" />
      <path
         d="m 248.00614,-1040.5568 -1.04625,0 0,-5.85 1.04625,0 0,5.85 z m -0.52875,-6.9075 q -0.28125,0 -0.48375,-0.18 -0.19125,-0.1913 -0.19125,-0.5063 0,-0.315 0.19125,-0.495 0.2025,-0.1912 0.48375,-0.1912 0.28125,0 0.4725,0.1912 0.2025,0.18 0.2025,0.495 0,0.315 -0.2025,0.5063 -0.19125,0.18 -0.4725,0.18 z"
         style="font-style:normal;font-variant:normal;font-weight:normal;font-stretch:normal;font-size:11.25px;font-family:Ubuntu;-inkscape-font-specification:Ubuntu"
         id="path4521"
         inkscape:connector-curvature="0" />
      <path
         d="m 249.81633,-1046.2381 q 0.36,-0.09 0.95625,-0.1912 0.59625,-0.1013 1.3725,-0.1013 0.6975,0 1.15875,0.2025 0.46125,0.1913 0.73125,0.5513 0.28125,0.3487 0.39375,0.8437 0.1125,0.495 0.1125,1.0913 l 0,3.285 -1.04625,0 0,-3.06 q 0,-0.54 -0.0788,-0.9225 -0.0675,-0.3825 -0.23625,-0.6188 -0.16875,-0.2362 -0.45,-0.3375 -0.28125,-0.1125 -0.6975,-0.1125 -0.16875,0 -0.34875,0.011 -0.18,0.011 -0.34875,0.034 -0.1575,0.011 -0.2925,0.034 -0.12375,0.022 -0.18,0.034 l 0,4.9388 -1.04625,0 0,-5.6813 z"
         style="font-style:normal;font-variant:normal;font-weight:normal;font-stretch:normal;font-size:11.25px;font-family:Ubuntu;-inkscape-font-specification:Ubuntu"
         id="path4523"
         inkscape:connector-curvature="0" />
      <path
         d="m 258.25629,-1041.3106 q 0.37125,0 0.6525,-0.011 0.2925,-0.023 0.48375,-0.068 l 0,-1.7438 q -0.1125,-0.056 -0.37125,-0.09 -0.2475,-0.045 -0.6075,-0.045 -0.23625,0 -0.50625,0.034 -0.25875,0.034 -0.48375,0.1462 -0.21375,0.1013 -0.36,0.2925 -0.14625,0.18 -0.14625,0.4838 0,0.5625 0.36,0.7875 0.36,0.2137 0.97875,0.2137 z m -0.09,-5.2425 q 0.63,0 1.0575,0.1688 0.43875,0.1575 0.6975,0.4612 0.27,0.2925 0.3825,0.7088 0.1125,0.405 0.1125,0.9 l 0,3.6562 q -0.135,0.023 -0.3825,0.068 -0.23625,0.034 -0.54,0.067 -0.30375,0.034 -0.66375,0.056 -0.34875,0.034 -0.6975,0.034 -0.495,0 -0.91125,-0.1012 -0.41625,-0.1013 -0.72,-0.315 -0.30375,-0.225 -0.4725,-0.585 -0.16875,-0.36 -0.16875,-0.8663 0,-0.4837 0.19125,-0.8325 0.2025,-0.3487 0.54,-0.5625 0.3375,-0.2137 0.7875,-0.315 0.45,-0.1012 0.945,-0.1012 0.1575,0 0.32625,0.022 0.16875,0.011 0.315,0.045 0.1575,0.023 0.27,0.045 0.1125,0.023 0.1575,0.034 l 0,-0.2925 q 0,-0.2587 -0.0562,-0.5062 -0.0563,-0.2588 -0.2025,-0.45 -0.14625,-0.2025 -0.405,-0.315 -0.2475,-0.1238 -0.6525,-0.1238 -0.5175,0 -0.91125,0.079 -0.3825,0.067 -0.57375,0.1462 l -0.12375,-0.8662 q 0.2025,-0.09 0.675,-0.1688 0.4725,-0.09 1.02375,-0.09 z"
         style="font-style:normal;font-variant:normal;font-weight:normal;font-stretch:normal;font-size:11.25px;font-family:Ubuntu;-inkscape-font-specification:Ubuntu"
         id="path4525"
         inkscape:connector-curvature="0" />
      <path
         d="m 263.50424,-1041.3106 q 0.64125,0 0.945,-0.1687 0.315,-0.1688 0.315,-0.54 0,-0.3825 -0.30375,-0.6075 -0.30375,-0.225 -1.00125,-0.5063 -0.3375,-0.135 -0.6525,-0.27 -0.30375,-0.1462 -0.52875,-0.3375 -0.225,-0.1912 -0.36,-0.4612 -0.135,-0.27 -0.135,-0.6638 0,-0.7762 0.57375,-1.2262 0.57375,-0.4613 1.56375,-0.4613 0.2475,0 0.495,0.034 0.2475,0.023 0.46125,0.067 0.21375,0.034 0.37125,0.079 0.16875,0.045 0.25875,0.079 l -0.19125,0.9 q -0.16875,-0.09 -0.52875,-0.18 -0.36,-0.1013 -0.86625,-0.1013 -0.43875,0 -0.765,0.18 -0.32625,0.1688 -0.32625,0.54 0,0.1913 0.0675,0.3375 0.0787,0.1463 0.225,0.27 0.1575,0.1125 0.3825,0.2138 0.225,0.1012 0.54,0.2137 0.41625,0.1575 0.7425,0.315 0.32625,0.1463 0.55125,0.3488 0.23625,0.2025 0.36,0.495 0.12375,0.2812 0.12375,0.6975 0,0.81 -0.6075,1.2262 -0.59625,0.4163 -1.71,0.4163 -0.77625,0 -1.215,-0.135 -0.43875,-0.1238 -0.59625,-0.1913 l 0.19125,-0.9 q 0.18,0.068 0.57375,0.2025 0.39375,0.135 1.04625,0.135 z"
         style="font-style:normal;font-variant:normal;font-weight:normal;font-stretch:normal;font-size:11.25px;font-family:Ubuntu;-inkscape-font-specification:Ubuntu"
         id="path4527"
         inkscape:connector-curvature="0" />
    </g>
  </g>
</svg>
