<?xml version="1.0" encoding="UTF-8" standalone="no"?>
<!-- Created with Inkscape (http://www.inkscape.org/) -->

<svg
   xmlns:dc="http://purl.org/dc/elements/1.1/"
   xmlns:cc="http://creativecommons.org/ns#"
   xmlns:rdf="http://www.w3.org/1999/02/22-rdf-syntax-ns#"
   xmlns:svg="http://www.w3.org/2000/svg"
   xmlns="http://www.w3.org/2000/svg"
   xmlns:sodipodi="http://sodipodi.sourceforge.net/DTD/sodipodi-0.dtd"
   xmlns:inkscape="http://www.inkscape.org/namespaces/inkscape"
   width="131.11378"
   height="107.81897"
   viewBox="0 0 131.11378 107.81897"
   id="svg4405"
   version="1.1"
   inkscape:version="0.91 r13725"
   sodipodi:docname="logo_noborder.svg">
  <defs
     id="defs4407" />
  <sodipodi:namedview
     id="base"
     pagecolor="#ffffff"
     bordercolor="#666666"
     borderopacity="1.0"
     inkscape:pageopacity="0.0"
     inkscape:pageshadow="2"
     inkscape:zoom="4.8153226"
     inkscape:cx="4.7229287"
     inkscape:cy="48.594017"
     inkscape:document-units="px"
     inkscape:current-layer="layer1"
     showgrid="false"
     inkscape:window-width="1920"
     inkscape:window-height="1026"
     inkscape:window-x="0"
     inkscape:window-y="0"
     inkscape:window-maximized="1"
     units="px"
     fit-margin-top="0"
     fit-margin-left="0"
     fit-margin-right="0"
     fit-margin-bottom="0" />
  <metadata
     id="metadata4410">
    <rdf:RDF>
      <cc:Work
         rdf:about="">
        <dc:format>image/svg+xml</dc:format>
        <dc:type
           rdf:resource="http://purl.org/dc/dcmitype/StillImage" />
        <dc:title />
      </cc:Work>
    </rdf:RDF>
  </metadata>
  <g
     inkscape:label="Layer 1"
     inkscape:groupmode="layer"
     id="layer1"
     transform="translate(-371.68806,-159.26684)">
    <g
       id="g5709"
       transform="matrix(1.3020043,0,0,1.3020043,-129.75153,-61.348258)"
       inkscape:export-xdpi="686.15021"
       inkscape:export-ydpi="686.15021">
      <path
         inkscape:connector-curvature="0"
         id="path76"
         style="fill:none;stroke:#000000;stroke-width:1.01433754;stroke-linecap:butt;stroke-linejoin:miter;stroke-miterlimit:4;stroke-dasharray:none;stroke-opacity:1"
         d="m 400.58769,226.49477 c 16.89876,-13.18776 53.8712,-14.28986 69.78555,0" />
      <path
         inkscape:connector-curvature="0"
         id="path80"
         style="fill:#008000;fill-opacity:1;fill-rule:nonzero;stroke:#000000;stroke-width:1.01433754;stroke-linecap:butt;stroke-linejoin:miter;stroke-miterlimit:4;stroke-dasharray:none;stroke-opacity:1"
         d="m 435.49478,170.64291 c -6.54967,14.04889 -22.2573,30.92338 0,36.88277 22.25731,-5.95939 6.5503,-22.83388 0,-36.88277 z" />
      <path
         inkscape:connector-curvature="0"
         id="path84"
         style="fill:none;stroke:#000000;stroke-width:1.01433754;stroke-linecap:butt;stroke-linejoin:miter;stroke-miterlimit:4;stroke-dasharray:none;stroke-opacity:1"
         d="m 435.49478,216.02114 0,-8.49546" />
      <path
         inkscape:connector-curvature="0"
         id="path88"
         style="fill:#008000;fill-opacity:1;fill-rule:nonzero;stroke:#000000;stroke-width:1.01593459;stroke-linecap:butt;stroke-linejoin:miter;stroke-miterlimit:4;stroke-dasharray:none;stroke-opacity:1"
         d="m 458.57212,190.30501 c -4.21784,9.04588 -14.33344,19.91551 0,23.75354 14.33282,-3.83803 4.21722,-14.70766 0,-23.75354 z" />
      <path
         inkscape:connector-curvature="0"
         id="path92"
         style="fill:none;stroke:#000000;stroke-width:1.01593459;stroke-linecap:butt;stroke-linejoin:miter;stroke-miterlimit:4;stroke-dasharray:none;stroke-opacity:1"
         d="m 458.57212,219.52854 0,-5.46999" />
      <path
         inkscape:connector-curvature="0"
         id="path96"
         style="fill:#37c837;fill-opacity:1;fill-rule:nonzero;stroke:#000000;stroke-width:1.01593459;stroke-linecap:butt;stroke-linejoin:miter;stroke-miterlimit:4;stroke-dasharray:none;stroke-opacity:1"
         d="m 413.53884,190.30501 c -4.21722,9.04588 -14.33282,19.91551 0,23.75354 14.33344,-3.83803 4.21784,-14.70766 0,-23.75354 z" />
      <path
         inkscape:connector-curvature="0"
         id="path100"
         style="fill:none;stroke:#000000;stroke-width:1.01593459;stroke-linecap:butt;stroke-linejoin:miter;stroke-miterlimit:4;stroke-dasharray:none;stroke-opacity:1"
         d="m 413.53884,219.52854 0,-5.46999" />
      <path
         inkscape:connector-curvature="0"
         d="m 385.12898,245.25948 0,-11.16153 1.25393,0 0,9.9076 9.89212,0 0,1.25393 -11.14605,0 z"
         id="path5240"
         style="font-variant:normal;font-weight:normal;font-size:medium;font-family:Orbitron;-inkscape-font-specification:Orbitron-Regular;writing-mode:lr-tb;fill:#000000;fill-opacity:1;fill-rule:nonzero;stroke:none" />
      <path
         inkscape:connector-curvature="0"
         d="m 404.37141,236.28072 q 0.78951,0 1.33134,0.5573 0.5573,0.54182 0.5573,1.31585 l 0,7.10561 -7.2759,0 q -0.77403,0 -1.33133,-0.54182 -0.54182,-0.5573 -0.54182,-1.33134 l 0,-3.25093 7.86416,0 0,-1.98152 q 0,-0.24769 -0.18577,-0.41797 -0.17029,-0.18577 -0.41798,-0.18577 l -7.26041,0 0,-1.26941 7.26041,0 z m 0.60375,7.70935 0,-2.58527 -6.59475,0 0,1.98152 q 0,0.24769 0.17029,0.43346 0.18576,0.17029 0.43345,0.17029 l 5.99101,0 z"
         id="path5242"
         style="font-variant:normal;font-weight:normal;font-size:medium;font-family:Orbitron;-inkscape-font-specification:Orbitron-Regular;writing-mode:lr-tb;fill:#000000;fill-opacity:1;fill-rule:nonzero;stroke:none" />
      <path
         inkscape:connector-curvature="0"
         d="m 418.96965,244.00555 1.5171,0 0,1.25393 -10.74355,0 q -0.77404,0 -1.31586,-0.54182 -0.54182,-0.54182 -0.54182,-1.31586 l 0,-7.4307 q 0,-0.77403 0.54182,-1.31585 0.54182,-0.54182 1.31586,-0.54182 l 7.4307,0 q 0.77403,0 1.31585,0.54182 0.54182,0.54182 0.54182,1.31585 l 0,7.4307 q 0,0.13933 -0.0619,0.60375 z m -9.22645,0 7.4307,0 q 0.24769,0 0.41797,-0.17029 0.18577,-0.18577 0.18577,-0.43346 l 0,-7.4307 q 0,-0.24769 -0.18577,-0.41797 -0.17028,-0.18577 -0.41797,-0.18577 l -7.4307,0 q -0.24769,0 -0.43346,0.18577 -0.17029,0.17028 -0.17029,0.41797 l 0,7.4307 q 0,0.24769 0.17029,0.43346 0.18577,0.17029 0.43346,0.17029 z"
         id="path5244"
         style="font-variant:normal;font-weight:normal;font-size:medium;font-family:Orbitron;-inkscape-font-specification:Orbitron-Regular;writing-mode:lr-tb;fill:#000000;fill-opacity:1;fill-rule:nonzero;stroke:none" />
      <path
         inkscape:connector-curvature="0"
         d="m 429.43455,236.28072 1.26942,0 0,7.1056 q 0,0.77404 -0.55731,1.33134 -0.54182,0.54182 -1.33133,0.54182 l -5.38726,0 q -0.77403,0 -1.33133,-0.54182 -0.54182,-0.5573 -0.54182,-1.33134 l 0,-7.1056 1.26941,0 0,7.1056 q 0,0.24769 0.17028,0.43346 0.18577,0.17029 0.43346,0.17029 l 5.38726,0 q 0.24769,0 0.43346,-0.17029 0.18576,-0.18577 0.18576,-0.43346 l 0,-7.1056 z"
         id="path5246"
         style="font-variant:normal;font-weight:normal;font-size:medium;font-family:Orbitron;-inkscape-font-specification:Orbitron-Regular;writing-mode:lr-tb;fill:#000000;fill-opacity:1;fill-rule:nonzero;stroke:none" />
      <path
         inkscape:connector-curvature="0"
         d="m 432.29847,245.25948 0,-8.97876 1.26941,0 0,8.97876 -1.26941,0 z m 0,-11.92008 1.26941,0 0,1.26941 -1.26941,0 0,-1.26941 z"
         id="path5248"
         style="font-variant:normal;font-weight:normal;font-size:medium;font-family:Orbitron;-inkscape-font-specification:Orbitron-Regular;writing-mode:lr-tb;fill:#000000;fill-opacity:1;fill-rule:nonzero;stroke:none" />
      <path
         inkscape:connector-curvature="0"
         d="m 441.92742,239.62453 4.62871,-5.5111 1.71834,0 0,11.14605 -1.25393,0 0,-9.72183 -5.09312,6.05292 -5.09313,-6.05292 0,9.72183 -1.25393,0 0,-11.14605 1.71835,0 4.62871,5.5111 z"
         id="path5250"
         style="font-variant:normal;font-weight:normal;font-size:medium;font-family:Orbitron;-inkscape-font-specification:Orbitron-Regular;writing-mode:lr-tb;fill:#000000;fill-opacity:1;fill-rule:nonzero;stroke:none" />
      <path
         inkscape:connector-curvature="0"
         d="m 451.74214,236.28072 5.38726,0 q 0.78951,0 1.33133,0.5573 0.55731,0.54182 0.55731,1.31585 l 0,5.23245 q 0,0.77404 -0.55731,1.33134 -0.54182,0.54182 -1.33133,0.54182 l -5.38726,0 q -0.77403,0 -1.33133,-0.54182 -0.54182,-0.5573 -0.54182,-1.33134 l 0,-5.23245 q 0,-0.77403 0.54182,-1.31585 0.5573,-0.5573 1.33133,-0.5573 z m 5.38726,1.26941 -5.38726,0 q -0.24769,0 -0.43346,0.18577 -0.17028,0.17028 -0.17028,0.41797 l 0,5.23245 q 0,0.24769 0.17028,0.43346 0.18577,0.17029 0.43346,0.17029 l 5.38726,0 q 0.24769,0 0.41798,-0.17029 0.18576,-0.18577 0.18576,-0.43346 l 0,-5.23245 q 0,-0.24769 -0.18576,-0.41797 -0.17029,-0.18577 -0.41798,-0.18577 z"
         id="path5252"
         style="font-variant:normal;font-weight:normal;font-size:medium;font-family:Orbitron;-inkscape-font-specification:Orbitron-Regular;writing-mode:lr-tb;fill:#000000;fill-opacity:1;fill-rule:nonzero;stroke:none" />
      <path
         inkscape:connector-curvature="0"
         d="m 471.17032,239.16011 0.0619,0.26317 q 0.61923,0.57279 0.61923,1.37778 l 0,2.60074 q 0,0.77404 -0.54182,1.31586 -0.54183,0.54182 -1.31586,0.54182 l -9.28837,0 0,-11.14605 8.80847,0 q 0.77403,0 1.31586,0.54182 0.54182,0.54182 0.54182,1.31585 l 0,2.36854 q 0,0.41798 -0.20125,0.82047 z m -1.65643,-3.79275 -6.9508,0 q -0.24769,0 -0.43346,0.18577 -0.17028,0.17028 -0.17028,0.41797 l 0,2.36854 q 0,0.24769 0.17028,0.43346 0.18577,0.17028 0.43346,0.17028 l 6.9508,0 q 0.24769,0 0.41798,-0.17028 0.17029,-0.18577 0.17029,-0.43346 l 0,-2.36854 q 0,-0.24769 -0.17029,-0.41797 -0.17029,-0.18577 -0.41798,-0.18577 z m 1.08365,8.03444 0,-2.60074 q 0,-0.24769 -0.18577,-0.41798 -0.17029,-0.18576 -0.41798,-0.18576 l -7.4307,0 q -0.24769,0 -0.43346,0.18576 -0.17028,0.17029 -0.17028,0.41798 l 0,2.60074 q 0,0.24769 0.17028,0.43346 0.18577,0.17029 0.43346,0.17029 l 7.4307,0 q 0.24769,0 0.41798,-0.17029 0.18577,-0.18577 0.18577,-0.43346 z"
         id="path5254"
         style="font-variant:normal;font-weight:normal;font-size:medium;font-family:Orbitron;-inkscape-font-specification:Orbitron-Regular;writing-mode:lr-tb;fill:#000000;fill-opacity:1;fill-rule:nonzero;stroke:none" />
      <path
         inkscape:connector-curvature="0"
         d="m 473.47693,245.25948 0,-8.97876 1.26942,0 0,8.97876 -1.26942,0 z m 0,-11.92008 1.26942,0 0,1.26941 -1.26942,0 0,-1.26941 z"
         id="path5256"
         style="font-variant:normal;font-weight:normal;font-size:medium;font-family:Orbitron;-inkscape-font-specification:Orbitron-Regular;writing-mode:lr-tb;fill:#000000;fill-opacity:1;fill-rule:nonzero;stroke:none" />
      <path
         inkscape:connector-curvature="0"
         d="m 478.55458,236.28072 5.38726,0 q 0.78951,0 1.33133,0.5573 0.55731,0.54182 0.55731,1.31585 l 0,5.23245 q 0,0.77404 -0.55731,1.33134 -0.54182,0.54182 -1.33133,0.54182 l -5.38726,0 q -0.77403,0 -1.33133,-0.54182 -0.54182,-0.5573 -0.54182,-1.33134 l 0,-5.23245 q 0,-0.77403 0.54182,-1.31585 0.5573,-0.5573 1.33133,-0.5573 z m 5.38726,1.26941 -5.38726,0 q -0.24769,0 -0.43346,0.18577 -0.17028,0.17028 -0.17028,0.41797 l 0,5.23245 q 0,0.24769 0.17028,0.43346 0.18577,0.17029 0.43346,0.17029 l 5.38726,0 q 0.24769,0 0.41798,-0.17029 0.18576,-0.18577 0.18576,-0.43346 l 0,-5.23245 q 0,-0.24769 -0.18576,-0.41797 -0.17029,-0.18577 -0.41798,-0.18577 z"
         id="path5258"
         style="font-variant:normal;font-weight:normal;font-size:medium;font-family:Orbitron;-inkscape-font-specification:Orbitron-Regular;writing-mode:lr-tb;fill:#000000;fill-opacity:1;fill-rule:nonzero;stroke:none" />
      <path
         d="m 476.9594,251.45034 -81.68321,0"
         style="fill:#ffffff;fill-opacity:1;fill-rule:nonzero;stroke:#008000;stroke-width:1.60466373;stroke-linecap:butt;stroke-linejoin:miter;stroke-miterlimit:4;stroke-dasharray:none;stroke-opacity:1"
         id="path5550"
         inkscape:connector-curvature="0"
         sodipodi:nodetypes="cc" />
    </g>
  </g>
</svg>
