<?xml version="1.0" encoding="UTF-8" standalone="no"?>
<!-- Created with Inkscape (http://www.inkscape.org/) -->

<svg
   xmlns:dc="http://purl.org/dc/elements/1.1/"
   xmlns:cc="http://creativecommons.org/ns#"
   xmlns:rdf="http://www.w3.org/1999/02/22-rdf-syntax-ns#"
   xmlns:svg="http://www.w3.org/2000/svg"
   xmlns="http://www.w3.org/2000/svg"
   xmlns:sodipodi="http://sodipodi.sourceforge.net/DTD/sodipodi-0.dtd"
   xmlns:inkscape="http://www.inkscape.org/namespaces/inkscape"
   width="113.53387mm"
   height="108.60603mm"
   viewBox="0 0 402.28536 384.82453"
   id="svg4365"
   version="1.1"
   inkscape:version="0.91 r13725"
   sodipodi:docname="logo_complete.svg">
  <defs
     id="defs4367" />
  <sodipodi:namedview
     id="base"
     pagecolor="#ffffff"
     bordercolor="#666666"
     borderopacity="1.0"
     inkscape:pageopacity="0.0"
     inkscape:pageshadow="2"
     inkscape:zoom="1.1859929"
     inkscape:cx="67.806636"
     inkscape:cy="169.64891"
     inkscape:document-units="px"
     inkscape:current-layer="layer1"
     showgrid="false"
     fit-margin-top="0"
     fit-margin-left="0"
     fit-margin-right="0"
     fit-margin-bottom="0"
     inkscape:window-width="1920"
     inkscape:window-height="1026"
     inkscape:window-x="0"
     inkscape:window-y="0"
     inkscape:window-maximized="1" />
  <metadata
     id="metadata4370">
    <rdf:RDF>
      <cc:Work
         rdf:about="">
        <dc:format>image/svg+xml</dc:format>
        <dc:type
           rdf:resource="http://purl.org/dc/dcmitype/StillImage" />
        <dc:title></dc:title>
      </cc:Work>
    </rdf:RDF>
  </metadata>
  <g
     inkscape:label="Layer 1"
     inkscape:groupmode="layer"
     id="layer1"
     transform="translate(-216.47908,-108.61515)">
    <g
       id="g5049">
      <path
         inkscape:connector-curvature="0"
         id="path72"
         style="fill:#ffffff;fill-opacity:1;fill-rule:nonzero;stroke:#008000;stroke-width:5.6669836;stroke-linecap:butt;stroke-linejoin:miter;stroke-miterlimit:4;stroke-dasharray:none;stroke-opacity:1"
         d="m 286.65905,111.44864 261.92526,0 c 37.30492,0 67.34664,30.03376 67.34664,67.34656 l 0,244.46444 c 0,37.3128 -30.04172,67.34655 -67.34664,67.34655 l -261.92526,0 c -37.31284,0 -67.34648,-30.03375 -67.34648,-67.34655 l 0,-244.46444 c 0,-37.3128 30.03364,-67.34656 67.34648,-67.34656 z" />
      <path
         inkscape:connector-curvature="0"
         id="path76"
         style="fill:none;stroke:#000000;stroke-width:3.25679541;stroke-linecap:butt;stroke-linejoin:miter;stroke-miterlimit:4;stroke-dasharray:none;stroke-opacity:1"
         d="m 305.54354,314.05409 c 54.25767,-42.34275 172.96756,-45.88132 224.06459,0" />
      <path
         inkscape:connector-curvature="0"
         id="path80"
         style="fill:#008000;fill-opacity:1;fill-rule:nonzero;stroke:#000000;stroke-width:3.25679541;stroke-linecap:butt;stroke-linejoin:miter;stroke-miterlimit:4;stroke-dasharray:none;stroke-opacity:1"
         d="m 417.62168,134.72715 c -21.02944,45.10762 -71.46279,99.28757 0,118.42176 71.46281,-19.13419 21.03133,-73.31414 0,-118.42176 z" />
      <path
         inkscape:connector-curvature="0"
         id="path84"
         style="fill:none;stroke:#000000;stroke-width:3.25679541;stroke-linecap:butt;stroke-linejoin:miter;stroke-miterlimit:4;stroke-dasharray:none;stroke-opacity:1"
         d="m 417.62168,280.42578 0,-27.27687" />
      <path
         inkscape:connector-curvature="0"
         id="path88"
         style="fill:#008000;fill-opacity:1;fill-rule:nonzero;stroke:#000000;stroke-width:3.26192355;stroke-linecap:butt;stroke-linejoin:miter;stroke-miterlimit:4;stroke-dasharray:none;stroke-opacity:1"
         d="m 491.71764,197.85745 c -13.54271,29.04414 -46.02125,63.94394 0,76.26693 46.01898,-12.32299 13.54046,-47.22279 0,-76.26693 z" />
      <path
         inkscape:connector-curvature="0"
         id="path92"
         style="fill:none;stroke:#000000;stroke-width:3.26192355;stroke-linecap:butt;stroke-linejoin:miter;stroke-miterlimit:4;stroke-dasharray:none;stroke-opacity:1"
         d="m 491.71764,291.68721 0,-17.56283" />
      <path
         inkscape:connector-curvature="0"
         id="path96"
         style="fill:#37c837;fill-opacity:1;fill-rule:nonzero;stroke:#000000;stroke-width:3.26192355;stroke-linecap:butt;stroke-linejoin:miter;stroke-miterlimit:4;stroke-dasharray:none;stroke-opacity:1"
         d="m 347.12627,197.85745 c -13.54046,29.04414 -46.01898,63.94394 0,76.26693 46.02125,-12.32299 13.54272,-47.22279 0,-76.26693 z" />
      <path
         inkscape:connector-curvature="0"
         id="path100"
         style="fill:none;stroke:#000000;stroke-width:3.26192355;stroke-linecap:butt;stroke-linejoin:miter;stroke-miterlimit:4;stroke-dasharray:none;stroke-opacity:1"
         d="m 347.12627,291.68721 0,-17.56283" />
      <g
         id="text102"
         style="font-variant:normal;font-weight:normal;font-size:49.70458984px;font-family:Orbitron;-inkscape-font-specification:Orbitron-Regular;writing-mode:lr-tb;fill:#000000;fill-opacity:1;fill-rule:nonzero;stroke:none">
        <path
           id="path4946"
           d="m 255.90926,374.30304 0,-35.83701 4.02607,0 0,31.81094 31.76123,0 0,4.02607 -35.7873,0 z"
           inkscape:connector-curvature="0" />
        <path
           id="path4948"
           d="m 317.69217,345.47438 q 2.53494,0 4.2746,1.78936 1.78936,1.73966 1.78936,4.22489 l 0,22.81441 -23.36115,0 q -2.48523,0 -4.2746,-1.73966 -1.73966,-1.78937 -1.73966,-4.2746 l 0,-10.43796 25.24993,0 0,-6.36219 q 0,-0.79527 -0.59645,-1.34202 -0.54675,-0.59646 -1.34203,-0.59646 l -23.31145,0 0,-4.07577 23.31145,0 z m 1.93848,24.75288 0,-8.30066 -21.17415,0 0,6.36218 q 0,0.79528 0.54675,1.39173 0.59645,0.54675 1.39173,0.54675 l 19.23567,0 z"
           inkscape:connector-curvature="0" />
        <path
           id="path4950"
           d="m 364.56334,370.27697 4.87105,0 0,4.02607 -34.49499,0 q -2.48523,0 -4.22489,-1.73966 -1.73966,-1.73966 -1.73966,-4.22489 l 0,-23.8582 q 0,-2.48523 1.73966,-4.22489 1.73966,-1.73967 4.22489,-1.73967 l 23.8582,0 q 2.48523,0 4.22489,1.73967 1.73966,1.73966 1.73966,4.22489 l 0,23.8582 q 0,0.44734 -0.19881,1.93848 z m -29.62394,0 23.8582,0 q 0.79528,0 1.34203,-0.54675 0.59645,-0.59646 0.59645,-1.39173 l 0,-23.8582 q 0,-0.79528 -0.59645,-1.34203 -0.54675,-0.59645 -1.34203,-0.59645 l -23.8582,0 q -0.79527,0 -1.39173,0.59645 -0.54675,0.54675 -0.54675,1.34203 l 0,23.8582 q 0,0.79527 0.54675,1.39173 0.59646,0.54675 1.39173,0.54675 z"
           inkscape:connector-curvature="0" />
        <path
           id="path4952"
           d="m 398.1639,345.47438 4.07578,0 0,22.8144 q 0,2.48523 -1.78937,4.2746 -1.73966,1.73966 -4.27459,1.73966 l -17.2972,0 q -2.48523,0 -4.2746,-1.73966 -1.73966,-1.78937 -1.73966,-4.2746 l 0,-22.8144 4.07578,0 0,22.8144 q 0,0.79528 0.54675,1.39173 0.59645,0.54675 1.39173,0.54675 l 17.2972,0 q 0.79527,0 1.39172,-0.54675 0.59646,-0.59645 0.59646,-1.39173 l 0,-22.8144 z"
           inkscape:connector-curvature="0" />
        <path
           id="path4954"
           d="m 407.35902,374.30304 0,-28.82866 4.07578,0 0,28.82866 -4.07578,0 z m 0,-38.27253 4.07578,0 0,4.07577 -4.07578,0 0,-4.07577 z"
           inkscape:connector-curvature="0" />
        <path
           id="path4956"
           d="m 438.27556,356.21057 14.86167,-17.69484 5.51721,0 0,35.78731 -4.02607,0 0,-31.21448 -16.35281,19.43449 -16.35281,-19.43449 0,31.21448 -4.02607,0 0,-35.78731 5.51721,0 14.86167,17.69484 z"
           inkscape:connector-curvature="0" />
        <path
           id="path4958"
           d="m 469.78781,345.47438 17.29719,0 q 2.53494,0 4.2746,1.78936 1.78936,1.73966 1.78936,4.22489 l 0,16.80015 q 0,2.48523 -1.78936,4.2746 -1.73966,1.73966 -4.2746,1.73966 l -17.29719,0 q -2.48523,0 -4.2746,-1.73966 -1.73966,-1.78937 -1.73966,-4.2746 l 0,-16.80015 q 0,-2.48523 1.73966,-4.22489 1.78937,-1.78936 4.2746,-1.78936 z m 17.29719,4.07577 -17.29719,0 q -0.79528,0 -1.39173,0.59646 -0.54675,0.54675 -0.54675,1.34202 l 0,16.80015 q 0,0.79528 0.54675,1.39173 0.59645,0.54675 1.39173,0.54675 l 17.29719,0 q 0.79528,0 1.34203,-0.54675 0.59645,-0.59645 0.59645,-1.39173 l 0,-16.80015 q 0,-0.79527 -0.59645,-1.34202 -0.54675,-0.59646 -1.34203,-0.59646 z"
           inkscape:connector-curvature="0" />
        <path
           id="path4960"
           d="m 532.16721,354.71943 0.19882,0.84498 q 1.98818,1.83907 1.98818,4.42371 l 0,8.35037 q 0,2.48523 -1.73966,4.22489 -1.73966,1.73966 -4.22489,1.73966 l -29.82275,0 0,-35.78731 28.28191,0 q 2.48523,0 4.22489,1.73967 1.73966,1.73966 1.73966,4.22489 l 0,7.6048 q 0,1.34202 -0.64616,2.63434 z m -5.31839,-12.17762 -22.31736,0 q -0.79527,0 -1.39173,0.59645 -0.54675,0.54675 -0.54675,1.34203 l 0,7.6048 q 0,0.79527 0.54675,1.39173 0.59646,0.54675 1.39173,0.54675 l 22.31736,0 q 0.79527,0 1.34202,-0.54675 0.54676,-0.59646 0.54676,-1.39173 l 0,-7.6048 q 0,-0.79528 -0.54676,-1.34203 -0.54675,-0.59645 -1.34202,-0.59645 z m 3.47932,25.79668 0,-8.35037 q 0,-0.79528 -0.59645,-1.34203 -0.54675,-0.59645 -1.34203,-0.59645 l -23.8582,0 q -0.79527,0 -1.39173,0.59645 -0.54675,0.54675 -0.54675,1.34203 l 0,8.35037 q 0,0.79527 0.54675,1.39173 0.59646,0.54675 1.39173,0.54675 l 23.8582,0 q 0.79528,0 1.34203,-0.54675 0.59645,-0.59646 0.59645,-1.39173 z"
           inkscape:connector-curvature="0" />
        <path
           id="path4962"
           d="m 539.57341,374.30304 0,-28.82866 4.07577,0 0,28.82866 -4.07577,0 z m 0,-38.27253 4.07577,0 0,4.07577 -4.07577,0 0,-4.07577 z"
           inkscape:connector-curvature="0" />
        <path
           id="path4964"
           d="m 555.87677,345.47438 17.29719,0 q 2.53494,0 4.2746,1.78936 1.78936,1.73966 1.78936,4.22489 l 0,16.80015 q 0,2.48523 -1.78936,4.2746 -1.73966,1.73966 -4.2746,1.73966 l -17.29719,0 q -2.48523,0 -4.2746,-1.73966 -1.73966,-1.78937 -1.73966,-4.2746 l 0,-16.80015 q 0,-2.48523 1.73966,-4.22489 1.78937,-1.78936 4.2746,-1.78936 z m 17.29719,4.07577 -17.29719,0 q -0.79528,0 -1.39173,0.59646 -0.54675,0.54675 -0.54675,1.34202 l 0,16.80015 q 0,0.79528 0.54675,1.39173 0.59645,0.54675 1.39173,0.54675 l 17.29719,0 q 0.79528,0 1.34203,-0.54675 0.59645,-0.59645 0.59645,-1.39173 l 0,-16.80015 q 0,-0.79527 -0.59645,-1.34202 -0.54675,-0.59646 -1.34203,-0.59646 z"
           inkscape:connector-curvature="0" />
      </g>
      <path
         inkscape:connector-curvature="0"
         id="path108"
         style="fill:none;stroke:#008000;stroke-width:4.33524179;stroke-linecap:butt;stroke-linejoin:miter;stroke-miterlimit:4;stroke-dasharray:none;stroke-opacity:1"
         d="m 277.93669,397.18426 279.37,0" />
      <g
         id="text110"
         style="font-variant:normal;font-weight:normal;font-size:19.73895454px;font-family:Orbitron;-inkscape-font-specification:Orbitron-Regular;writing-mode:lr-tb;fill:#000000;fill-opacity:1;fill-rule:nonzero;stroke:none">
        <path
           id="path4967"
           d="m 292.86453,430.14581 0,-14.23178 1.59886,0 0,12.63293 12.61319,0 0,1.59885 -14.21205,0 z"
           inkscape:connector-curvature="0" />
        <path
           id="path4969"
           d="m 317.39996,418.69722 q 1.00669,0 1.69755,0.7106 0.7106,0.69087 0.7106,1.67781 l 0,9.06018 -9.2773,0 q -0.98695,0 -1.69755,-0.69086 -0.69087,-0.7106 -0.69087,-1.69755 l 0,-4.14518 10.02739,0 0,-2.52659 q 0,-0.31582 -0.23687,-0.53295 -0.21712,-0.23687 -0.53295,-0.23687 l -9.25757,0 0,-1.61859 9.25757,0 z m 0.76982,9.83 0,-3.29641 -8.40879,0 0,2.52659 q 0,0.31582 0.21713,0.55269 0.23686,0.21713 0.55269,0.21713 l 7.63897,0 z"
           inkscape:connector-curvature="0" />
        <path
           id="path4971"
           d="m 330.64479,418.69722 q 0.98694,0 1.67781,0.7106 0.7106,0.69087 0.7106,1.67781 l 0,6.67177 q 0,0.98695 -0.7106,1.69755 -0.69087,0.69086 -1.67781,0.69086 l -9.27731,0 0,-15.19899 1.61859,0 0,3.7504 7.65872,0 z m 0.76982,9.06018 0,-6.67177 q 0,-0.31582 -0.23687,-0.53295 -0.21713,-0.23687 -0.53295,-0.23687 l -6.86916,0 q -0.31582,0 -0.55269,0.23687 -0.23687,0.21713 -0.23687,0.53295 l 0,6.67177 q 0,0.31582 0.23687,0.55269 0.23687,0.21713 0.55269,0.21713 l 6.86916,0 q 0.31582,0 0.53295,-0.21713 0.23687,-0.23687 0.23687,-0.55269 z"
           inkscape:connector-curvature="0" />
        <path
           id="path4973"
           d="m 336.86248,418.69722 6.86915,0 q 1.00669,0 1.69755,0.7106 0.71061,0.69087 0.71061,1.67781 l 0,6.67177 q 0,0.98695 -0.71061,1.69755 -0.69086,0.69086 -1.69755,0.69086 l -6.86915,0 q -0.98695,0 -1.69755,-0.69086 -0.69087,-0.7106 -0.69087,-1.69755 l 0,-6.67177 q 0,-0.98694 0.69087,-1.67781 0.7106,-0.7106 1.69755,-0.7106 z m 6.86915,1.61859 -6.86915,0 q -0.31583,0 -0.55269,0.23687 -0.21713,0.21713 -0.21713,0.53295 l 0,6.67177 q 0,0.31582 0.21713,0.55269 0.23686,0.21713 0.55269,0.21713 l 6.86915,0 q 0.31583,0 0.53295,-0.21713 0.23687,-0.23687 0.23687,-0.55269 l 0,-6.67177 q 0,-0.31582 -0.23687,-0.53295 -0.21712,-0.23687 -0.53295,-0.23687 z"
           inkscape:connector-curvature="0" />
        <path
           id="path4975"
           d="m 350.36397,418.69722 6.4349,0 0,1.61859 -6.4349,0 q -0.31583,0 -0.55269,0.23687 -0.21713,0.21713 -0.21713,0.53295 l 0,9.06018 -1.6186,0 0,-9.06018 q 0,-0.98694 0.69087,-1.67781 0.7106,-0.7106 1.69755,-0.7106 z"
           inkscape:connector-curvature="0" />
        <path
           id="path4977"
           d="m 367.33938,418.69722 q 1.00669,0 1.69755,0.7106 0.71061,0.69087 0.71061,1.67781 l 0,9.06018 -9.27731,0 q -0.98695,0 -1.69755,-0.69086 -0.69086,-0.7106 -0.69086,-1.69755 l 0,-4.14518 10.02738,0 0,-2.52659 q 0,-0.31582 -0.23686,-0.53295 -0.21713,-0.23687 -0.53296,-0.23687 l -9.25756,0 0,-1.61859 9.25756,0 z m 0.76982,9.83 0,-3.29641 -8.40879,0 0,2.52659 q 0,0.31582 0.21713,0.55269 0.23687,0.21713 0.55269,0.21713 l 7.63897,0 z"
           inkscape:connector-curvature="0" />
        <path
           id="path4979"
           d="m 378.37378,420.31581 -4.95447,0 0,7.44159 q 0,0.31582 0.21712,0.55269 0.23687,0.21713 0.5527,0.21713 l 4.18465,0 0,1.61859 -4.18465,0 q -1.00669,0 -1.69755,-0.69086 -0.69087,-0.7106 -0.69087,-1.69755 l 0,-12.81058 1.6186,0 0,3.7504 4.95447,0 0,1.61859 z"
           inkscape:connector-curvature="0" />
        <path
           id="path4981"
           d="m 382.2423,418.69722 6.86915,0 q 1.00669,0 1.69755,0.7106 0.71061,0.69087 0.71061,1.67781 l 0,6.67177 q 0,0.98695 -0.71061,1.69755 -0.69086,0.69086 -1.69755,0.69086 l -6.86915,0 q -0.98695,0 -1.69755,-0.69086 -0.69086,-0.7106 -0.69086,-1.69755 l 0,-6.67177 q 0,-0.98694 0.69086,-1.67781 0.7106,-0.7106 1.69755,-0.7106 z m 6.86915,1.61859 -6.86915,0 q -0.31582,0 -0.55269,0.23687 -0.21713,0.21713 -0.21713,0.53295 l 0,6.67177 q 0,0.31582 0.21713,0.55269 0.23687,0.21713 0.55269,0.21713 l 6.86915,0 q 0.31583,0 0.53296,-0.21713 0.23686,-0.23687 0.23686,-0.55269 l 0,-6.67177 q 0,-0.31582 -0.23686,-0.53295 -0.21713,-0.23687 -0.53296,-0.23687 z m -4.89526,-5.25056 0.69087,-2.74371 1.55937,0 -0.67112,2.74371 -1.57912,0 z"
           inkscape:connector-curvature="0" />
        <path
           id="path4983"
           d="m 395.92155,418.69722 6.4349,0 0,1.61859 -6.4349,0 q -0.31582,0 -0.55269,0.23687 -0.21713,0.21713 -0.21713,0.53295 l 0,9.06018 -1.61859,0 0,-9.06018 q 0,-0.98694 0.69086,-1.67781 0.71061,-0.7106 1.69755,-0.7106 z"
           inkscape:connector-curvature="0" />
        <path
           id="path4985"
           d="m 403.63937,430.14581 0,-11.44859 1.6186,0 0,11.44859 -1.6186,0 z m 0,-15.19899 1.6186,0 0,1.61859 -1.6186,0 0,-1.61859 z"
           inkscape:connector-curvature="0" />
        <path
           id="path4987"
           d="m 410.11355,418.69722 6.86915,0 q 1.00669,0 1.69755,0.7106 0.7106,0.69087 0.7106,1.67781 l 0,6.67177 q 0,0.98695 -0.7106,1.69755 -0.69086,0.69086 -1.69755,0.69086 l -6.86915,0 q -0.98695,0 -1.69756,-0.69086 -0.69086,-0.7106 -0.69086,-1.69755 l 0,-6.67177 q 0,-0.98694 0.69086,-1.67781 0.71061,-0.7106 1.69756,-0.7106 z m 6.86915,1.61859 -6.86915,0 q -0.31583,0 -0.5527,0.23687 -0.21712,0.21713 -0.21712,0.53295 l 0,6.67177 q 0,0.31582 0.21712,0.55269 0.23687,0.21713 0.5527,0.21713 l 6.86915,0 q 0.31582,0 0.53295,-0.21713 0.23687,-0.23687 0.23687,-0.55269 l 0,-6.67177 q 0,-0.31582 -0.23687,-0.53295 -0.21713,-0.23687 -0.53295,-0.23687 z"
           inkscape:connector-curvature="0" />
        <path
           id="path4989"
           d="m 436.24795,414.94682 1.61859,0 0,15.19899 -9.25757,0 q -1.00668,0 -1.71728,-0.69086 -0.69087,-0.7106 -0.69087,-1.69755 l 0,-6.67177 q 0,-0.98694 0.69087,-1.67781 0.7106,-0.7106 1.71728,-0.7106 l 7.63898,0 0,-3.7504 z m -7.63898,13.5804 6.86916,0 q 0.31582,0 0.53295,-0.21713 0.23687,-0.23687 0.23687,-0.55269 l 0,-6.67177 q 0,-0.31582 -0.23687,-0.53295 -0.21713,-0.23687 -0.53295,-0.23687 l -6.86916,0 q -0.31582,0 -0.55269,0.23687 -0.21712,0.21713 -0.21712,0.53295 l 0,6.67177 q 0,0.31582 0.21712,0.55269 0.23687,0.21713 0.55269,0.21713 z"
           inkscape:connector-curvature="0" />
        <path
           id="path4991"
           d="m 448.7822,418.69722 q 1.00669,0 1.69755,0.7106 0.7106,0.69087 0.7106,1.67781 l 0,4.14518 -10.04712,0 0,2.52659 q 0,0.31582 0.21712,0.55269 0.23687,0.21713 0.55269,0.21713 l 9.27731,0 0,1.61859 -9.27731,0 q -0.98694,0 -1.69755,-0.69086 -0.69086,-0.7106 -0.69086,-1.69755 l 0,-6.67177 q 0,-0.98694 0.69086,-1.67781 0.71061,-0.7106 1.69755,-0.7106 l 6.86916,0 z m -7.63897,4.915 8.40879,0 0,-2.52659 q 0,-0.31582 -0.23687,-0.53295 -0.21713,-0.23687 -0.53295,-0.23687 l -6.86916,0 q -0.31582,0 -0.55269,0.23687 -0.21712,0.21713 -0.21712,0.53295 l 0,2.52659 z"
           inkscape:connector-curvature="0" />
        <path
           id="path4993"
           d="m 472.74526,428.54696 1.93442,0 0,1.59885 -13.69884,0 q -0.98694,0 -1.67781,-0.69086 -0.69086,-0.69086 -0.69086,-1.67781 l 0,-9.4747 q 0,-0.98695 0.69086,-1.67781 0.69087,-0.69086 1.67781,-0.69086 l 9.4747,0 q 0.98695,0 1.67781,0.69086 0.69087,0.69086 0.69087,1.67781 l 0,9.4747 q 0,0.17765 -0.079,0.76982 z m -11.76442,0 9.4747,0 q 0.31582,0 0.53295,-0.21713 0.23687,-0.23687 0.23687,-0.55269 l 0,-9.4747 q 0,-0.31582 -0.23687,-0.53295 -0.21713,-0.23687 -0.53295,-0.23687 l -9.4747,0 q -0.31582,0 -0.55269,0.23687 -0.21713,0.21713 -0.21713,0.53295 l 0,9.4747 q 0,0.31582 0.21713,0.55269 0.23687,0.21713 0.55269,0.21713 z"
           inkscape:connector-curvature="0" />
        <path
           id="path4995"
           d="m 486.08908,418.69722 1.6186,0 0,9.06018 q 0,0.98695 -0.71061,1.69755 -0.69086,0.69086 -1.69755,0.69086 l -6.86915,0 q -0.98695,0 -1.69755,-0.69086 -0.69087,-0.7106 -0.69087,-1.69755 l 0,-9.06018 1.6186,0 0,9.06018 q 0,0.31582 0.21713,0.55269 0.23686,0.21713 0.55269,0.21713 l 6.86915,0 q 0.31583,0 0.55269,-0.21713 0.23687,-0.23687 0.23687,-0.55269 l 0,-9.06018 z"
           inkscape:connector-curvature="0" />
        <path
           id="path4997"
           d="m 489.72098,430.14581 0,-11.44859 1.6186,0 0,11.44859 -1.6186,0 z m -0.0395,-15.06082 0.69087,-2.74371 1.55937,0 -0.67112,2.74371 -1.57912,0 z"
           inkscape:connector-curvature="0" />
        <path
           id="path4999"
           d="m 509.12411,418.69722 q 1.00669,0 1.69755,0.7106 0.69087,0.69087 0.69087,1.67781 l 0,9.06018 -1.59886,0 0,-9.06018 q 0,-0.31582 -0.23687,-0.53295 -0.23686,-0.23687 -0.55269,-0.23687 l -4.75708,0 q -0.31583,0 -0.55269,0.23687 -0.21713,0.21713 -0.21713,0.53295 l 0,9.06018 -1.63834,0 0,-9.06018 q 0,-0.31582 -0.23686,-0.53295 -0.21713,-0.23687 -0.53296,-0.23687 l -4.77682,0 q -0.31583,0 -0.55269,0.23687 -0.21713,0.21713 -0.21713,0.53295 l 0,9.06018 -1.63834,0 0,-11.44859 15.12004,0 z"
           inkscape:connector-curvature="0" />
        <path
           id="path5001"
           d="m 513.26935,430.14581 0,-11.44859 1.61859,0 0,11.44859 -1.61859,0 z m 0,-15.19899 1.61859,0 0,1.61859 -1.61859,0 0,-1.61859 z"
           inkscape:connector-curvature="0" />
        <path
           id="path5003"
           d="m 519.4872,428.52722 9.27731,0 0,1.61859 -9.27731,0 q -0.98695,0 -1.69755,-0.69086 -0.69086,-0.7106 -0.69086,-1.69755 l 0,-6.67177 q 0,-0.98694 0.69086,-1.67781 0.7106,-0.7106 1.69755,-0.7106 l 9.23783,0 0,1.61859 -9.23783,0 q -0.31582,0 -0.55269,0.23687 -0.21713,0.21713 -0.21713,0.53295 l 0,6.67177 q 0,0.31582 0.21713,0.55269 0.23687,0.21713 0.55269,0.21713 z"
           inkscape:connector-curvature="0" />
        <path
           id="path5005"
           d="m 540.09485,418.69722 q 1.00668,0 1.69755,0.7106 0.7106,0.69087 0.7106,1.67781 l 0,9.06018 -9.27731,0 q -0.98695,0 -1.69755,-0.69086 -0.69086,-0.7106 -0.69086,-1.69755 l 0,-4.14518 10.02739,0 0,-2.52659 q 0,-0.31582 -0.23687,-0.53295 -0.21713,-0.23687 -0.53295,-0.23687 l -9.25757,0 0,-1.61859 9.25757,0 z m 0.76982,9.83 0,-3.29641 -8.4088,0 0,2.52659 q 0,0.31582 0.21713,0.55269 0.23687,0.21713 0.55269,0.21713 l 7.63898,0 z"
           inkscape:connector-curvature="0" />
        <path
           id="path5007"
           d="m 289.20401,444.10768 q 1.00669,0 1.69755,0.7106 0.71061,0.69087 0.71061,1.67781 l 0,4.14518 -10.04713,0 0,2.52659 q 0,0.31582 0.21713,0.55269 0.23687,0.21713 0.55269,0.21713 l 9.27731,0 0,1.61859 -9.27731,0 q -0.98695,0 -1.69755,-0.69086 -0.69087,-0.7106 -0.69087,-1.69755 l 0,-6.67177 q 0,-0.98694 0.69087,-1.67781 0.7106,-0.7106 1.69755,-0.7106 l 6.86915,0 z m -7.63897,4.915 8.40879,0 0,-2.52659 q 0,-0.31582 -0.23686,-0.53295 -0.21713,-0.23686 -0.53296,-0.23686 l -6.86915,0 q -0.31582,0 -0.55269,0.23686 -0.21713,0.21713 -0.21713,0.53295 l 0,2.52659 z"
           inkscape:connector-curvature="0" />
        <path
           id="path5009"
           d="m 307.16649,448.37129 5.90195,-7.02706 2.19102,0 0,14.21204 -1.59885,0 0,-12.39606 -6.49412,7.71793 -6.49411,-7.71793 0,12.39606 -1.59886,0 0,-14.21204 2.19103,0 5.90194,7.02706 z"
           inkscape:connector-curvature="0" />
        <path
           id="path5011"
           d="m 319.68096,444.10768 6.86915,0 q 1.00669,0 1.69755,0.7106 0.71061,0.69087 0.71061,1.67781 l 0,6.67177 q 0,0.98695 -0.71061,1.69755 -0.69086,0.69086 -1.69755,0.69086 l -6.86915,0 q -0.98695,0 -1.69755,-0.69086 -0.69087,-0.7106 -0.69087,-1.69755 l 0,-6.67177 q 0,-0.98694 0.69087,-1.67781 0.7106,-0.7106 1.69755,-0.7106 z m 6.86915,1.6186 -6.86915,0 q -0.31582,0 -0.55269,0.23686 -0.21713,0.21713 -0.21713,0.53295 l 0,6.67177 q 0,0.31582 0.21713,0.55269 0.23687,0.21713 0.55269,0.21713 l 6.86915,0 q 0.31583,0 0.53296,-0.21713 0.23686,-0.23687 0.23686,-0.55269 l 0,-6.67177 q 0,-0.31582 -0.23686,-0.53295 -0.21713,-0.23686 -0.53296,-0.23686 z"
           inkscape:connector-curvature="0" />
        <path
           id="path5013"
           d="m 333.12303,444.10768 6.4349,0 0,1.6186 -6.4349,0 q -0.31582,0 -0.55269,0.23686 -0.21713,0.21713 -0.21713,0.53295 l 0,9.06018 -1.61859,0 0,-9.06018 q 0,-0.98694 0.69086,-1.67781 0.7106,-0.7106 1.69755,-0.7106 z"
           inkscape:connector-curvature="0" />
        <path
           id="path5015"
           d="m 343.24952,441.97587 q -0.31582,0 -0.55269,0.23687 -0.21713,0.21713 -0.21713,0.53295 l 0,1.36199 4.95448,0 0,1.6186 -4.95448,0 0,9.82999 -1.61859,0 0,-12.81058 q 0,-1.00668 0.69086,-1.69755 0.69086,-0.69086 1.69755,-0.69086 l 4.18466,0 0,1.61859 -4.18466,0 z"
           inkscape:connector-curvature="0" />
        <path
           id="path5017"
           d="m 351.2437,444.10768 6.86916,0 q 1.00669,0 1.69755,0.7106 0.7106,0.69087 0.7106,1.67781 l 0,6.67177 q 0,0.98695 -0.7106,1.69755 -0.69086,0.69086 -1.69755,0.69086 l -6.86916,0 q -0.98695,0 -1.69755,-0.69086 -0.69086,-0.7106 -0.69086,-1.69755 l 0,-6.67177 q 0,-0.98694 0.69086,-1.67781 0.7106,-0.7106 1.69755,-0.7106 z m 6.86916,1.6186 -6.86916,0 q -0.31582,0 -0.55269,0.23686 -0.21713,0.21713 -0.21713,0.53295 l 0,6.67177 q 0,0.31582 0.21713,0.55269 0.23687,0.21713 0.55269,0.21713 l 6.86916,0 q 0.31582,0 0.53295,-0.21713 0.23687,-0.23687 0.23687,-0.55269 l 0,-6.67177 q 0,-0.31582 -0.23687,-0.53295 -0.21713,-0.23686 -0.53295,-0.23686 z"
           inkscape:connector-curvature="0" />
        <path
           id="path5019"
           d="m 362.11963,440.35728 1.61859,0 0,12.81058 q 0,0.31582 0.21713,0.55269 0.23687,0.21713 0.55269,0.21713 l 1.93442,0 0,1.61859 -1.93442,0 q -0.98695,0 -1.69755,-0.69086 -0.69086,-0.7106 -0.69086,-1.69755 l 0,-12.81058 z"
           inkscape:connector-curvature="0" />
        <path
           id="path5021"
           d="m 370.27211,444.10768 6.86916,0 q 1.00669,0 1.69755,0.7106 0.7106,0.69087 0.7106,1.67781 l 0,6.67177 q 0,0.98695 -0.7106,1.69755 -0.69086,0.69086 -1.69755,0.69086 l -6.86916,0 q -0.98694,0 -1.69755,-0.69086 -0.69086,-0.7106 -0.69086,-1.69755 l 0,-6.67177 q 0,-0.98694 0.69086,-1.67781 0.71061,-0.7106 1.69755,-0.7106 z m 6.86916,1.6186 -6.86916,0 q -0.31582,0 -0.55269,0.23686 -0.21712,0.21713 -0.21712,0.53295 l 0,6.67177 q 0,0.31582 0.21712,0.55269 0.23687,0.21713 0.55269,0.21713 l 6.86916,0 q 0.31582,0 0.53295,-0.21713 0.23687,-0.23687 0.23687,-0.55269 l 0,-6.67177 q 0,-0.31582 -0.23687,-0.53295 -0.21713,-0.23686 -0.53295,-0.23686 z"
           inkscape:connector-curvature="0" />
        <path
           id="path5023"
           d="m 392.99135,457.66834 q 0,1.00669 -0.69086,1.69755 -0.69086,0.71061 -1.69755,0.71061 l -7.1455,0 0,-1.63834 7.1455,0 q 0.31582,0 0.53295,-0.23687 0.23687,-0.21712 0.23687,-0.53295 l 0,-2.11207 -7.63898,0 q -0.98695,0 -1.69755,-0.69086 -0.69086,-0.7106 -0.69086,-1.69755 l 0,-6.67177 q 0,-0.98694 0.69086,-1.67781 0.7106,-0.7106 1.69755,-0.7106 l 6.86916,0 q 1.00669,0 1.69755,0.7106 0.69086,0.69087 0.69086,1.67781 l 0,11.17225 z m -9.25757,-3.73066 6.86916,0 q 0.31582,0 0.53295,-0.21713 0.23687,-0.23687 0.23687,-0.55269 l 0,-6.67177 q 0,-0.31582 -0.23687,-0.53295 -0.21713,-0.23686 -0.53295,-0.23686 l -6.86916,0 q -0.31582,0 -0.55269,0.23686 -0.21713,0.21713 -0.21713,0.53295 l 0,6.67177 q 0,0.31582 0.21713,0.55269 0.23687,0.21713 0.55269,0.21713 z"
           inkscape:connector-curvature="0" />
        <path
           id="path5025"
           d="m 395.04425,455.55627 0,-11.44859 1.61859,0 0,11.44859 -1.61859,0 z m 0,-15.19899 1.61859,0 0,1.61859 -1.61859,0 0,-1.61859 z"
           inkscape:connector-curvature="0" />
        <path
           id="path5027"
           d="m 407.73627,444.10768 q 1.00668,0 1.69755,0.7106 0.7106,0.69087 0.7106,1.67781 l 0,9.06018 -9.27731,0 q -0.98695,0 -1.69755,-0.69086 -0.69086,-0.7106 -0.69086,-1.69755 l 0,-4.14518 10.02739,0 0,-2.52659 q 0,-0.31582 -0.23687,-0.53295 -0.21713,-0.23686 -0.53295,-0.23686 l -9.25757,0 0,-1.6186 9.25757,0 z m 0.76982,9.83 0,-3.29641 -8.4088,0 0,2.52659 q 0,0.31582 0.21713,0.55269 0.23687,0.21713 0.55269,0.21713 l 7.63898,0 z"
           inkscape:connector-curvature="0" />
        <path
           id="path5029"
           d="m 427.02139,440.35728 1.61859,0 0,15.19899 -9.25757,0 q -1.00668,0 -1.71729,-0.69086 -0.69086,-0.7106 -0.69086,-1.69755 l 0,-6.67177 q 0,-0.98694 0.69086,-1.67781 0.71061,-0.7106 1.71729,-0.7106 l 7.63898,0 0,-3.7504 z m -7.63898,13.5804 6.86916,0 q 0.31582,0 0.53295,-0.21713 0.23687,-0.23687 0.23687,-0.55269 l 0,-6.67177 q 0,-0.31582 -0.23687,-0.53295 -0.21713,-0.23686 -0.53295,-0.23686 l -6.86916,0 q -0.31582,0 -0.55269,0.23686 -0.21713,0.21713 -0.21713,0.53295 l 0,6.67177 q 0,0.31582 0.21713,0.55269 0.23687,0.21713 0.55269,0.21713 z"
           inkscape:connector-curvature="0" />
        <path
           id="path5031"
           d="m 439.97006,444.10768 q 1.00669,0 1.69755,0.7106 0.7106,0.69087 0.7106,1.67781 l 0,9.06018 -9.27731,0 q -0.98694,0 -1.69755,-0.69086 -0.69086,-0.7106 -0.69086,-1.69755 l 0,-4.14518 10.02739,0 0,-2.52659 q 0,-0.31582 -0.23687,-0.53295 -0.21713,-0.23686 -0.53295,-0.23686 l -9.25757,0 0,-1.6186 9.25757,0 z m 0.76982,9.83 0,-3.29641 -8.40879,0 0,2.52659 q 0,0.31582 0.21712,0.55269 0.23687,0.21713 0.55269,0.21713 l 7.63898,0 z"
           inkscape:connector-curvature="0" />
        <path
           id="path5033"
           d="m 463.2621,447.77913 0.079,0.33556 q 0.78956,0.73034 0.78956,1.75677 l 0,3.31614 q 0,0.98695 -0.69086,1.67781 -0.69086,0.69086 -1.67781,0.69086 l -11.84337,0 0,-14.21204 11.23146,0 q 0.98695,0 1.67781,0.69086 0.69087,0.69086 0.69087,1.67781 l 0,3.02006 q 0,0.53295 -0.25661,1.04617 z m -2.11207,-4.83605 -8.86279,0 q -0.31582,0 -0.55269,0.23687 -0.21713,0.21713 -0.21713,0.53295 l 0,3.02006 q 0,0.31583 0.21713,0.55269 0.23687,0.21713 0.55269,0.21713 l 8.86279,0 q 0.31582,0 0.53295,-0.21713 0.21713,-0.23686 0.21713,-0.55269 l 0,-3.02006 q 0,-0.31582 -0.21713,-0.53295 -0.21713,-0.23687 -0.53295,-0.23687 z m 1.38173,10.24452 0,-3.31614 q 0,-0.31583 -0.23687,-0.53296 -0.21713,-0.23686 -0.53295,-0.23686 l -9.4747,0 q -0.31582,0 -0.55269,0.23686 -0.21713,0.21713 -0.21713,0.53296 l 0,3.31614 q 0,0.31582 0.21713,0.55269 0.23687,0.21713 0.55269,0.21713 l 9.4747,0 q 0.31582,0 0.53295,-0.21713 0.23687,-0.23687 0.23687,-0.55269 z"
           inkscape:connector-curvature="0" />
        <path
           id="path5035"
           d="m 466.20337,455.55627 0,-11.44859 1.61859,0 0,11.44859 -1.61859,0 z m 0,-15.19899 1.61859,0 0,1.61859 -1.61859,0 0,-1.61859 z"
           inkscape:connector-curvature="0" />
        <path
           id="path5037"
           d="m 472.67754,444.10768 6.86916,0 q 1.00668,0 1.69755,0.7106 0.7106,0.69087 0.7106,1.67781 l 0,6.67177 q 0,0.98695 -0.7106,1.69755 -0.69087,0.69086 -1.69755,0.69086 l -6.86916,0 q -0.98695,0 -1.69755,-0.69086 -0.69086,-0.7106 -0.69086,-1.69755 l 0,-6.67177 q 0,-0.98694 0.69086,-1.67781 0.7106,-0.7106 1.69755,-0.7106 z m 6.86916,1.6186 -6.86916,0 q -0.31582,0 -0.55269,0.23686 -0.21713,0.21713 -0.21713,0.53295 l 0,6.67177 q 0,0.31582 0.21713,0.55269 0.23687,0.21713 0.55269,0.21713 l 6.86916,0 q 0.31582,0 0.53295,-0.21713 0.23687,-0.23687 0.23687,-0.55269 l 0,-6.67177 q 0,-0.31582 -0.23687,-0.53295 -0.21713,-0.23686 -0.53295,-0.23686 z"
           inkscape:connector-curvature="0" />
        <path
           id="path5039"
           d="m 499.12796,444.10768 q 1.00669,0 1.69755,0.7106 0.69086,0.69087 0.69086,1.67781 l 0,9.06018 -1.59885,0 0,-9.06018 q 0,-0.31582 -0.23687,-0.53295 -0.23687,-0.23686 -0.55269,-0.23686 l -4.75709,0 q -0.31582,0 -0.55269,0.23686 -0.21713,0.21713 -0.21713,0.53295 l 0,9.06018 -1.63833,0 0,-9.06018 q 0,-0.31582 -0.23687,-0.53295 -0.21713,-0.23686 -0.53295,-0.23686 l -4.77683,0 q -0.31582,0 -0.55269,0.23686 -0.21713,0.21713 -0.21713,0.53295 l 0,9.06018 -1.63833,0 0,-11.44859 15.12004,0 z"
           inkscape:connector-curvature="0" />
        <path
           id="path5041"
           d="m 512.53094,444.10768 q 1.00669,0 1.69755,0.7106 0.71061,0.69087 0.71061,1.67781 l 0,9.06018 -9.27731,0 q -0.98695,0 -1.69755,-0.69086 -0.69087,-0.7106 -0.69087,-1.69755 l 0,-4.14518 10.02739,0 0,-2.52659 q 0,-0.31582 -0.23686,-0.53295 -0.21713,-0.23686 -0.53296,-0.23686 l -9.25757,0 0,-1.6186 9.25757,0 z m 0.76982,9.83 0,-3.29641 -8.40879,0 0,2.52659 q 0,0.31582 0.21713,0.55269 0.23686,0.21713 0.55269,0.21713 l 7.63897,0 z"
           inkscape:connector-curvature="0" />
        <path
           id="path5043"
           d="m 528.16391,446.49609 0,0.15792 -1.63833,0 0,-0.15792 q 0,-0.31582 -0.23687,-0.53295 -0.21713,-0.23686 -0.53295,-0.23686 l -6.86916,0 q -0.31582,0 -0.55269,0.23686 -0.21713,0.21713 -0.21713,0.53295 l 0,1.75677 q 0,0.31582 0.21713,0.55269 0.23687,0.21713 0.55269,0.21713 l 6.86916,0 q 1.00669,0 1.69755,0.7106 0.7106,0.69087 0.7106,1.67781 l 0,1.75677 q 0,0.98695 -0.7106,1.69755 -0.69086,0.69086 -1.69755,0.69086 l -6.86916,0 q -0.98694,0 -1.69755,-0.69086 -0.69086,-0.7106 -0.69086,-1.69755 l 0,-0.15791 1.61859,0 0,0.15791 q 0,0.31582 0.21713,0.55269 0.23687,0.21713 0.55269,0.21713 l 6.86916,0 q 0.31582,0 0.53295,-0.21713 0.23687,-0.23687 0.23687,-0.55269 l 0,-1.75677 q 0,-0.31582 -0.23687,-0.53295 -0.21713,-0.23687 -0.53295,-0.23687 l -6.86916,0 q -0.98694,0 -1.69755,-0.69086 -0.69086,-0.7106 -0.69086,-1.69755 l 0,-1.75677 q 0,-0.98694 0.69086,-1.67781 0.71061,-0.7106 1.69755,-0.7106 l 6.86916,0 q 1.00669,0 1.69755,0.7106 0.7106,0.69087 0.7106,1.67781 z"
           inkscape:connector-curvature="0" />
        <path
           id="path5045"
           d="m 541.70487,446.49609 0,0.15792 -1.63834,0 0,-0.15792 q 0,-0.31582 -0.23686,-0.53295 -0.21713,-0.23686 -0.53296,-0.23686 l -6.86915,0 q -0.31583,0 -0.55269,0.23686 -0.21713,0.21713 -0.21713,0.53295 l 0,1.75677 q 0,0.31582 0.21713,0.55269 0.23686,0.21713 0.55269,0.21713 l 6.86915,0 q 1.00669,0 1.69755,0.7106 0.71061,0.69087 0.71061,1.67781 l 0,1.75677 q 0,0.98695 -0.71061,1.69755 -0.69086,0.69086 -1.69755,0.69086 l -6.86915,0 q -0.98695,0 -1.69755,-0.69086 -0.69087,-0.7106 -0.69087,-1.69755 l 0,-0.15791 1.6186,0 0,0.15791 q 0,0.31582 0.21713,0.55269 0.23686,0.21713 0.55269,0.21713 l 6.86915,0 q 0.31583,0 0.53296,-0.21713 0.23686,-0.23687 0.23686,-0.55269 l 0,-1.75677 q 0,-0.31582 -0.23686,-0.53295 -0.21713,-0.23687 -0.53296,-0.23687 l -6.86915,0 q -0.98695,0 -1.69755,-0.69086 -0.69087,-0.7106 -0.69087,-1.69755 l 0,-1.75677 q 0,-0.98694 0.69087,-1.67781 0.7106,-0.7106 1.69755,-0.7106 l 6.86915,0 q 1.00669,0 1.69755,0.7106 0.71061,0.69087 0.71061,1.67781 z"
           inkscape:connector-curvature="0" />
        <path
           id="path5047"
           d="m 552.91632,444.10768 q 1.00669,0 1.69755,0.7106 0.7106,0.69087 0.7106,1.67781 l 0,9.06018 -9.27731,0 q -0.98694,0 -1.69755,-0.69086 -0.69086,-0.7106 -0.69086,-1.69755 l 0,-4.14518 10.02739,0 0,-2.52659 q 0,-0.31582 -0.23687,-0.53295 -0.21713,-0.23686 -0.53295,-0.23686 l -9.25757,0 0,-1.6186 9.25757,0 z m 0.76982,9.83 0,-3.29641 -8.4088,0 0,2.52659 q 0,0.31582 0.21713,0.55269 0.23687,0.21713 0.55269,0.21713 l 7.63898,0 z"
           inkscape:connector-curvature="0" />
      </g>
    </g>
  </g>
</svg>
