<?xml version="1.0" encoding="UTF-8" standalone="no"?>
<!-- Created with Inkscape (http://www.inkscape.org/) -->

<svg
   xmlns:dc="http://purl.org/dc/elements/1.1/"
   xmlns:cc="http://creativecommons.org/ns#"
   xmlns:rdf="http://www.w3.org/1999/02/22-rdf-syntax-ns#"
   xmlns:svg="http://www.w3.org/2000/svg"
   xmlns="http://www.w3.org/2000/svg"
   xmlns:sodipodi="http://sodipodi.sourceforge.net/DTD/sodipodi-0.dtd"
   xmlns:inkscape="http://www.inkscape.org/namespaces/inkscape"
   width="17.848822mm"
   height="18.479549mm"
   viewBox="0 0 63.243856 65.478718"
   id="svg5809"
   version="1.1"
   inkscape:version="0.91 r13725"
   sodipodi:docname="logo_unicamp.svg">
  <defs
     id="defs5811" />
  <sodipodi:namedview
     id="base"
     pagecolor="#ffffff"
     bordercolor="#666666"
     borderopacity="1.0"
     inkscape:pageopacity="0.0"
     inkscape:pageshadow="2"
     inkscape:zoom="3.5123529"
     inkscape:cx="51.428571"
     inkscape:cy="-1.4285714"
     inkscape:document-units="px"
     inkscape:current-layer="layer1"
     showgrid="false"
     inkscape:window-width="1920"
     inkscape:window-height="1026"
     inkscape:window-x="0"
     inkscape:window-y="0"
     inkscape:window-maximized="1"
     fit-margin-top="0"
     fit-margin-left="0"
     fit-margin-right="0"
     fit-margin-bottom="0" />
  <metadata
     id="metadata5814">
    <rdf:RDF>
      <cc:Work
         rdf:about="">
        <dc:format>image/svg+xml</dc:format>
        <dc:type
           rdf:resource="http://purl.org/dc/dcmitype/StillImage" />
        <dc:title />
      </cc:Work>
    </rdf:RDF>
  </metadata>
  <g
     inkscape:label="Layer 1"
     inkscape:groupmode="layer"
     id="layer1"
     transform="translate(500.19333,-271.05142)">
    <g
       transform="translate(-1112.0294,940.77838)"
       id="g5752"
       inkscape:export-xdpi="1422.5996"
       inkscape:export-ydpi="1422.5996">
      <polygon
         transform="matrix(0.71623036,0,0,0.71623036,536.48291,-678.18958)"
         points="158.323,19.3692 158.472,19.5006 158.632,19.632 158.792,19.7577 158.957,19.8777 148.444,45.0585 148.107,44.9499 147.764,44.8528 147.421,44.7671 147.078,44.6928 146.736,44.6242 146.387,44.5671 146.039,44.5156 145.69,44.4757 145.69,12.6783 146.381,12.6954 147.067,12.7297 147.758,12.7697 148.444,12.8212 149.13,12.884 149.815,12.9582 150.495,13.0439 151.181,13.1354 151.861,13.2382 152.541,13.3525 153.221,13.4782 153.895,13.6153 154.575,13.7582 155.244,13.9182 155.918,14.0839 156.586,14.261 156.552,14.4667 156.529,14.6724 156.518,14.8724 156.506,15.0781 156.506,15.2781 156.512,15.4837 156.523,15.6837 156.546,15.8838 156.575,16.078 156.609,16.278 156.649,16.4723 156.701,16.6665 156.752,16.855 156.815,17.0436 156.883,17.2322 156.958,17.4151 157.038,17.5979 157.123,17.775 157.215,17.9522 157.318,18.1235 157.42,18.295 157.535,18.4607 157.649,18.6207 157.775,18.7749 157.9,18.9292 158.037,19.0835 158.175,19.2263 "
         class="fil132"
         id="_71455472"
         style="fill:#1f1a17;fill-rule:evenodd" />
      <polygon
         transform="matrix(0.71623036,0,0,0.71623036,536.48291,-678.18958)"
         points="141.982,12.7811 141.513,12.8154 141.05,12.8611 140.582,12.9125 140.119,12.964 139.656,13.0268 139.193,13.0954 138.731,13.164 138.268,13.244 137.811,13.324 137.354,13.4153 136.896,13.5068 136.439,13.6096 135.982,13.7125 135.531,13.8268 135.079,13.941 134.628,14.061 134.177,14.1925 133.731,14.3239 133.285,14.461 132.84,14.6038 132.4,14.7581 131.96,14.9124 131.52,15.0724 131.08,15.2381 130.646,15.4095 130.211,15.5809 129.777,15.7637 129.349,15.9523 128.92,16.1466 128.491,16.3409 140.25,45.0299 140.57,44.9271 140.902,44.8356 141.227,44.7499 141.565,44.6756 141.896,44.6128 142.233,44.5557 142.576,44.5099 142.919,44.4757 142.919,12.7183 142.45,12.7468 "
         class="fil132"
         id="_120295056"
         style="fill:#1f1a17;fill-rule:evenodd" />
      <polygon
         transform="matrix(0.71623036,0,0,0.71623036,536.48291,-678.18958)"
         points="125.589,17.7408 125.172,17.9693 124.76,18.1978 124.355,18.4378 123.943,18.6778 123.543,18.9234 123.143,19.1749 122.743,19.432 122.349,19.6891 121.955,19.952 121.566,20.2205 121.184,20.4948 120.801,20.7748 120.418,21.0547 120.041,21.3405 119.669,21.6319 119.298,21.9232 118.932,22.2204 118.566,22.5232 118.207,22.8317 117.852,23.1403 117.498,23.4603 117.15,23.7745 116.807,24.1002 116.464,24.4259 116.121,24.7573 115.79,25.0887 115.458,25.4315 115.127,25.7686 114.807,26.1172 114.487,26.4657 135.536,47.5554 135.839,47.3097 136.148,47.0697 136.456,46.8412 136.776,46.6183 137.108,46.4069 137.439,46.2069 137.776,46.0126 138.125,45.8241 126.423,17.295 126.006,17.5179 "
         class="fil132"
         id="_124865872"
         style="fill:#1f1a17;fill-rule:evenodd" />
      <polygon
         transform="matrix(0.71623036,0,0,0.71623036,536.48291,-678.18958)"
         points="112.179,29.2426 111.904,29.6026 111.63,29.9626 111.367,30.3225 111.104,30.6882 110.847,31.0596 110.596,31.431 110.35,31.8024 110.11,32.1852 109.87,32.5624 109.636,32.9452 109.407,33.3337 109.184,33.7223 108.967,34.1165 108.75,34.5107 108.545,34.905 108.339,35.305 108.139,35.7049 107.945,36.1106 107.756,36.5163 107.567,36.9277 107.39,37.3391 107.213,37.7505 107.042,38.1676 106.882,38.5847 106.722,39.0075 106.568,39.4247 106.413,39.8532 106.27,40.276 106.133,40.7045 132.303,51.6693 132.474,51.3379 132.662,51.0122 132.857,50.6866 133.062,50.3723 133.274,50.0581 133.497,49.7552 133.731,49.4581 133.965,49.1667 113.03,28.1913 112.738,28.5399 112.458,28.8884 "
         class="fil132"
         id="_71945696"
         style="fill:#1f1a17;fill-rule:evenodd" />
      <polygon
         transform="matrix(0.71623036,0,0,0.71623036,536.48291,-678.18958)"
         points="105.579,42.9672 105.528,43.4015 105.476,43.8357 105.43,44.2643 105.39,44.6985 105.356,45.1327 105.322,45.567 105.293,46.0013 105.271,46.4355 105.248,46.8698 105.23,47.304 105.219,47.7382 105.213,48.1725 105.208,48.6067 105.208,49.041 105.213,49.4753 105.219,49.9095 105.236,50.3437 105.248,50.778 105.271,51.2122 105.299,51.6465 105.328,52.0808 105.356,52.515 105.396,52.9436 105.436,53.3777 105.482,53.812 105.533,54.2405 105.59,54.6748 105.648,55.1033 105.71,55.5319 105.773,55.9661 105.848,56.3947 105.922,56.8232 130.777,56.8232 130.794,56.6289 130.811,56.4347 130.834,56.2404 130.863,56.0518 130.92,55.669 130.994,55.2862 131.074,54.9034 131.165,54.5263 131.268,54.1548 131.383,53.7777 "
         class="fil132"
         id="_120145360"
         style="fill:#1f1a17;fill-rule:evenodd" />
      <polygon
         transform="matrix(0.71623036,0,0,0.71623036,536.48291,-678.18958)"
         points="131.257,61.7028 131.16,61.3371 131.068,60.9714 130.994,60.6001 130.926,60.2286 130.868,59.8572 130.823,59.4858 130.783,59.1087 106.562,59.1087 106.848,59.823 107.133,60.5315 107.436,61.2343 107.75,61.9371 108.07,62.6284 108.402,63.3198 108.739,64.0055 109.087,64.6854 109.447,65.3597 109.819,66.0282 110.196,66.691 110.584,67.3537 110.984,68.0051 111.39,68.6508 111.807,69.2965 112.23,69.9307 131.36,62.0628 "
         class="fil132"
         id="_120875880"
         style="fill:#1f1a17;fill-rule:evenodd" />
      <polygon
         transform="matrix(0.71623036,0,0,0.71623036,536.48291,-678.18958)"
         points="132.748,64.874 132.651,64.7083 132.554,64.5368 132.463,64.3655 132.371,64.194 132.28,64.0226 113.813,71.6048 114.298,72.0848 114.79,72.5533 115.287,73.0162 115.79,73.4676 116.298,73.9132 116.818,74.3532 117.338,74.7875 117.864,75.216 118.395,75.6331 118.938,76.0445 119.481,76.4444 120.029,76.8444 120.584,77.233 121.143,77.6157 121.709,77.9872 122.275,78.3586 134.005,66.611 133.88,66.4624 133.754,66.3081 133.634,66.1596 133.514,65.9996 133.4,65.8453 133.285,65.691 133.171,65.531 133.062,65.3711 132.954,65.2053 132.851,65.0396 "
         class="fil132"
         id="_121442112"
         style="fill:#1f1a17;fill-rule:evenodd" />
      <polygon
         transform="matrix(0.71623036,0,0,0.71623036,536.48291,-678.18958)"
         points="143.307,71.3706 142.89,71.3363 142.473,71.2849 142.056,71.2163 141.645,71.142 141.233,71.0506 140.822,70.9478 140.416,70.8335 140.016,70.7021 139.622,70.5592 139.228,70.4107 138.839,70.245 138.456,70.0621 138.074,69.8736 137.702,69.6678 137.331,69.4564 136.971,69.2279 136.616,68.9879 136.268,68.7365 135.925,68.4737 135.588,68.1994 124.286,79.5185 124.989,79.8841 125.697,80.2327 126.417,80.5698 127.137,80.8898 127.863,81.1983 128.6,81.484 129.337,81.764 130.08,82.0211 130.823,82.2668 131.577,82.4954 132.331,82.7068 133.091,82.9068 133.851,83.0896 134.617,83.2553 135.388,83.4096 136.159,83.5467 136.931,83.6667 137.708,83.7695 138.485,83.861 139.268,83.9295 140.05,83.9924 140.833,84.0324 141.616,84.0552 142.405,84.0666 143.187,84.061 143.976,84.0381 144.764,83.9981 145.547,83.9467 146.336,83.8781 147.118,83.7867 147.907,83.6839 148.69,83.5696 148.667,83.3639 148.65,83.1582 148.644,82.9525 148.644,82.7467 148.655,82.5468 148.667,82.3468 148.69,82.1468 148.718,81.9468 148.753,81.7469 148.798,81.5526 148.844,81.364 148.901,81.1697 148.964,80.9812 149.033,80.7926 149.107,80.6098 149.187,80.4327 149.273,80.2555 149.37,80.0784 149.467,79.907 149.575,79.7356 149.684,79.5756 149.804,79.4156 149.93,79.2556 150.055,79.1013 150.192,78.9528 150.33,78.81 150.478,78.6728 150.627,78.5357 150.787,78.4043 150.947,78.2843 151.112,78.1643 151.29,78.05 148.364,70.8049 147.947,70.9249 147.53,71.0334 147.107,71.1249 146.69,71.2049 146.267,71.2734 145.844,71.3305 145.421,71.3706 144.999,71.3992 144.576,71.4105 144.153,71.4105 143.73,71.3992 "
         class="fil132"
         id="_123994064"
         style="fill:#1f1a17;fill-rule:evenodd" />
      <polygon
         transform="matrix(0.71623036,0,0,0.71623036,536.48291,-678.18958)"
         points="152.524,68.6108 152.364,68.7308 152.204,68.8508 152.044,68.9708 151.878,69.0851 151.712,69.1936 151.547,69.3022 151.375,69.4107 151.204,69.5136 151.032,69.6107 150.861,69.7079 150.69,69.805 150.512,69.8964 150.335,69.9878 153.272,77.2901 153.489,77.2558 153.701,77.233 153.912,77.2158 154.124,77.2101 154.335,77.2101 154.546,77.2215 154.758,77.2386 154.963,77.2615 155.169,77.2901 155.369,77.3301 155.575,77.3758 155.775,77.4272 155.969,77.4901 156.163,77.5587 156.358,77.6329 156.546,77.7129 156.735,77.8043 156.918,77.9015 157.095,77.9986 157.272,78.1071 157.443,78.2272 157.609,78.3471 157.775,78.4729 157.935,78.6099 158.089,78.7471 158.238,78.8957 158.386,79.0442 158.523,79.2042 158.655,79.3699 158.786,79.5356 158.906,79.7127 159.026,79.8899 159.494,79.667 159.969,79.4442 160.437,79.2099 160.9,78.9814 161.369,78.7471 161.832,78.5071 162.294,78.2671 162.757,78.0272 152.992,68.2337 152.838,68.3594 152.684,68.4851 "
         class="fil132"
         id="_123228336"
         style="fill:#1f1a17;fill-rule:evenodd" />
      <polygon
         transform="matrix(0.71623036,0,0,0.71623036,536.48291,-678.18958)"
         points="155.226,65.7825 155.072,65.9939 154.912,66.2053 154.752,66.411 154.586,66.6167 164.826,76.873 165.523,76.4845 166.22,76.0902 166.911,75.6902 167.597,75.2845 168.277,74.8731 168.962,74.456 169.637,74.039 170.311,73.6103 170.985,73.1818 171.654,72.7476 172.316,72.3076 172.979,71.862 173.636,71.4105 174.288,70.9534 174.939,70.4963 175.59,70.0336 176.236,69.5593 176.876,69.0851 177.51,68.6108 178.144,68.1252 178.779,67.6395 179.401,67.1423 180.024,66.6453 180.647,66.1424 181.264,65.6339 181.875,65.1254 182.481,64.6054 183.087,64.0855 183.693,63.5598 184.287,63.0341 184.881,62.497 185.47,61.9599 185.321,61.8057 185.178,61.6457 185.035,61.48 184.904,61.3143 184.778,61.1372 184.664,60.96 184.55,60.7772 184.441,60.5943 184.344,60.4 184.253,60.2058 184.167,60.0115 184.093,59.8115 184.024,59.6059 183.961,59.3944 183.91,59.183 183.858,58.9716 157.735,58.9716 157.712,59.2344 157.683,59.4973 157.649,59.7601 157.609,60.0229 157.563,60.2801 157.518,60.5372 157.46,60.7943 157.403,61.0514 157.335,61.3085 157.266,61.56 157.192,61.8114 157.118,62.0628 157.032,62.3085 156.946,62.5542 156.849,62.7999 156.752,63.0398 156.649,63.2855 156.546,63.5198 156.432,63.7598 156.318,63.994 156.198,64.2283 156.072,64.4568 155.94,64.6854 155.809,64.9082 155.672,65.1311 155.529,65.3539 155.381,65.5711 "
         class="fil132"
         id="_71945312"
         style="fill:#1f1a17;fill-rule:evenodd" />
      <polygon
         transform="matrix(0.71623036,0,0,0.71623036,536.48291,-678.18958)"
         points="165.614,19.6491 165.757,19.5292 165.894,19.4091 166.031,19.2777 166.163,19.1463 166.288,19.0092 166.58,19.2092 166.871,19.4091 167.157,19.6149 167.442,19.8205 167.728,20.0262 168.008,20.2377 168.288,20.4548 168.568,20.6719 168.842,20.889 169.117,21.1119 169.385,21.3347 169.654,21.5632 169.922,21.7918 170.191,22.0204 170.454,22.2547 170.711,22.4889 171.168,22.9574 171.619,23.426 172.059,23.9059 172.493,24.3916 172.922,24.883 173.339,25.3801 173.756,25.8886 174.162,26.3971 152.964,47.6239 152.672,47.384 152.375,47.1554 152.067,46.9326 151.758,46.7212 151.444,46.5155 151.124,46.3212 150.798,46.1327 150.467,45.9556 160.98,20.7804 161.163,20.8147 161.346,20.8433 161.529,20.8604 161.712,20.8776 161.894,20.889 162.077,20.889 162.26,20.889 162.443,20.8776 162.626,20.8662 162.803,20.8433 162.986,20.8147 163.163,20.7862 163.34,20.7462 163.517,20.7062 163.689,20.6548 163.86,20.6033 164.031,20.5405 164.203,20.4719 164.368,20.4033 164.534,20.3291 164.694,20.2433 164.854,20.1577 165.014,20.0662 165.168,19.9691 165.323,19.8662 165.471,19.7577 "
         class="fil132"
         id="_123228720"
         style="fill:#1f1a17;fill-rule:evenodd" />
      <polygon
         transform="matrix(0.71623036,0,0,0.71623036,536.48291,-678.18958)"
         points="151.461,84.9695 151.564,85.0951 151.672,85.2208 151.781,85.3408 151.901,85.4551 152.027,85.5637 152.152,85.6608 152.289,85.7579 152.427,85.8494 152.569,85.9294 152.712,86.0036 152.867,86.0722 153.021,86.135 153.181,86.1922 153.341,86.2379 153.506,86.2722 153.672,86.3065 153.844,86.3236 154.015,86.3408 154.192,86.3408 154.363,86.3408 154.541,86.3236 154.706,86.3065 154.878,86.2722 155.043,86.2379 155.203,86.1922 155.363,86.135 155.518,86.0722 155.666,86.0036 155.815,85.9294 155.958,85.8494 156.095,85.7579 156.226,85.6608 156.358,85.5637 156.478,85.4551 156.598,85.3408 156.712,85.2208 156.82,85.0951 156.918,84.9695 157.015,84.8323 157.1,84.6952 157.186,84.5523 157.26,84.4038 157.329,84.2495 157.392,84.0952 157.443,83.9352 157.489,83.7752 157.529,83.6095 157.558,83.4382 157.58,83.2667 157.592,83.0953 157.598,82.9182 157.592,82.7411 157.58,82.5696 157.558,82.3982 157.529,82.2268 157.489,82.0611 157.443,81.9011 157.392,81.7411 157.329,81.5869 157.26,81.4326 157.186,81.284 157.1,81.1412 157.015,81.004 156.918,80.8726 156.82,80.7412 156.712,80.6155 156.598,80.4955 156.478,80.3813 156.358,80.2784 156.226,80.1755 156.095,80.0784 155.958,79.9927 155.815,79.907 155.666,79.8327 155.518,79.7641 155.363,79.7013 155.203,79.6499 155.043,79.6041 154.878,79.5642 154.706,79.5356 154.541,79.5128 154.363,79.5013 154.192,79.4956 154.015,79.5013 153.844,79.5128 153.672,79.5356 153.506,79.5642 153.341,79.6041 153.181,79.6499 153.021,79.7013 152.867,79.7641 152.712,79.8327 152.569,79.907 152.427,79.9927 152.289,80.0784 152.152,80.1755 152.027,80.2784 151.901,80.3813 151.781,80.4955 151.672,80.6155 151.564,80.7412 151.461,80.8726 151.369,81.004 151.278,81.1412 151.198,81.284 151.124,81.4326 151.055,81.5869 150.992,81.7411 150.941,81.9011 150.895,82.0611 150.855,82.2268 150.827,82.3982 150.804,82.5696 150.792,82.7411 150.787,82.9182 150.792,83.0953 150.804,83.2667 150.827,83.4382 150.855,83.6095 150.895,83.7752 150.941,83.9352 150.992,84.0952 151.055,84.2495 151.124,84.4038 151.198,84.5523 151.278,84.6952 151.369,84.8323 "
         class="fil133"
         id="_71790664"
         style="fill:#da251d;fill-rule:evenodd" />
      <polygon
         transform="matrix(0.71623036,0,0,0.71623036,536.48291,-678.18958)"
         points="187.349,59.4573 187.452,59.5887 187.561,59.7087 187.669,59.8286 187.789,59.9429 187.915,60.0515 188.046,60.1543 188.178,60.2458 188.315,60.3372 188.458,60.4172 188.606,60.4972 188.761,60.5658 188.915,60.6229 189.075,60.6801 189.235,60.7257 189.401,60.7657 189.566,60.7943 189.738,60.8172 189.915,60.8286 190.092,60.8343 190.263,60.8286 190.44,60.8172 190.612,60.7943 190.778,60.7657 190.943,60.7257 191.103,60.6801 191.263,60.6229 191.418,60.5658 191.572,60.4972 191.721,60.4172 191.863,60.3372 192,60.2458 192.137,60.1543 192.263,60.0515 192.389,59.9429 192.509,59.8286 192.623,59.7087 192.726,59.5887 192.829,59.4573 192.926,59.3201 193.012,59.183 193.097,59.0402 193.172,58.8916 193.24,58.7431 193.303,58.5831 193.355,58.4288 193.4,58.2631 193.44,58.0974 193.469,57.9317 193.492,57.7602 193.503,57.5831 193.509,57.406 193.503,57.2289 193.492,57.0574 193.469,56.8861 193.44,56.7204 193.4,56.5546 193.355,56.3889 193.303,56.2289 193.24,56.0747 193.172,55.9262 193.097,55.7776 193.012,55.6347 192.926,55.4919 192.829,55.3605 192.726,55.229 192.623,55.1033 192.509,54.989 192.389,54.8748 192.263,54.7663 192.137,54.6634 192,54.5662 191.863,54.4805 191.721,54.3949 191.572,54.3205 191.418,54.252 191.263,54.1891 191.103,54.1377 190.943,54.092 190.778,54.052 190.612,54.0234 190.44,54.0006 190.263,53.9892 190.092,53.9834 189.915,53.9892 189.738,54.0006 189.566,54.0234 189.401,54.052 189.235,54.092 189.075,54.1377 188.915,54.1891 188.761,54.252 188.606,54.3205 188.458,54.3949 188.315,54.4805 188.178,54.5662 188.046,54.6634 187.915,54.7663 187.789,54.8748 187.669,54.989 187.561,55.1033 187.452,55.229 187.349,55.3605 187.252,55.4919 187.166,55.6347 187.081,55.7776 187.007,55.9262 186.938,56.0747 186.875,56.2289 186.824,56.3889 186.778,56.5546 186.738,56.7204 186.709,56.8861 186.687,57.0574 186.675,57.2289 186.67,57.406 186.675,57.5831 186.687,57.7602 186.709,57.9317 186.738,58.0974 186.778,58.2631 186.824,58.4288 186.875,58.5831 186.938,58.7431 187.007,58.8916 187.081,59.0402 187.166,59.183 187.252,59.3201 "
         class="fil133"
         id="_123279416"
         style="fill:#da251d;fill-rule:evenodd" />
      <polygon
         transform="matrix(0.71623036,0,0,0.71623036,536.48291,-678.18958)"
         points="159.329,17.2893 159.432,17.4207 159.54,17.5407 159.655,17.6607 159.774,17.775 159.894,17.8836 160.026,17.9864 160.157,18.0778 160.3,18.1693 160.443,18.2493 160.586,18.3293 160.74,18.3978 160.894,18.455 161.054,18.5121 161.214,18.5578 161.38,18.5978 161.552,18.6264 161.723,18.6492 161.894,18.6606 162.072,18.6664 162.249,18.6606 162.42,18.6492 162.591,18.6264 162.757,18.5978 162.923,18.5578 163.089,18.5121 163.249,18.455 163.403,18.3978 163.551,18.3293 163.7,18.2493 163.843,18.1693 163.98,18.0778 164.117,17.9864 164.248,17.8836 164.368,17.775 164.488,17.6607 164.603,17.5407 164.711,17.4207 164.808,17.2893 164.906,17.1522 164.997,17.0151 165.077,16.8722 165.151,16.7236 165.22,16.5751 165.283,16.4151 165.334,16.2609 165.38,16.0952 165.42,15.9295 165.448,15.7637 165.471,15.5923 165.488,15.4152 165.488,15.2381 165.488,15.0667 165.471,14.8896 165.448,14.7181 165.42,14.5524 165.38,14.3867 165.334,14.221 165.283,14.061 165.22,13.9067 165.151,13.7582 165.077,13.6096 164.997,13.4668 164.906,13.324 164.808,13.1925 164.711,13.0611 164.603,12.9354 164.488,12.8212 164.368,12.7069 164.248,12.5983 164.117,12.4955 163.98,12.3983 163.843,12.3126 163.7,12.2269 163.551,12.1526 163.403,12.084 163.249,12.0212 163.089,11.9698 162.923,11.9241 162.757,11.884 162.591,11.8555 162.42,11.8326 162.249,11.8212 162.072,11.8155 161.894,11.8212 161.723,11.8326 161.552,11.8555 161.38,11.884 161.214,11.9241 161.054,11.9698 160.894,12.0212 160.74,12.084 160.586,12.1526 160.443,12.2269 160.3,12.3126 160.157,12.3983 160.026,12.4955 159.894,12.5983 159.774,12.7069 159.655,12.8212 159.54,12.9354 159.432,13.0611 159.329,13.1925 159.237,13.324 159.146,13.4668 159.066,13.6096 158.986,13.7582 158.917,13.9067 158.86,14.061 158.803,14.221 158.757,14.3867 158.723,14.5524 158.689,14.7181 158.672,14.8896 158.655,15.0667 158.649,15.2381 158.655,15.4152 158.672,15.5923 158.689,15.7637 158.723,15.9295 158.757,16.0952 158.803,16.2609 158.86,16.4151 158.917,16.5751 158.986,16.7236 159.066,16.8722 159.146,17.0151 159.237,17.1522 "
         class="fil133"
         id="_124278488"
         style="fill:#da251d;fill-rule:evenodd" />
      <polygon
         transform="matrix(0.71623036,0,0,0.71623036,536.48291,-678.18958)"
         points="131.228,94.2887 131.228,103.219 127.132,103.219 122.098,97.3342 122.098,103.219 119.469,103.219 119.469,94.2315 123.315,94.2315 128.543,100.431 128.543,94.2887 "
         class="fil132"
         id="_120314472"
         style="fill:#1f1a17;fill-rule:evenodd" />
      <polygon
         transform="matrix(0.71623036,0,0,0.71623036,536.48291,-678.18958)"
         points="133.48,94.163 135.994,94.163 135.994,103.219 133.48,103.219 "
         class="fil132"
         id="_120656768"
         style="fill:#1f1a17;fill-rule:evenodd" />
      <polygon
         transform="matrix(0.71623036,0,0,0.71623036,536.48291,-678.18958)"
         points="139.919,102.951 139.816,102.899 139.719,102.837 139.622,102.779 139.53,102.711 139.445,102.642 139.359,102.568 139.273,102.488 139.199,102.408 139.119,102.322 139.051,102.237 138.982,102.145 138.919,102.048 138.862,101.951 138.805,101.848 138.753,101.745 138.708,101.637 138.668,101.528 138.628,101.42 138.599,101.305 138.571,101.191 138.548,101.071 138.536,100.951 138.536,96.4256 138.536,96.2999 138.548,96.1742 138.565,96.0542 138.588,95.9343 138.616,95.82 138.651,95.7057 138.69,95.5915 138.736,95.4829 138.788,95.3743 138.845,95.2714 138.908,95.1743 138.976,95.0772 139.051,94.9858 139.125,94.9 139.205,94.8143 139.291,94.7343 139.376,94.6601 139.468,94.5858 139.565,94.5229 139.662,94.4601 139.765,94.403 139.873,94.3515 139.982,94.3058 140.09,94.2658 140.205,94.2315 140.319,94.203 140.439,94.1801 140.559,94.163 140.679,94.1515 140.799,94.1458 140.925,94.1515 141.05,94.1573 146.25,94.1573 146.364,94.163 146.473,94.1686 146.581,94.1801 146.69,94.203 146.793,94.2258 146.901,94.2486 147.004,94.2829 147.101,94.3172 147.198,94.3629 147.296,94.403 147.393,94.4544 147.484,94.5058 147.57,94.563 147.655,94.6258 147.736,94.6944 147.815,94.7629 147.896,94.8315 147.97,94.9058 148.038,94.9858 148.101,95.0657 148.164,95.1515 148.227,95.2428 148.278,95.3343 148.33,95.4257 148.381,95.5228 148.421,95.62 148.461,95.7171 148.495,95.82 148.524,95.9285 148.547,96.0314 148.564,96.1457 148.581,96.2542 148.581,97.4713 146.067,97.4713 146.056,97.357 146.039,97.2484 146.01,97.1456 145.97,97.0484 145.918,96.9513 145.861,96.8656 145.799,96.7856 145.724,96.7056 145.644,96.6427 145.559,96.5799 145.461,96.5285 145.364,96.4885 145.262,96.4599 145.159,96.4371 145.05,96.4256 144.936,96.4256 142.307,96.4256 142.244,96.4199 142.182,96.4256 142.125,96.4313 142.062,96.4371 142.005,96.4485 141.947,96.4599 141.89,96.4771 141.833,96.4942 141.725,96.5399 141.628,96.597 141.53,96.6599 141.439,96.7342 141.359,96.8142 141.285,96.9056 141.222,96.997 141.165,97.0998 141.142,97.1513 141.119,97.2084 141.102,97.2598 141.085,97.317 141.073,97.3741 141.062,97.437 141.056,97.4941 141.05,97.5569 141.05,99.8196 141.056,99.8825 141.062,99.9397 141.073,100.003 141.085,100.06 141.102,100.117 141.119,100.174 141.142,100.225 141.165,100.283 141.222,100.385 141.285,100.477 141.359,100.568 141.439,100.648 141.53,100.717 141.628,100.78 141.725,100.837 141.833,100.882 141.947,100.917 142.062,100.94 142.125,100.945 142.182,100.951 142.244,100.951 142.307,100.951 144.936,100.951 145.044,100.951 145.153,100.94 145.256,100.917 145.359,100.888 145.456,100.848 145.547,100.797 145.633,100.74 145.713,100.677 145.787,100.602 145.85,100.522 145.913,100.431 145.958,100.34 146.004,100.242 146.033,100.14 146.056,100.031 146.067,99.9168 148.564,99.9168 148.564,101.122 148.564,101.237 148.553,101.351 148.541,101.465 148.518,101.574 148.49,101.682 148.461,101.791 148.421,101.894 148.381,101.991 148.33,102.088 148.278,102.185 148.221,102.277 148.164,102.368 148.095,102.448 148.027,102.534 147.953,102.608 147.873,102.682 147.793,102.751 147.707,102.819 147.621,102.882 147.53,102.939 147.433,102.991 147.336,103.037 147.238,103.082 147.136,103.117 147.033,103.151 146.924,103.179 146.816,103.197 146.707,103.214 146.593,103.225 146.479,103.225 146.364,103.225 146.25,103.214 141.05,103.214 140.93,103.214 140.81,103.202 140.69,103.191 140.576,103.174 140.462,103.145 140.348,103.117 140.239,103.082 140.13,103.042 140.022,102.997 "
         class="fil132"
         id="_121160288"
         style="fill:#1f1a17;fill-rule:evenodd" />
      <path
         d="m 646.51882,-605.27948 -0.44199,1.03124 -1.91527,0 2.65191,-6.41694 2.9465,0 2.72555,6.41694 -2.0626,0 -0.29466,-1.03124 -3.60944,0 z m 2.87287,-1.55107 -2.20993,0 1.10493,-2.72964 1.105,2.72964 z"
         class="fil132"
         id="_122154672"
         inkscape:connector-curvature="0"
         style="fill:#1f1a17;fill-rule:evenodd" />
      <polygon
         transform="matrix(0.71623036,0,0,0.71623036,536.48291,-678.18958)"
         points="175.733,94.123 178.59,94.123 178.59,103.179 176.076,103.179 176.076,98.3284 173.162,103.179 169.882,103.179 166.591,98.0426 166.591,103.179 164.077,103.179 164.077,94.123 166.974,94.123 171.511,101.185 "
         class="fil132"
         id="_71921840"
         style="fill:#1f1a17;fill-rule:evenodd" />
      <path
         d="m 666.05185,-604.261 0,-6.56425 5.66796,0 0.086,0 0.0778,0.008 0.0819,0.008 0.0777,0.0164 0.0737,0.0164 0.0777,0.0246 0.0737,0.0246 0.0696,0.0286 0.0695,0.0327 0.0696,0.0369 0.0655,0.0409 0.0655,0.0409 0.0613,0.045 0.0614,0.0491 0.0573,0.0533 0.0573,0.0531 0.0532,0.0573 0.0532,0.0573 0.0491,0.0614 0.0491,0.0654 0.045,0.0656 0.041,0.0695 0.0409,0.0696 0.0369,0.0695 0.0327,0.0736 0.0328,0.0736 0.0327,0.0778 0.0246,0.0778 0.0245,0.0819 0.0205,0.0777 0.0205,0.0819 0.0123,0.0819 0,1.77196 0,0.0819 -0.008,0.0819 -0.0122,0.0819 -0.0164,0.0818 -0.0164,0.0778 -0.0245,0.0819 -0.0287,0.0778 -0.0327,0.0736 -0.0368,0.0736 -0.0369,0.0737 -0.045,0.0696 -0.0451,0.0696 -0.0491,0.0696 -0.0492,0.0614 -0.0572,0.0655 -0.0573,0.0573 -0.0573,0.0573 -0.0655,0.0573 -0.0614,0.0532 -0.0695,0.045 -0.0696,0.0491 -0.0695,0.0409 -0.0737,0.0409 -0.0736,0.0328 -0.0737,0.0327 -0.0778,0.0287 -0.0777,0.0246 -0.0819,0.0205 -0.0777,0.0164 -0.0819,0.008 -0.0819,0.008 -0.086,0.004 -3.75269,0 0,1.47329 -1.91527,0 z m 1.91527,-3.24531 0,-1.62469 2.86879,0 0.10228,0.008 0.0941,0.0123 0.0859,0.0205 0.0819,0.0286 0.0736,0.0368 0.0695,0.045 0.0615,0.0491 0.0531,0.0531 0.0491,0.0615 0.041,0.0614 0.0368,0.0696 0.0286,0.0696 0.0246,0.0736 0.0164,0.0736 0.008,0.0737 0.004,0.0777 -0.004,0.0738 -0.008,0.0777 -0.0164,0.0737 -0.0246,0.0736 -0.0286,0.0695 -0.0368,0.0655 -0.041,0.0655 -0.0491,0.0573 -0.0531,0.0533 -0.0615,0.0491 -0.0695,0.045 -0.0736,0.0368 -0.0819,0.0286 -0.0859,0.0246 -0.0941,0.0123 -0.10228,0.004 -2.86879,0 z"
         class="fil132"
         id="_121452640"
         inkscape:connector-curvature="0"
         style="fill:#1f1a17;fill-rule:evenodd" />
      <polygon
         transform="matrix(0.71623036,0,0,0.71623036,536.48291,-678.18958)"
         points="116.098,102.951 116.19,102.905 116.281,102.854 116.367,102.796 116.452,102.739 116.532,102.671 116.612,102.602 116.687,102.534 116.755,102.459 116.824,102.379 116.892,102.299 116.95,102.214 117.007,102.128 117.058,102.037 117.104,101.939 117.15,101.848 117.19,101.745 117.218,101.648 117.252,101.545 117.275,101.437 117.292,101.334 117.304,101.225 117.315,101.111 117.315,101.002 117.315,94.1801 114.801,94.1801 114.801,99.7682 114.801,99.8254 114.795,99.8825 114.79,99.9397 114.778,99.9968 114.75,100.105 114.715,100.208 114.664,100.305 114.607,100.402 114.544,100.488 114.47,100.568 114.39,100.643 114.304,100.705 114.207,100.762 114.11,100.814 114.007,100.848 113.898,100.877 113.841,100.888 113.784,100.894 113.727,100.9 113.67,100.9 109.59,100.9 109.533,100.9 109.476,100.894 109.419,100.888 109.362,100.877 109.253,100.848 109.15,100.814 109.053,100.762 108.956,100.705 108.87,100.643 108.79,100.568 108.716,100.488 108.653,100.402 108.596,100.305 108.545,100.208 108.51,100.105 108.482,99.9968 108.47,99.9397 108.465,99.8825 108.459,99.8254 108.459,99.7682 108.459,94.1058 105.945,94.1058 105.945,101.002 105.945,101.111 105.956,101.225 105.968,101.334 105.985,101.437 106.013,101.545 106.042,101.648 106.076,101.745 106.116,101.848 106.156,101.939 106.208,102.037 106.259,102.128 106.316,102.214 106.373,102.299 106.436,102.379 106.505,102.459 106.579,102.534 106.653,102.602 106.733,102.671 106.813,102.739 106.899,102.796 106.985,102.854 107.076,102.905 107.173,102.951 107.265,102.997 107.362,103.037 107.465,103.071 107.567,103.099 107.67,103.122 107.779,103.139 107.887,103.156 107.996,103.162 108.105,103.168 115.155,103.168 115.27,103.162 115.378,103.156 115.487,103.139 115.595,103.122 115.698,103.099 115.801,103.071 115.904,103.037 116.001,102.997 "
         class="fil132"
         id="_119311000"
         style="fill:#1f1a17;fill-rule:evenodd" />
      <polygon
         transform="matrix(0.71623036,0,0,0.71623036,536.48291,-678.18958)"
         points="181.858,40.6074 181.618,40.0474 181.373,39.4875 181.121,38.9218 180.87,38.3676 180.619,37.8077 180.356,37.2534 180.099,36.6934 179.836,36.1392 179.567,35.5907 179.299,35.0364 179.024,34.4879 178.75,33.9394 178.47,33.3908 178.19,32.848 177.905,32.2995 177.756,32.0424 177.613,31.7853 177.464,31.5339 177.31,31.2768 177.162,31.0253 177.013,30.7682 176.859,30.5168 176.705,30.2654 176.55,30.014 176.396,29.7626 176.242,29.5112 176.082,29.2598 175.927,29.0141 175.767,28.7626 175.608,28.517 175.447,28.2656 154.546,49.201 154.792,49.5038 155.026,49.8124 155.255,50.1323 155.478,50.4523 155.683,50.778 155.889,51.1094 155.981,51.2751 156.078,51.4465 156.169,51.6179 156.255,51.7893 182.098,41.1731 "
         class="fil132"
         id="_120796432"
         style="fill:#1f1a17;fill-rule:evenodd" />
      <polygon
         transform="matrix(0.71623036,0,0,0.71623036,536.48291,-678.18958)"
         points="183.995,56.4175 183.955,56.5546 183.921,56.6918 183.887,56.8346 157.752,56.8346 157.712,56.4575 157.666,56.0804 157.609,55.709 157.546,55.3376 157.466,54.9662 157.381,54.6005 157.329,54.4177 157.283,54.2348 157.226,54.0577 157.169,53.8749 183.001,43.2757 183.235,43.8872 183.464,44.5043 183.693,45.1213 183.921,45.7384 184.144,46.3555 184.367,46.9783 184.584,47.5954 184.795,48.2182 185.007,48.841 185.212,49.4695 185.418,50.0924 185.618,50.7208 185.818,51.3494 186.012,51.9779 186.201,52.6064 186.389,53.2406 186.269,53.3149 186.155,53.3949 186.041,53.4749 185.932,53.5606 185.824,53.652 185.715,53.7435 185.612,53.8349 185.51,53.932 185.407,54.0291 185.31,54.132 185.218,54.2348 185.127,54.3377 185.035,54.4463 184.95,54.5549 184.864,54.6691 184.784,54.7776 184.704,54.8977 184.63,55.012 184.555,55.1319 184.487,55.2576 184.424,55.3776 184.355,55.5033 184.298,55.629 184.241,55.7547 184.184,55.8861 184.132,56.0175 184.081,56.149 184.035,56.2861 "
         class="fil132"
         id="_123345248"
         style="fill:#1f1a17;fill-rule:evenodd" />
    </g>
  </g>
</svg>
