<?xml version="1.0" encoding="UTF-8" standalone="no"?>
<!-- Created with Inkscape (http://www.inkscape.org/) -->

<svg
   xmlns:dc="http://purl.org/dc/elements/1.1/"
   xmlns:cc="http://creativecommons.org/ns#"
   xmlns:rdf="http://www.w3.org/1999/02/22-rdf-syntax-ns#"
   xmlns:svg="http://www.w3.org/2000/svg"
   xmlns="http://www.w3.org/2000/svg"
   xmlns:sodipodi="http://sodipodi.sourceforge.net/DTD/sodipodi-0.dtd"
   xmlns:inkscape="http://www.inkscape.org/namespaces/inkscape"
   id="svg2"
   version="1.1"
   inkscape:version="0.91 r13725"
   xml:space="preserve"
   width="591.25"
   height="617.5"
   viewBox="0 0 591.25 617.5"
   sodipodi:docname="logo_iq.svg"
   inkscape:export-filename="/home/leandro/public_html/camila/page_images/logo_iq.png"
   inkscape:export-xdpi="152"
   inkscape:export-ydpi="152"><metadata
     id="metadata8"><rdf:RDF><cc:Work
         rdf:about=""><dc:format>image/svg+xml</dc:format><dc:type
           rdf:resource="http://purl.org/dc/dcmitype/StillImage" /><dc:title></dc:title></cc:Work></rdf:RDF></metadata><defs
     id="defs6" /><sodipodi:namedview
     pagecolor="#ffffff"
     bordercolor="#666666"
     borderopacity="1"
     objecttolerance="10"
     gridtolerance="10"
     guidetolerance="10"
     inkscape:pageopacity="0"
     inkscape:pageshadow="2"
     inkscape:window-width="1543"
     inkscape:window-height="975"
     id="namedview4"
     showgrid="false"
     inkscape:zoom="0.80422495"
     inkscape:cx="92.135697"
     inkscape:cy="453.33952"
     inkscape:window-x="223"
     inkscape:window-y="32"
     inkscape:window-maximized="0"
     inkscape:current-layer="g10" /><g
     id="g10"
     inkscape:groupmode="layer"
     inkscape:label="ink_ext_XXXXXX"
     transform="matrix(1.25,0,0,-1.25,0,617.5)"><path
       inkscape:connector-curvature="0"
       id="path14"
       style="fill:#37abde;fill-opacity:1;fill-rule:evenodd;stroke:none"
       d="m 0.458984,0.298047 472.278996,0 0,493.064003 -472.278996,0 0,-493.064003 z" /><path
       inkscape:connector-curvature="0"
       id="path16"
       style="fill:#ffffff;fill-opacity:1;fill-rule:evenodd;stroke:none"
       d="m 6.88906,7.01094 459.419,0 0,479.638 -459.419,0 0,-479.638 z" /><path
       inkscape:connector-curvature="0"
       id="path18"
       style="fill:#37abde;fill-opacity:1;fill-rule:evenodd;stroke:#37abde;stroke-opacity:1"
       d="m 6.88906,486.649 459.41894,0 0,-5.545 c -4.91,-0.346 -9.81,-0.792 -14.685,-1.425 C 251.104,453.626 54.4281,262.171 17.7168,48.6152 15.332,34.7434 14.1023,20.8555 13.9051,7.01094 l -7.01604,0 0,479.63806 z M 296.926,230.568 c -13.333,-3.979 -26.262,-5.969 -38.787,-5.969 -31.11,0 -56.26,11.829 -75.452,35.487 -17.575,21.668 -26.362,47.426 -26.362,77.275 0,28.964 8.585,53.506 25.756,73.627 19.394,22.773 45.958,34.16 79.695,34.16 32.726,0 59.291,-11.94 79.694,-35.819 18.585,-21.668 27.878,-47.758 27.878,-78.27 0,-18.351 -3.737,-35.155 -11.212,-50.411 -8.08,-16.583 -19.999,-29.959 -35.756,-40.13 12.472,-17.745 49.121,-19.234 42.258,10.812 l 11.447,5.64 c 15.196,-42.798 -13.63,-74.401 -34.264,-74.126 -16.047,0.214 -38.453,18.489 -44.895,47.724 z m -74.649,56.975 c 10.743,17.105 67.627,12.477 75.245,-1.524 8.383,36.401 6.717,137.622 -41.628,131.754 -53.155,-6.452 -45.559,-88.181 -33.617,-130.23 z m 57.478,-36.939 c -15.407,23.971 -31.359,35.545 -56.684,28.189 5.495,-25.768 37.794,-35.22 56.684,-28.189 z m -140.977,-22.689 -96.669,0 0,10.262 c 7.2961,0 12.6031,2.212 15.9191,6.633 3.316,4.421 4.975,10.724 4.975,18.904 l 0,142.17 c 0,7.96 -1.7695,14.262 -5.307,18.904 -3.5367,4.642 -8.7332,6.965 -15.5871,6.965 l 0,10.742 94.016,0 0,-10.742 c -7.739,0 -13.155,-2.045 -16.251,-6.136 -3.096,-4.09 -4.644,-9.675 -4.644,-16.748 l 0,-145.155 c 0,-7.515 2.268,-13.654 6.799,-18.406 4.532,-4.754 10.116,-7.131 16.749,-7.131 l 0,-10.262" /><path
       inkscape:connector-curvature="0"
       id="path20"
       style="fill:#37abde;fill-opacity:1;fill-rule:nonzero;stroke:none"
       d="m 292.941,80.5215 9.118,12.9238 4.699,-3.3156 -9.118,-12.9234 -4.699,3.3152 z m 141.968,-27.6242 0,1.4711 c -1.636,-0.3098 -3.139,-1.0063 -4.509,-2.0903 -1.217,-0.9289 -2.225,-2.0902 -3.024,-3.4836 -0.19,-0.4129 -0.4,-0.9937 -0.629,-1.7418 -0.227,-0.7484 -0.341,-1.355 -0.341,-1.8195 0,-1.3937 0.494,-2.5285 1.483,-3.4059 0.647,-0.7746 1.275,-1.1617 1.884,-1.1617 1.407,0 2.615,1.2258 3.623,3.677 1.009,2.4519 1.513,5.3031 1.513,8.5547 z m 13.696,-18.8891 -11.87,0 c -0.342,0.4125 -0.628,0.9031 -0.856,1.4707 -0.075,0.2063 -0.4,1.2899 -0.97,3.2516 -1.341,-1.8067 -2.911,-3.2 -4.709,-4.1805 -1.797,-0.9809 -3.633,-1.4707 -5.507,-1.4707 -2.416,0 -4.423,0.8 -6.03,2.3996 -1.759,1.7547 -2.645,4.0254 -2.645,6.8125 l 0,0.6969 c 0,5.316 2.493,9.3414 7.477,12.0769 0.951,0.5164 4.756,1.8321 11.414,3.9481 l 0,1.316 c 0,1.8582 -0.475,3.2777 -1.427,4.2578 -0.951,0.9809 -2.149,1.4711 -3.595,1.4711 -2.017,0 -3.995,-0.8648 -5.935,-2.5934 -1.941,-1.7289 -3.12,-3.9617 -3.539,-6.6964 l -1.769,0.4644 1.313,13.7024 c 0.684,-0.7739 1.369,-1.161 2.054,-1.161 1.978,0.6188 4.004,1.1871 6.078,1.7031 2.073,0.5161 4.195,0.7743 6.363,0.7743 4.337,0 7.477,-1.368 9.417,-4.1032 1.408,-1.9609 2.111,-4.3867 2.111,-7.2769 l 0,-20.3606 c 0,-1.4968 0.095,-2.4515 0.286,-2.8648 0.342,-0.7738 1.122,-1.1609 2.339,-1.1609 l 0,-2.477 z m -34.127,11.8445 -4.109,-13.6254 c -0.039,0.2582 -0.248,0.5161 -0.628,0.7747 -0.381,0.2574 -0.761,0.3867 -1.142,0.3867 -0.189,0 -1.388,-0.1551 -3.595,-0.4641 -1.103,-0.1551 -2.073,-0.2324 -2.911,-0.2324 l -1.768,0 c -5.023,0.6187 -8.98,3.0965 -11.871,7.4316 -2.625,3.9219 -3.938,8.6707 -3.938,14.2446 0,5.2125 1.474,9.4961 4.423,12.8511 2.949,3.3547 6.458,5.0321 10.529,5.0321 0.8,0 1.789,-0.1032 2.968,-0.3098 2.702,-0.4645 4.28,-0.6965 4.737,-0.6965 0.684,0 1.274,0.1156 1.769,0.3481 0.494,0.2324 0.818,0.6582 0.971,1.2773 l 2.739,-15.6379 -1.769,-0.4644 c -0.305,2.7871 -1.142,4.9804 -2.512,6.58 -1.369,1.6 -2.891,2.4004 -4.565,2.4004 -1.979,0 -3.691,-1.0582 -5.137,-3.1742 -1.636,-2.3742 -2.453,-5.4969 -2.453,-9.3676 l 0.171,-1.4707 c 0.228,-3.5093 1.132,-6.3867 2.71,-8.632 1.579,-2.2449 3.415,-3.3676 5.508,-3.3676 1.522,0 3.015,0.5934 4.48,1.7809 1.464,1.1871 2.825,3.0191 4.08,5.4961 l 1.313,-1.161 z m -31.56,-11.8445 -16.778,0 0,2.477 c 1.445,0 2.358,0.4386 2.739,1.316 0.266,0.6195 0.399,1.9617 0.399,4.0261 l 0,21.4438 c 0,1.6 -0.114,2.684 -0.342,3.2516 -0.418,1.0836 -1.351,1.7293 -2.796,1.9355 l 0,2.477 13.525,1.3164 0,-28.7989 c 0,-2.6324 0.162,-4.4 0.486,-5.3027 0.323,-0.9031 1.245,-1.4586 2.767,-1.6648 l 0,-2.477 z m -2.625,48.927 c 0,-2.2711 -0.58,-4.0258 -1.741,-5.2645 -1.161,-1.2391 -2.539,-1.8582 -4.137,-1.8582 -1.484,0 -2.759,0.5938 -3.824,1.7809 -1.218,1.3414 -1.826,3.1222 -1.826,5.3418 l 0,0.8511 c 0,1.9098 0.551,3.4063 1.664,4.4899 1.113,1.0843 2.35,1.6258 3.701,1.6258 1.626,0 3.053,-0.6059 4.298,-1.8192 1.247,-1.2125 1.865,-2.9285 1.865,-5.1476 z m -16.779,-48.927 -18.148,0 0,2.477 c 1.408,0 2.321,0.5933 2.739,1.7804 0.266,0.7227 0.4,2.0645 0.4,4.0258 l 0,16.7219 c 0,1.7031 -0.191,2.9418 -0.571,3.7164 -0.38,0.7738 -0.875,1.1609 -1.483,1.1609 -1.028,0 -2.103,-0.8129 -3.225,-2.4386 -1.122,-1.6258 -1.683,-3.1872 -1.683,-4.6836 l 0,-13.7801 c 0,-1.7547 0.113,-3.0707 0.341,-3.9481 0.457,-1.7031 1.352,-2.555 2.683,-2.555 l 0,-2.477 -17.179,0 0,2.477 c 1.523,0 2.531,0.7742 3.025,2.323 0.305,0.9285 0.457,2.4766 0.457,4.6445 l 0,14.477 c 0,2.1672 -0.238,3.7676 -0.713,4.8 -0.476,1.032 -1.075,1.548 -1.798,1.548 -1.027,0 -2.102,-0.9164 -3.224,-2.7484 -1.123,-1.832 -1.684,-3.6258 -1.684,-5.3805 l 0,-13.1605 c 0,-1.961 0.133,-3.3551 0.399,-4.1801 0.495,-1.5488 1.522,-2.323 3.083,-2.323 l 0,-2.477 -17.122,0 0,2.477 c 1.37,0 2.264,0.4906 2.683,1.4707 0.266,0.6199 0.399,1.9097 0.399,3.8714 l 0,21.4438 c 0,2.0133 -0.114,3.3551 -0.342,4.0262 -0.419,1.2382 -1.332,1.8574 -2.74,1.8574 l 0,2.4004 12.213,1.3156 c 0.457,-1.1355 0.809,-2.4387 1.056,-3.9094 0.248,-1.4711 0.371,-2.7738 0.371,-3.9097 1.445,2.4257 3.101,4.3867 4.965,5.8836 1.865,1.4972 3.69,2.2453 5.479,2.2453 1.521,0 2.968,-0.6325 4.337,-1.8969 1.37,-1.2641 2.473,-3.1867 3.311,-5.7672 1.255,2.3223 2.805,4.1805 4.65,5.5738 1.845,1.3934 3.701,2.0903 5.565,2.0903 2.092,0 3.785,-0.9032 5.079,-2.7098 1.484,-2.0644 2.226,-5.0578 2.226,-8.9805 l 0,-18.5019 c 0,-2.5805 0.371,-4.3098 1.113,-5.1871 0.742,-0.8774 1.854,-1.316 3.338,-1.316 l 0,-2.477 z m -55.415,0 -16.779,0 0,2.477 c 1.446,0 2.359,0.4386 2.74,1.316 0.267,0.6195 0.399,1.9617 0.399,4.0261 l 0,21.4438 c 0,1.6 -0.114,2.684 -0.343,3.2516 -0.417,1.0836 -1.35,1.7293 -2.796,1.9355 l 0,2.477 13.526,1.3164 0,-28.7989 c 0,-2.6324 0.162,-4.4 0.486,-5.3027 0.323,-0.9031 1.245,-1.4586 2.767,-1.6648 l 0,-2.477 z m -19.575,0 -12.669,0 c -0.419,0.8258 -0.685,1.7031 -0.799,2.632 -0.115,0.9289 -0.172,2.2192 -0.172,3.8707 -1.293,-2.2191 -2.995,-4.0129 -5.107,-5.3804 -2.112,-1.368 -4.176,-2.0512 -6.192,-2.0512 -2.207,0 -3.976,0.8254 -5.308,2.477 -1.484,1.8062 -2.225,4.439 -2.225,7.8964 l 0,20.2828 c 0,1.6512 -0.096,2.7356 -0.286,3.2516 -0.38,0.9805 -1.16,1.4711 -2.34,1.4711 l 0,2.477 13.64,1.3164 0,-26.3989 c 0,-2.8906 0.685,-4.3351 2.055,-4.3351 1.217,0 2.482,0.9676 3.795,2.9023 1.312,1.936 1.968,3.9875 1.968,6.1555 l 0,12.6957 c 0,1.548 -0.114,2.632 -0.342,3.2516 -0.419,1.0836 -1.312,1.7293 -2.682,1.9355 l 0,2.477 13.697,1.3164 0,-29.9602 c 0,-1.7547 0.114,-2.9934 0.342,-3.7156 0.456,-1.3938 1.332,-2.0906 2.625,-2.0906 l 0,-2.477 z m -57.241,6.0383 c -0.304,0.6191 -0.742,1.316 -1.313,2.0898 -0.57,0.7746 -1.179,1.4196 -1.825,1.9356 -1.523,1.6519 -3.558,2.4773 -6.107,2.4773 0.418,-1.6515 1.236,-3.1996 2.453,-4.6445 1.447,-1.7035 2.949,-2.5551 4.509,-2.5551 0.229,0 0.524,0.052 0.885,0.1547 0.361,0.1035 0.828,0.284 1.398,0.5422 z m 5.022,15.7543 c 0,5.3414 -0.646,10.2449 -1.941,14.709 -1.483,5.0316 -3.385,7.8312 -5.706,8.3996 l -1.598,0 c -2.397,0 -4.214,-1.6004 -5.45,-4.7996 -1.237,-3.2004 -1.855,-7.2 -1.855,-12 0,-2.2707 0.171,-4.6321 0.513,-7.0836 0.343,-2.4512 0.78,-4.6832 1.313,-6.6965 1.218,0.7746 2.407,1.3683 3.567,1.7805 1.16,0.4128 2.368,0.6199 3.624,0.6199 1.332,0 2.539,-0.284 3.624,-0.852 1.084,-0.5676 2.026,-1.5222 2.825,-2.8644 0.342,1.032 0.608,2.3613 0.799,3.9609 0.19,1.6129 0.285,3.2258 0.285,4.8262 z m 14.61,-20.3219 c 0,-4.0254 -0.676,-7.0969 -2.026,-9.2129 -1.35,-2.1156 -2.996,-3.1738 -4.936,-3.1738 -1.789,0 -3.548,0.9293 -5.28,2.7867 -1.73,1.8582 -2.996,4.3613 -3.794,7.5098 -1.066,-0.3094 -2.132,-0.5289 -3.197,-0.6582 -1.065,-0.1289 -2.244,-0.1934 -3.537,-0.1934 -6.545,0 -11.757,2.7609 -15.638,8.2832 -3.462,4.9035 -5.194,10.916 -5.194,18.0379 0,7.2258 1.732,13.3934 5.194,18.5027 3.843,5.6774 8.903,8.5161 15.181,8.5161 6.81,0 12.137,-2.8133 15.98,-8.4383 3.386,-4.9551 5.078,-11.0965 5.078,-18.4254 0,-4.284 -0.684,-8.3738 -2.054,-12.2703 -1.37,-3.8969 -3.272,-6.9547 -5.708,-9.1739 1.523,-2.0644 3.159,-3.0964 4.909,-3.0964 0.837,0 1.541,0.3613 2.111,1.0836 0.571,0.7222 0.857,1.7289 0.857,3.0195 l 0,1.4707 1.826,0.4644 0.228,-5.032 z m -79.898,22.9152 c -0.228,1.445 -0.533,2.6454 -0.913,3.6 -0.381,0.9547 -0.837,1.7676 -1.37,2.4379 -0.38,0.4649 -0.837,0.7614 -1.37,0.8907 -0.532,0.1293 -1.236,0.1937 -2.111,0.1937 -0.989,-0.2582 -1.874,-1.0453 -2.653,-2.3484 -0.781,-1.3157 -1.171,-2.9032 -1.171,-4.7481 l 0.229,-2.2449 9.359,2.2191 z m 11.015,-1.6257 -20.374,-5.4969 c 0.608,-3.9219 1.712,-6.9672 3.31,-9.1352 1.446,-1.9609 3.101,-2.9418 4.965,-2.9418 1.864,0 3.728,0.9164 5.593,2.7485 1.864,1.832 3.272,4.116 4.223,6.8515 l 1.312,-1.1609 -3.481,-15.4063 c -0.19,0.4125 -0.523,0.7356 -0.999,0.968 -0.475,0.232 -1.055,0.3481 -1.74,0.3481 -0.457,0 -1.978,-0.1805 -4.566,-0.5414 -1.483,-0.2071 -2.568,-0.3098 -3.253,-0.3098 l -0.799,0 c -4.641,0 -8.579,2.2191 -11.813,6.6574 -3.006,4.1289 -4.509,8.7477 -4.509,13.8574 0,5.8836 1.826,10.5801 5.479,14.0903 3.272,3.148 7.115,4.7218 11.528,4.7218 3.843,0 7.153,-1.264 9.93,-3.7929 3.044,-2.7871 4.775,-6.6063 5.194,-11.4578 z m -48.511,-13.7801 0,23.689 -0.855,0 c -2.626,0 -4.842,-1.4449 -6.648,-4.3347 -1.808,-2.8906 -2.712,-6.5809 -2.712,-11.0711 0,-3.7676 0.799,-6.761 2.398,-8.9801 1.331,-1.8578 2.853,-2.7871 4.565,-2.7871 0.875,0 1.636,0.3359 2.282,1.0066 0.647,0.6707 0.97,1.4965 0.97,2.4774 z m 13.641,-8.9801 -21.916,0 c -4.07,0 -7.361,1.832 -9.872,5.4961 -2.283,3.3551 -3.424,7.432 -3.424,12.232 0,5.5223 1.407,10.2446 4.222,14.1668 3.196,4.4387 7.496,6.6578 12.898,6.6578 l 4.451,-0.3093 0,4.6449 c 0,1.8578 -0.275,3.1094 -0.826,3.7547 -0.552,0.6449 -1.437,0.9676 -2.655,0.9676 l 0,2.4773 14.496,1.1609 0,-43.4297 c 0,-1.7554 0.096,-2.9418 0.285,-3.5617 0.381,-1.1871 1.161,-1.7804 2.341,-1.7804 l 0,-2.477 z m 289.802,83.0778 c 0,3.974 -0.551,7.109 -1.664,9.406 -1.114,2.297 -2.407,3.445 -3.872,3.445 -1.427,0 -2.673,-1.033 -3.728,-3.097 -1.171,-2.27 -1.751,-5.264 -1.751,-8.98 l 0,-0.774 c 0,-4.593 0.571,-8.232 1.713,-10.916 1.026,-2.374 2.263,-3.561 3.709,-3.561 1.56,0 2.882,1.265 3.967,3.793 1.084,2.53 1.626,6.091 1.626,10.684 z m 11.641,-1.471 c 0,-5.935 -1.853,-10.735 -5.573,-14.399 -3.377,-3.3031 -7.334,-4.9551 -11.889,-4.9551 -4.433,0 -8.19,1.6 -11.262,4.8001 -3.453,3.613 -5.174,8.464 -5.174,14.554 l 0,0.62 c 0,5.935 1.807,10.708 5.421,14.322 3.272,3.251 7.172,4.877 11.7,4.877 l 1.198,0 c 4.261,0 7.857,-1.652 10.786,-4.955 3.196,-3.613 4.793,-8.568 4.793,-14.864 z m -35.04,-5.187 -3.082,-11.38 c -0.988,-0.671 -2.187,-1.2257 -3.595,-1.6644 -1.408,-0.4387 -2.929,-0.6578 -4.565,-0.6578 -2.664,0 -4.813,0.7484 -6.45,2.2449 -1.939,1.8063 -2.91,4.5933 -2.91,8.3613 l 0,22.063 -3.938,0 0,2.477 c 1.256,0 2.349,0.813 3.282,2.439 0.931,1.626 1.398,3.728 1.398,6.309 0,0.775 -0.019,1.419 -0.057,1.936 -0.038,0.516 -0.152,1.135 -0.343,1.858 2.055,0.567 3.824,1.239 5.308,2.013 1.484,0.774 3.12,1.884 4.908,3.328 l 0,-15.637 4.452,0 c 0.798,0 1.464,0.064 1.997,0.193 0.532,0.129 1.027,0.503 1.484,1.123 l -1.827,-6.504 c -0.532,0.207 -1.056,0.336 -1.569,0.388 -0.513,0.051 -1.151,0.077 -1.912,0.077 l -2.625,0 0,-18.502 c 0,-2.168 0.304,-3.793 0.913,-4.878 0.609,-1.083 1.389,-1.625 2.34,-1.625 0.989,0 1.997,0.645 3.024,1.935 1.028,1.291 1.693,2.813 1.998,4.568 l 1.769,-0.465 z m -27.222,-12.5413 -12.67,0 c -0.418,0.8258 -0.684,1.7031 -0.798,2.6323 -0.115,0.929 -0.172,2.219 -0.172,3.871 -1.293,-2.219 -2.996,-4.013 -5.107,-5.3806 -2.112,-1.368 -4.176,-2.0516 -6.192,-2.0516 -2.208,0 -3.977,0.8258 -5.308,2.4774 -1.484,1.8058 -2.225,4.4388 -2.225,7.8968 l 0,20.283 c 0,1.651 -0.096,2.735 -0.286,3.251 -0.381,0.98 -1.16,1.471 -2.34,1.471 l 0,2.477 13.64,1.316 0,-26.399 c 0,-2.89 0.685,-4.335 2.055,-4.335 1.217,0 2.482,0.968 3.794,2.903 1.313,1.936 1.969,3.987 1.969,6.155 l 0,12.696 c 0,1.548 -0.114,2.632 -0.342,3.252 -0.419,1.083 -1.313,1.729 -2.682,1.935 l 0,2.477 13.696,1.316 0,-29.96 c 0,-1.755 0.114,-2.993 0.343,-3.716 0.456,-1.393 1.332,-2.09 2.625,-2.09 l 0,-2.4773 z m -36.582,12.5413 -3.082,-11.38 c -0.989,-0.671 -2.187,-1.2257 -3.595,-1.6644 -1.407,-0.4387 -2.929,-0.6578 -4.566,-0.6578 -2.663,0 -4.813,0.7484 -6.448,2.2449 -1.941,1.8063 -2.911,4.5933 -2.911,8.3613 l 0,22.063 -3.938,0 0,2.477 c 1.256,0 2.35,0.813 3.282,2.439 0.931,1.626 1.398,3.728 1.398,6.309 0,0.775 -0.019,1.419 -0.057,1.936 -0.038,0.516 -0.152,1.135 -0.342,1.858 2.054,0.567 3.823,1.239 5.307,2.013 1.484,0.774 3.12,1.884 4.908,3.328 l 0,-15.637 4.451,0 c 0.799,0 1.465,0.064 1.998,0.193 0.532,0.129 1.027,0.503 1.484,1.123 l -1.827,-6.504 c -0.532,0.207 -1.055,0.336 -1.569,0.388 -0.514,0.051 -1.151,0.077 -1.912,0.077 l -2.625,0 0,-18.502 c 0,-2.168 0.304,-3.793 0.913,-4.878 0.609,-1.083 1.388,-1.625 2.34,-1.625 0.989,0 1.997,0.645 3.025,1.935 1.026,1.291 1.693,2.813 1.997,4.568 l 1.769,-0.465 z m -26.366,-12.5413 -16.779,0 0,2.4773 c 1.446,0 2.359,0.439 2.739,1.316 0.267,0.62 0.4,1.961 0.4,4.026 l 0,21.444 c 0,1.6 -0.114,2.684 -0.342,3.252 -0.419,1.083 -1.351,1.729 -2.797,1.935 l 0,2.477 13.526,1.316 0,-28.798 c 0,-2.633 0.162,-4.401 0.485,-5.303 0.323,-0.904 1.246,-1.459 2.768,-1.665 l 0,-2.4773 z m -2.625,48.9273 c 0,-2.271 -0.581,-4.026 -1.741,-5.264 -1.16,-1.239 -2.54,-1.859 -4.138,-1.859 -1.483,0 -2.758,0.594 -3.823,1.781 -1.218,1.342 -1.826,3.122 -1.826,5.342 l 0,0.851 c 0,1.91 0.551,3.406 1.664,4.49 1.112,1.084 2.349,1.626 3.7,1.626 1.627,0 3.053,-0.606 4.299,-1.819 1.246,-1.213 1.865,-2.929 1.865,-5.148 z m -15.637,-36.386 -3.083,-11.38 c -0.988,-0.671 -2.187,-1.2257 -3.595,-1.6644 -1.407,-0.4387 -2.929,-0.6578 -4.566,-0.6578 -2.663,0 -4.812,0.7484 -6.448,2.2449 -1.941,1.8063 -2.911,4.5933 -2.911,8.3613 l 0,22.063 -3.937,0 0,2.477 c 1.255,0 2.349,0.813 3.281,2.439 0.932,1.626 1.398,3.728 1.398,6.309 0,0.775 -0.018,1.419 -0.057,1.936 -0.038,0.516 -0.152,1.135 -0.342,1.858 2.054,0.567 3.823,1.239 5.307,2.013 1.484,0.774 3.12,1.884 4.909,3.328 l 0,-15.637 4.45,0 c 0.8,0 1.466,0.064 1.999,0.193 0.532,0.129 1.026,0.503 1.483,1.123 l -1.826,-6.504 c -0.533,0.207 -1.056,0.336 -1.57,0.388 -0.514,0.051 -1.151,0.077 -1.912,0.077 l -2.624,0 0,-18.502 c 0,-2.168 0.304,-3.793 0.912,-4.878 0.609,-1.083 1.389,-1.625 2.34,-1.625 0.989,0 1.998,0.645 3.025,1.935 1.027,1.291 1.693,2.813 1.997,4.568 l 1.77,-0.465 z m -26.709,1.935 c 0,-3.767 -1.142,-7.148 -3.424,-10.141 -2.892,-3.7677 -6.944,-5.6513 -12.156,-5.6513 -1.104,0 -2.378,0.1805 -3.824,0.5418 -3.31,0.8258 -5.193,1.2391 -5.65,1.2391 -1.103,0 -2.054,-0.3618 -2.854,-1.0844 l -0.969,15.4058 1.825,0.697 c 0.495,-3.716 1.675,-6.477 3.539,-8.284 1.56,-1.548 3.443,-2.322 5.65,-2.322 1.522,0 2.958,0.374 4.309,1.122 1.35,0.749 2.121,1.51 2.311,2.284 l 0.228,1.471 c 0,1.755 -1.484,3.071 -4.452,3.948 -4.565,1.342 -7.361,2.349 -8.389,3.02 -3.005,1.961 -4.508,5.109 -4.508,9.444 0,3.717 1.256,6.761 3.767,9.135 2.511,2.375 5.916,3.562 10.215,3.562 1.141,0 2.359,-0.129 3.653,-0.387 3.081,-0.62 4.66,-0.929 4.737,-0.929 0.989,0 1.712,0.438 2.168,1.316 l 0.514,-12 -1.826,0 c 0,1.806 -0.951,3.303 -2.854,4.49 -1.902,1.187 -3.843,1.781 -5.84,1.781 -1.075,0 -1.94,-0.142 -2.597,-0.426 -0.656,-0.284 -1.036,-0.838 -1.151,-1.665 l 0,-0.464 c 0,-1.084 1.294,-2.064 3.881,-2.942 4.147,-1.394 6.734,-2.4 7.762,-3.019 3.043,-1.755 4.946,-4.206 5.707,-7.355 0.152,-0.929 0.228,-1.857 0.228,-2.787 z m -29.962,-14.4763 -16.664,0 0,2.4773 c 1.179,0 1.94,0.491 2.282,1.471 0.229,0.671 0.343,1.961 0.343,3.871 l 0,17.883 c 0,1.341 -0.191,2.349 -0.571,3.019 -0.381,0.671 -0.893,1.007 -1.54,1.007 -1.142,0 -2.312,-0.891 -3.51,-2.671 -1.199,-1.781 -1.798,-3.806 -1.798,-6.077 l 0,-13.161 c 0,-1.548 0.114,-2.658 0.342,-3.329 0.457,-1.342 1.389,-2.013 2.797,-2.013 l 0,-2.4773 -17.179,0 0,2.4773 c 1.561,0 2.569,0.465 3.025,1.393 0.305,0.62 0.457,1.704 0.457,3.252 l 0,22.141 c 0,1.652 -0.114,2.787 -0.342,3.407 -0.457,1.186 -1.37,1.78 -2.74,1.78 l 0,2.581 11.87,1.367 c 0.343,-0.529 0.686,-1.535 1.028,-3.006 0.152,-0.684 0.4,-1.987 0.742,-3.884 1.637,2.219 3.386,3.922 5.25,5.109 1.865,1.187 3.672,1.781 5.422,1.781 2.245,0 4.109,-0.838 5.593,-2.516 1.484,-1.677 2.226,-3.884 2.226,-6.619 l 0,-21.444 c 0,-1.497 0.095,-2.633 0.285,-3.406 0.342,-1.445 1.046,-2.168 2.111,-2.168 l 0.571,0.232 0,-2.4773 z m -36.981,0 -17.521,0 0,2.4773 c 1.103,0 1.864,0.671 2.283,2.013 0.228,0.774 0.342,1.884 0.342,3.329 l 0,34.605 c 0,1.703 -0.114,2.864 -0.342,3.484 -0.419,1.135 -1.332,1.703 -2.739,1.703 l 0,2.477 17.977,0 0,-2.477 c -1.294,0 -2.168,-0.645 -2.626,-1.936 -0.266,-0.774 -0.399,-1.858 -0.399,-3.251 l 0,-34.605 c 0,-1.755 0.114,-2.942 0.342,-3.561 0.419,-1.188 1.313,-1.781 2.683,-1.781 l 0,-2.4773" /></g></svg>